<svg viewBox="47.795 81.259 225.03 194.84" width="225.03" height="194.84">
  <path d="M 131.645 81.259 L 59.345 206.489 L 64.885 216.089 L 142.725 81.259 L 131.645 81.259 Z M 108.545 81.259 L 47.795 186.489 L 53.335 196.079 L 119.625 81.259 L 108.545 81.259 Z M 154.745 81.259 L 70.895 226.499 L 76.435 236.089 L 165.825 81.259 L 154.745 81.259 Z M 212.025 81.259 L 200.945 81.259 L 93.945 266.509 L 99.485 276.099 L 212.025 81.259 Z M 177.845 81.259 L 82.445 246.499 L 87.985 256.099 L 188.925 81.259 L 177.845 81.259 Z" fill="#0082cb"></path>
  <path d="M 166.285 181.279 L 221.025 276.099 L 226.565 266.509 L 171.835 171.679 L 166.285 181.279 Z M 177.835 161.279 L 232.575 256.089 L 238.115 246.499 L 183.385 151.679 L 177.835 161.279 Z M 218.035 91.679 L 212.495 101.269 L 267.285 196.079 L 272.825 186.489 L 218.035 91.679 Z M 189.395 141.279 L 244.135 236.099 L 249.675 226.509 L 194.935 131.679 L 189.395 141.279 Z M 200.945 121.279 L 255.685 216.099 L 261.225 206.499 L 206.485 111.679 L 200.945 121.279 Z" fill="#582c83"></path>
  <path d="M 134.655 276.099 L 145.725 276.099 L 160.285 250.889 L 174.845 276.099 L 185.915 276.099 L 160.285 231.679 L 134.655 276.099 Z M 160.285 191.679 L 111.555 276.079 L 122.625 276.079 L 160.285 210.879 L 197.935 276.099 L 209.015 276.099 L 160.285 191.679 Z" fill="#fd4338"></path>
</svg>