
<svg viewBox="23.561 -99.365 440 485" width="440" height="485">
  <g transform="matrix(1, 0, 0, 1, 23.560814, -99.365044)">
    <g>
      <path d="M426.5,458h-368C51,458,45,464,45,471.5S51,485,58.5,485h368c7.5,0,13.5-6,13.5-13.5S434,458,426.5,458z" style="fill: rgb(255, 255, 255);"></path>
      <path d="M233,378.7c2.5,2.5,6,4,9.5,4s7-1.4,9.5-4l107.5-107.5c5.3-5.3,5.3-13.8,0-19.1c-5.3-5.3-13.8-5.3-19.1,0L256,336.5v-323
			C256,6,250,0,242.5,0S229,6,229,13.5v323l-84.4-84.4c-5.3-5.3-13.8-5.3-19.1,0s-5.3,13.8,0,19.1L233,378.7z" style="fill: rgb(255, 255, 255);"></path>
    </g>
  </g>
  <g transform="matrix(1, 0, 0, 1, 23.560814, -99.365044)"></g>
  <g transform="matrix(1, 0, 0, 1, 23.560814, -99.365044)"></g>
  <g transform="matrix(1, 0, 0, 1, 23.560814, -99.365044)"></g>
  <g transform="matrix(1, 0, 0, 1, 23.560814, -99.365044)"></g>
  <g transform="matrix(1, 0, 0, 1, 23.560814, -99.365044)"></g>
  <g transform="matrix(1, 0, 0, 1, 23.560814, -99.365044)"></g>
  <g transform="matrix(1, 0, 0, 1, 23.560814, -99.365044)"></g>
  <g transform="matrix(1, 0, 0, 1, 23.560814, -99.365044)"></g>
  <g transform="matrix(1, 0, 0, 1, 23.560814, -99.365044)"></g>
  <g transform="matrix(1, 0, 0, 1, 23.560814, -99.365044)"></g>
  <g transform="matrix(1, 0, 0, 1, 23.560814, -99.365044)"></g>
  <g transform="matrix(1, 0, 0, 1, 23.560814, -99.365044)"></g>
  <g transform="matrix(1, 0, 0, 1, 23.560814, -99.365044)"></g>
  <g transform="matrix(1, 0, 0, 1, 23.560814, -99.365044)"></g>
  <g transform="matrix(1, 0, 0, 1, 23.560814, -99.365044)"></g>
</svg>