<svg id="svg" version="1.1" xmlns="http://www.w3.org/2000/svg" xmlns:xlink="http://www.w3.org/1999/xlink" width="400" height="400" viewBox="0, 0, 400,400"><g id="svgg"><path id="path0" d="M100.205 71.643 C 89.561 72.763,78.272 78.834,71.802 86.916 C 65.342 94.986,59.595 110.192,47.015 152.500 C 46.443 154.425,45.913 156.000,45.838 156.000 C 43.805 156.000,18.897 161.326,18.520 161.842 C 18.250 162.211,17.032 165.503,15.814 169.157 C 12.008 180.576,11.700 180.392,29.004 177.024 C 35.152 175.828,40.232 174.899,40.293 174.960 C 40.498 175.165,21.125 240.848,15.946 257.507 C 12.714 267.902,12.934 268.405,19.931 266.637 C 29.493 264.220,36.981 258.913,42.186 250.864 C 45.001 246.512,45.307 245.605,54.810 213.449 C 59.629 197.142,64.618 180.566,65.896 176.614 L 68.221 169.428 78.951 167.362 C 91.676 164.912,90.465 165.745,93.153 157.600 C 96.890 146.281,96.748 146.158,83.045 148.820 C 78.459 149.711,74.616 150.349,74.505 150.238 C 74.223 149.957,81.532 127.670,84.683 119.200 C 92.327 98.655,98.307 91.400,107.600 91.400 C 112.776 91.400,116.249 92.903,113.604 93.998 C 108.888 95.952,106.352 104.002,108.752 109.400 C 113.179 119.357,131.035 118.012,136.709 107.295 C 143.365 94.720,137.372 80.966,122.615 74.950 C 115.004 71.847,108.036 70.818,100.205 71.643 M165.202 117.874 C 160.549 119.577,157.251 124.979,157.718 130.132 C 159.073 145.067,181.414 143.997,181.342 129.000 C 181.302 120.712,173.028 115.008,165.202 117.874 M126.249 124.213 C 120.336 125.377,115.263 126.571,114.976 126.865 C 114.688 127.159,111.911 136.310,108.806 147.200 C 102.449 169.491,98.682 182.205,95.456 192.262 C 92.166 202.519,91.682 207.848,93.585 212.856 C 97.865 224.120,117.229 226.416,123.656 216.422 C 126.103 212.617,124.869 210.727,120.592 211.724 C 115.722 212.860,115.021 211.614,116.786 204.958 C 118.518 198.430,125.024 175.916,133.177 148.239 C 140.680 122.771,140.278 124.410,139.300 123.279 C 138.155 121.954,137.463 122.004,126.249 124.213 M203.626 148.430 C 198.031 149.500,193.207 150.622,192.906 150.922 C 192.606 151.223,189.327 161.893,185.619 174.634 C 179.827 194.541,170.044 227.923,169.365 230.100 C 169.180 230.692,169.414 230.801,170.873 230.808 C 171.823 230.812,174.580 231.082,177.000 231.406 C 191.394 233.339,193.758 233.591,193.992 233.214 C 194.127 232.995,195.030 230.112,195.998 226.808 C 197.742 220.853,198.120 220.088,198.588 221.563 C 200.367 227.169,213.077 229.973,223.989 227.169 C 241.490 222.671,252.534 209.766,256.791 188.837 C 260.977 168.257,257.085 154.748,245.281 148.890 L 241.472 147.000 237.036 147.020 C 231.142 147.047,225.493 149.067,218.785 153.547 L 216.488 155.080 217.444 152.270 C 219.708 145.613,219.154 145.459,203.626 148.430 M285.415 148.436 C 279.703 149.516,274.821 150.624,274.565 150.899 C 274.309 151.175,271.278 161.120,267.829 173.000 C 264.380 184.880,258.569 204.727,254.916 217.103 C 251.263 229.480,248.347 239.679,248.437 239.767 C 249.039 240.356,272.404 242.961,272.861 242.490 C 273.015 242.330,274.550 237.507,276.271 231.770 C 279.752 220.166,279.541 220.540,281.315 222.853 C 289.962 234.129,317.052 227.787,329.217 211.637 C 339.403 198.115,343.300 171.182,336.914 158.441 C 330.374 145.395,316.207 143.389,300.805 153.328 C 298.152 155.040,298.209 155.080,299.199 152.203 C 301.457 145.639,300.948 145.500,285.415 148.436 M161.408 148.838 C 155.912 149.924,151.184 151.044,150.902 151.327 C 150.620 151.609,148.787 157.591,146.830 164.620 C 143.179 177.733,140.892 185.335,137.751 194.800 C 134.038 205.991,134.535 212.956,139.396 217.817 C 145.357 223.778,157.855 224.560,164.135 219.366 C 170.302 214.265,169.731 209.379,163.200 211.353 C 160.247 212.245,158.414 210.796,159.048 208.072 C 159.673 205.390,166.015 183.018,170.576 167.405 C 177.523 143.628,178.433 145.472,161.408 148.838 M230.312 163.031 C 242.124 168.917,238.793 195.200,224.505 208.851 C 216.784 216.227,208.334 216.989,204.085 210.691 C 201.572 206.966,201.353 208.561,207.232 187.743 L 212.525 169.000 214.162 167.509 C 219.794 162.380,225.712 160.739,230.312 163.031 M311.822 162.949 C 318.000 165.826,320.634 175.039,318.405 185.977 C 313.562 209.742,292.140 223.893,284.403 208.438 L 283.521 206.677 288.821 188.038 C 294.741 167.224,294.341 168.121,299.127 164.937 C 303.647 161.929,308.126 161.228,311.822 162.949 M365.207 232.915 C 344.268 254.732,311.467 258.409,234.200 247.599 C 224.960 246.306,214.790 244.954,211.600 244.595 C 208.410 244.236,200.580 243.247,194.200 242.398 C 146.274 236.015,118.025 237.301,87.800 247.240 C 58.410 256.905,44.975 274.254,49.001 297.341 C 52.091 315.062,69.541 326.351,97.016 328.403 C 129.568 330.835,164.996 309.735,179.985 278.991 C 182.731 273.358,182.813 272.905,181.137 272.634 C 178.131 272.147,160.006 270.000,158.906 270.000 C 157.865 270.000,157.452 270.403,155.521 273.300 C 136.302 302.148,105.743 314.866,82.870 303.535 C 63.230 293.807,75.478 272.610,105.000 265.236 C 126.997 259.741,156.399 260.473,200.200 267.605 C 296.626 283.306,361.233 282.824,382.872 266.241 C 389.229 261.369,386.940 242.182,379.048 234.196 C 372.466 227.535,370.541 227.357,365.207 232.915 " stroke="none" fill="#44c4f4" fill-rule="evenodd"></path><path id="path1" d="" stroke="none" fill="#48c4f4" fill-rule="evenodd"></path><path id="path2" d="" stroke="none" fill="#48c4f4" fill-rule="evenodd"></path><path id="path3" d="" stroke="none" fill="#48c4f4" fill-rule="evenodd"></path><path id="path4" d="" stroke="none" fill="#48c4f4" fill-rule="evenodd"></path></g></svg>