<!doctype html>
<svg viewBox="77.772 -93.235 512 512" width="512" height="512">
  <rect width="512" height="512" rx="15%" transform="matrix(1, 0, 0, 1, 77.771629, -93.235123)" style="fill: rgba(255, 255, 255, 0);"></rect>
  <path d="M158 391v-142l-82-63V361q0 30 30 30" fill="#4285f4" transform="matrix(1, 0, 0, 1, 77.771629, -93.235123)"></path>
  <path d="M 154 248l102 77l102-77v-98l-102 77l-102-77" fill="#ea4335" transform="matrix(1, 0, 0, 1, 77.771629, -93.235123)"></path>
  <path d="M354 391v-142l82-63V361q0 30-30 30" fill="#34a853" transform="matrix(1, 0, 0, 1, 77.771629, -93.235123)"></path>
  <path d="M76 188l82 63v-98l-30-23c-27-21-52 0-52 26" fill="#c5221f" transform="matrix(1, 0, 0, 1, 77.771629, -93.235123)"></path>
  <path d="M436 188l-82 63v-98l30-23c27-21 52 0 52 26" fill="#fbbc04" transform="matrix(1, 0, 0, 1, 77.771629, -93.235123)"></path>
</svg>