<!doctype html>
<svg viewBox="209.364 202.682 53.454 85.199" width="53.454" height="85.199">
  <path d="M 950.897 1471.358 C 941.533 1462.969 940.195 1428.769 940.195 1194.528 C 940.195 960.287 941.533 926.086 950.897 917.698 C 959.592 908.663 987.014 907.373 1147.535 907.373 C 1308.056 907.373 1335.478 908.663 1344.173 917.698 C 1353.536 926.086 1354.874 960.287 1354.874 1194.528 C 1354.874 1489.426 1356.212 1481.683 1312.737 1481.683 C 1292.003 1481.037 1288.659 1477.166 1213.081 1348.753 L 1134.827 1217.113 L 1191.678 1259.702 C 1243.847 1299.065 1249.867 1301.646 1259.23 1292.612 C 1268.594 1283.578 1267.925 1279.706 1251.873 1253.249 C 1242.51 1237.117 1221.776 1210.015 1207.061 1193.237 C 1192.347 1176.46 1172.951 1154.52 1164.924 1144.84 C 1156.23 1135.161 1127.47 1092.572 1100.716 1049.337 C 1073.963 1006.748 1050.553 973.193 1048.547 974.483 C 1044.534 979 1087.339 1051.918 1139.509 1128.708 C 1162.918 1164.199 1191.009 1207.434 1202.379 1225.502 L 1221.776 1257.766 L 1165.593 1208.724 C 1111.418 1160.973 1093.359 1151.293 1083.995 1166.135 C 1079.982 1171.297 1160.243 1313.262 1249.867 1461.033 L 1262.575 1481.683 L 1112.086 1481.683 C 983.67 1481.683 959.592 1480.392 950.897 1471.358 Z" style="fill: rgb(160, 38, 60);" transform="matrix(0.1, 0, 0, -0.1, 121.364212, 350.85202)"></path>
  <path d="M 880 833.164 L 880 784.767 L 920.13 784.767 C 955.579 784.767 960.26 786.058 960.26 797.673 C 960.26 807.998 955.579 810.579 936.851 810.579 L 913.442 810.579 L 913.442 846.07 C 913.442 879.625 912.773 881.561 896.721 881.561 C 880.669 881.561 880 880.271 880 833.164 Z" style="fill: rgb(160, 38, 60);" transform="matrix(0.1, 0, 0, -0.1, 121.364212, 350.85202)"></path>
  <path d="M 1201.042 868.655 C 1201.042 858.331 1196.36 855.75 1180.977 855.75 C 1153.554 855.75 1140.178 830.583 1154.892 805.417 C 1163.587 790.575 1169.606 787.994 1199.704 786.703 L 1234.484 784.767 L 1234.484 833.164 C 1234.484 880.271 1233.815 881.561 1217.763 881.561 C 1205.724 881.561 1201.042 878.335 1201.042 868.655 Z M 1198.366 813.16 C 1195.022 804.771 1191.678 804.126 1186.327 809.289 C 1182.314 813.16 1180.977 820.904 1183.652 827.357 C 1186.996 835.745 1190.34 836.391 1195.691 831.228 C 1199.704 827.357 1201.042 819.613 1198.366 813.16 Z" style="fill: rgb(160, 38, 60);" transform="matrix(0.1, 0, 0, -0.1, 121.364212, 350.85202)"></path>
  <path d="M 978.319 844.134 C 952.903 817.032 974.975 782.186 1014.436 786.058 C 1030.488 787.349 1039.852 793.156 1046.54 804.771 C 1055.235 820.258 1055.235 823.485 1045.203 838.972 C 1031.157 859.621 995.04 862.202 978.319 844.134 Z M 1017.112 820.258 C 1017.112 813.806 1013.099 807.353 1009.086 806.062 C 1003.735 804.126 1000.391 809.289 1000.391 820.258 C 1000.391 831.228 1003.735 836.391 1009.086 835.1 C 1013.099 833.164 1017.112 826.711 1017.112 820.258 Z" style="fill: rgb(160, 38, 60);" transform="matrix(0.1, 0, 0, -0.1, 121.364212, 350.85202)"></path>
  <path d="M 1060.586 820.258 C 1060.586 786.703 1061.255 784.767 1077.307 784.767 C 1092.021 784.767 1094.028 787.349 1094.028 807.353 C 1094.028 819.613 1097.372 829.938 1100.716 829.938 C 1104.729 829.938 1107.405 819.613 1107.405 807.353 C 1107.405 787.349 1109.411 784.767 1124.125 784.767 C 1138.84 784.767 1140.846 787.349 1140.846 809.934 C 1140.846 851.878 1136.833 855.75 1096.703 855.75 L 1060.586 855.75 L 1060.586 820.258 Z" style="fill: rgb(160, 38, 60);" transform="matrix(0.1, 0, 0, -0.1, 121.364212, 350.85202)"></path>
  <path d="M 1252.542 844.134 C 1228.464 818.323 1247.86 784.767 1285.984 784.767 C 1308.724 784.767 1328.121 801.545 1328.121 821.549 C 1328.121 851.878 1274.614 868.01 1252.542 844.134 Z M 1293.341 822.194 C 1289.997 801.545 1274.614 799.609 1274.614 819.613 C 1274.614 830.583 1277.958 836.391 1285.315 836.391 C 1292.003 836.391 1294.679 831.874 1293.341 822.194 Z" style="fill: rgb(160, 38, 60);" transform="matrix(0.1, 0, 0, -0.1, 121.364212, 350.85202)"></path>
  <path d="M 1334.809 820.258 C 1334.809 786.703 1335.478 784.767 1351.53 784.767 C 1366.244 784.767 1368.251 787.349 1368.251 806.707 C 1368.251 818.968 1371.595 831.228 1374.939 833.164 C 1378.952 835.745 1381.628 826.711 1381.628 811.224 C 1381.628 787.349 1382.965 784.767 1399.017 784.767 C 1415.069 784.767 1415.738 786.058 1413.732 818.968 L 1411.725 852.523 L 1373.602 854.459 L 1334.809 856.395 L 1334.809 820.258 Z" style="fill: rgb(160, 38, 60);" transform="matrix(0.1, 0, 0, -0.1, 121.364212, 350.85202)"></path>
  <path d="M 931.501 755.084 C 928.825 752.503 926.819 728.627 926.819 702.815 L 926.819 655.064 L 945.546 657 C 959.592 658.29 964.274 662.807 965.611 677.004 C 966.949 689.264 971.631 694.427 980.994 694.427 C 990.358 694.427 993.702 689.91 993.702 675.068 C 993.702 658.935 996.378 655.709 1010.423 655.709 C 1027.813 655.709 1027.813 655.709 1025.806 706.042 C 1023.8 750.567 1022.462 755.729 1010.423 755.729 C 1002.397 755.729 996.378 749.922 993.702 739.597 C 987.683 716.366 968.287 715.076 965.611 737.661 C 963.605 755.084 942.871 766.054 931.501 755.084 Z" style="fill: rgb(160, 38, 60);" transform="matrix(0.1, 0, 0, -0.1, 121.364212, 350.85202)"></path>
  <path d="M 1172.282 754.439 C 1169.606 752.503 1167.6 744.759 1167.6 738.306 C 1167.6 731.208 1164.256 727.982 1160.911 729.918 C 1148.204 737.661 1120.781 714.431 1120.781 697.008 C 1120.781 665.388 1131.483 656.354 1167.6 657 L 1201.042 657 L 1201.042 707.978 C 1201.042 753.148 1199.704 758.956 1189.003 758.956 C 1182.314 758.956 1174.288 757.02 1172.282 754.439 Z M 1167.6 694.427 C 1167.6 687.328 1164.924 681.521 1160.911 681.521 C 1157.567 681.521 1154.223 687.328 1154.223 694.427 C 1154.223 701.525 1157.567 707.332 1160.911 707.332 C 1164.924 707.332 1167.6 701.525 1167.6 694.427 Z" style="fill: rgb(160, 38, 60);" transform="matrix(0.1, 0, 0, -0.1, 121.364212, 350.85202)"></path>
  <path d="M 1236.49 728.627 C 1214.418 726.046 1214.418 725.401 1214.418 690.555 C 1214.418 657.645 1215.087 655.709 1231.139 655.709 C 1245.854 655.709 1247.86 658.29 1247.86 677.649 C 1247.86 692.491 1252.542 702.17 1262.575 708.623 C 1275.283 717.012 1275.283 735.08 1262.575 731.853 C 1259.899 731.853 1247.86 729.918 1236.49 728.627 Z" style="fill: rgb(160, 38, 60);" transform="matrix(0.1, 0, 0, -0.1, 121.364212, 350.85202)"></path>
  <path d="M 1292.672 720.238 C 1271.938 704.751 1269.932 690.555 1285.315 669.905 C 1298.023 651.837 1334.809 650.547 1350.192 667.324 C 1384.972 704.106 1333.471 751.212 1292.672 720.238 Z M 1326.783 693.136 C 1325.445 684.747 1322.101 678.294 1318.088 678.294 C 1314.744 678.294 1310.731 684.747 1309.393 693.136 C 1308.056 702.815 1310.731 707.332 1318.088 707.332 C 1325.445 707.332 1328.121 702.815 1326.783 693.136 Z" style="fill: rgb(160, 38, 60);" transform="matrix(0.1, 0, 0, -0.1, 121.364212, 350.85202)"></path>
  <path d="M 1047.209 694.427 C 1063.261 655.064 1063.93 649.256 1050.553 649.256 C 1045.203 649.256 1040.521 644.739 1040.521 639.577 C 1040.521 627.316 1075.969 626.026 1085.333 638.286 C 1091.352 645.384 1120.781 717.657 1120.781 724.11 C 1120.781 725.401 1113.424 726.691 1104.729 726.691 C 1092.69 726.691 1087.339 722.174 1083.995 709.268 L 1079.313 691.2 L 1072.625 709.268 C 1067.943 721.529 1061.924 726.691 1049.885 726.691 L 1033.833 726.691 L 1047.209 694.427 Z" style="fill: rgb(160, 38, 60);" transform="matrix(0.1, 0, 0, -0.1, 121.364212, 350.85202)"></path>
</svg>