<!doctype html>
<svg viewBox="154.706 136.391 184.549 184.55" width="184.549" height="184.55">
  <path id="path0" d="M 181.797 33.17 C 181.169 33.271 179.574 33.47 178.254 33.612 C 176.934 33.753 175.34 33.957 174.712 34.064 C 171.325 34.641 170.497 34.791 169.454 35.016 C 166.361 35.686 158.273 38.157 156.391 39.007 C 155.995 39.186 155.613 39.332 155.541 39.332 C 155.296 39.332 151.561 41.04 148.312 42.638 C 142.605 45.443 135.498 50.112 130.031 54.647 C 128.275 56.103 120.456 63.907 119.381 65.275 C 118.887 65.904 118.422 66.47 118.348 66.532 C 117.518 67.232 110.14 77.793 110.14 78.281 C 110.14 78.32 109.644 79.216 109.038 80.271 C 108.432 81.326 107.242 83.63 106.394 85.39 C 104.802 88.692 104.749 88.809 104.083 90.532 C 103.864 91.098 103.603 91.767 103.503 92.018 C 103.131 92.946 102.16 95.712 101.778 96.932 C 101.561 97.624 101.308 98.395 101.216 98.647 C 100.249 101.296 98.555 109.766 97.993 114.761 C 97.607 118.193 97.474 129.794 97.788 132.704 C 98.387 138.263 98.992 142.122 99.829 145.732 C 100.507 148.656 101.815 153.249 102.368 154.647 C 102.468 154.898 102.724 155.618 102.938 156.247 C 103.151 156.875 103.471 157.714 103.647 158.11 C 103.824 158.506 103.969 158.891 103.969 158.966 C 103.969 159.041 104.329 159.881 104.769 160.834 C 105.209 161.786 105.569 162.605 105.569 162.654 C 105.569 162.901 108.081 167.925 109.039 169.594 C 109.645 170.649 110.14 171.546 110.14 171.586 C 110.14 172.381 117.712 182.817 120.322 185.618 C 120.849 186.184 121.609 187.028 122.01 187.494 C 123.147 188.811 124.924 190.565 127.521 192.932 C 128.831 194.127 130.111 195.294 130.364 195.526 C 132.075 197.09 139.369 202.327 141.585 203.582 C 141.828 203.719 142.643 204.173 143.397 204.591 C 144.152 205.008 145.129 205.554 145.569 205.804 C 149.619 208.101 155.171 210.479 161.683 212.705 C 164.545 213.684 171.41 215.326 174.597 215.795 C 175.54 215.933 176.877 216.137 177.569 216.246 C 178.26 216.356 179.803 216.516 180.997 216.602 C 182.192 216.687 183.374 216.796 183.626 216.843 C 186.366 217.362 198.611 216.856 203.283 216.032 C 208.911 215.039 211.399 214.475 216.426 213.055 C 218.036 212.6 218.698 212.373 222.883 210.84 C 233.88 206.81 246.489 198.437 255.397 189.248 C 258.872 185.663 260.921 183.244 263.794 179.333 C 263.886 179.207 264.208 178.795 264.508 178.418 C 265.314 177.406 268.356 172.685 269.222 171.104 C 269.634 170.35 270.05 169.63 270.145 169.504 C 270.451 169.098 272.994 164.057 273.547 162.761 C 274.492 160.542 274.972 159.456 275.187 159.05 C 275.303 158.832 275.397 158.538 275.397 158.399 C 275.397 158.259 275.542 157.82 275.718 157.424 C 276.383 155.931 277.805 151.641 278.419 149.275 C 278.704 148.176 279.263 145.921 279.524 144.818 C 279.991 142.845 280.617 139.1 281.11 135.332 C 281.746 130.47 281.599 117.015 280.86 112.475 C 280.285 108.949 279.942 107.052 279.742 106.304 C 279.625 105.864 279.224 104.27 278.851 102.761 C 277.658 97.938 275.669 91.7 275.137 91.115 C 275.029 90.996 274.94 90.767 274.94 90.607 C 274.94 90.447 274.671 89.722 274.341 88.996 C 274.012 88.27 273.585 87.315 273.393 86.875 C 268.432 75.5 258.425 62.184 249.345 54.875 C 248.798 54.435 248.237 53.972 248.097 53.847 C 245.727 51.711 238.719 46.855 235.054 44.809 C 233.202 43.775 227.587 40.932 227.397 40.932 C 227.289 40.932 226.534 40.624 225.719 40.247 C 224.904 39.87 224.176 39.561 224.101 39.561 C 224.025 39.561 223.528 39.365 222.995 39.126 C 221.011 38.236 216.853 36.818 216.227 36.818 C 216.001 36.818 215.744 36.746 215.657 36.658 C 215.484 36.486 212.086 35.525 210.597 35.228 C 205.368 34.185 203.912 33.941 200.997 33.624 C 199.74 33.487 198.023 33.275 197.182 33.153 C 195.375 32.892 183.448 32.905 181.797 33.17 M 194.254 38.424 C 199.72 38.79 204.04 39.326 207.054 40.011 C 213.157 41.4 216.474 42.413 221.767 44.506 C 228.883 47.32 237.803 52.506 243.404 57.086 C 248.751 61.458 254.971 67.805 258.151 72.132 C 258.521 72.635 258.882 73.098 258.955 73.161 C 260.741 74.713 269.683 90.428 269.683 92.016 C 269.683 92.083 269.876 92.573 270.112 93.106 C 270.348 93.639 270.716 94.59 270.93 95.218 C 271.144 95.847 271.408 96.567 271.517 96.818 C 271.626 97.07 271.888 97.892 272.099 98.647 C 272.31 99.401 272.564 100.224 272.663 100.475 C 272.833 100.906 273.119 101.951 273.568 103.79 C 273.675 104.23 273.928 105.207 274.129 105.961 C 275.402 110.736 276.181 117.899 276.19 124.932 C 276.208 137.483 273.997 148.126 268.925 159.904 C 267.012 164.349 261.465 174.022 260.079 175.332 C 260.013 175.395 259.774 175.736 259.548 176.09 C 259.323 176.444 258.998 176.907 258.827 177.119 C 258.656 177.331 257.562 178.687 256.395 180.132 C 253.085 184.234 246.389 190.729 242.597 193.515 C 242.094 193.885 241.632 194.24 241.569 194.304 C 241.122 194.761 238.454 196.593 235.854 198.229 C 232.001 200.652 229.389 202.09 226.369 203.45 C 225.74 203.733 224.58 204.259 223.792 204.62 C 223.003 204.98 222.283 205.276 222.192 205.277 C 222.1 205.277 221.769 205.409 221.454 205.57 C 221.14 205.73 219.494 206.311 217.797 206.861 C 216.1 207.411 214.506 207.936 214.254 208.028 C 214.003 208.121 213.129 208.369 212.312 208.579 C 211.494 208.79 210.517 209.048 210.14 209.153 C 209.508 209.329 207.54 209.768 204.997 210.301 C 203.814 210.549 199.671 211.077 195.854 211.467 C 190.927 211.97 179.331 211.345 174.369 210.309 C 173.803 210.191 172.517 209.931 171.512 209.73 C 170.506 209.53 169.323 209.275 168.883 209.164 C 168.443 209.053 167.414 208.796 166.597 208.593 C 165.78 208.39 164.906 208.14 164.654 208.037 C 164.403 207.935 163.014 207.468 161.569 207 C 160.123 206.532 158.632 206.016 158.254 205.852 C 157.877 205.689 156.489 205.114 155.169 204.575 C 152.976 203.679 151.373 202.896 147.169 200.665 C 145.325 199.687 142.509 197.923 142.407 197.683 C 142.365 197.584 142.247 197.504 142.144 197.504 C 141.847 197.504 137.497 194.456 135.802 193.06 C 135.58 192.877 134.626 192.091 133.683 191.315 C 123.764 183.145 114.292 170.18 109.48 158.19 C 108.95 156.87 108.423 155.584 108.308 155.332 C 108.032 154.728 106.634 150.436 106.149 148.704 C 104.723 143.609 104.147 140.581 103.237 133.39 C 102.812 130.029 102.884 119.524 103.358 115.79 C 103.857 111.863 104.151 109.84 104.404 108.59 C 104.519 108.024 104.739 106.944 104.892 106.19 C 105.715 102.143 106.993 97.879 108.693 93.504 C 109.289 91.969 109.329 91.873 110.147 89.961 C 112.285 84.968 119.122 73.534 120.877 72.018 C 120.95 71.955 121.366 71.441 121.802 70.875 C 123.381 68.828 125.56 66.411 128.304 63.668 C 130.38 61.592 131.118 60.903 133.693 58.638 C 137.776 55.046 145.695 49.871 151.086 47.271 C 154.078 45.828 156.789 44.59 156.954 44.59 C 157.041 44.59 158.347 44.113 159.855 43.53 C 161.363 42.947 162.906 42.389 163.283 42.289 C 163.66 42.189 164.534 41.937 165.226 41.73 C 166.519 41.342 166.942 41.236 169.683 40.606 C 171.277 40.24 174.95 39.521 177.34 39.106 C 178.879 38.839 183.473 38.423 185.797 38.341 C 189.776 38.2 191.11 38.213 194.254 38.424 M 161.454 95.782 C 159.206 96.155 155.261 97.623 154.712 98.29 C 154.649 98.366 154.326 98.601 153.994 98.812 C 151.439 100.436 147.841 105.128 146.497 108.59 C 146.326 109.03 146.063 109.698 145.912 110.075 C 142.498 118.624 142.359 135.45 145.623 145.047 C 152.029 163.879 173.429 166.164 182.014 148.932 C 183.257 146.439 183.565 145.636 184.299 142.99 C 184.508 142.235 184.77 141.31 184.881 140.932 C 186.038 136.998 186.011 119.885 184.841 115.021 C 182.392 104.84 177.652 98.77 170.293 96.387 C 168.21 95.713 163.723 95.406 161.454 95.782 M 197.226 128.018 L 197.226 159.561 L 199.738 159.561 L 202.251 159.561 L 202.31 144.761 L 202.369 129.961 L 216.263 129.902 L 230.157 129.843 L 230.092 127.731 L 230.026 125.618 L 216.14 125.559 L 202.254 125.5 L 202.254 113.045 L 202.254 100.59 L 218.369 100.59 L 234.483 100.59 L 234.483 98.532 L 234.483 96.475 L 215.854 96.475 L 197.226 96.475 L 197.226 128.018 M 168.54 100.477 C 172.721 101.756 175.828 104.677 178 109.369 C 178.391 110.215 178.712 111.034 178.712 111.188 C 178.712 111.343 178.797 111.567 178.902 111.687 C 179.069 111.878 179.367 112.868 180.1 115.675 C 181.333 120.397 181.311 135.284 180.063 140.59 C 179.703 142.121 179.159 144.071 178.947 144.59 C 178.123 146.605 177.809 147.288 177.11 148.589 C 176.616 149.507 175.611 150.772 174.475 151.903 C 172.761 153.609 172.136 154.023 169.063 155.483 C 165.481 157.184 157.749 155.279 154.816 151.973 C 149.998 146.54 148.313 140.329 148.317 128.018 C 148.323 110.43 152.736 101.854 162.712 100.039 C 163.754 99.85 167.38 100.122 168.54 100.477 M 120.876 121.561 C 116.526 124.318 114.721 125.563 114.827 125.735 C 114.891 125.837 115.945 126.552 117.17 127.324 C 118.395 128.095 120.107 129.179 120.974 129.733 C 122.82 130.911 122.124 131.118 127.143 127.904 C 130.703 125.624 130.711 125.617 130.198 125.218 C 129.306 124.525 129.244 124.485 128.369 124.023 C 127.897 123.775 127.512 123.492 127.512 123.395 C 127.512 123.298 127.393 123.218 127.247 123.218 C 127.102 123.218 126.646 122.961 126.234 122.647 C 125.822 122.332 125.424 122.075 125.35 122.075 C 125.276 122.075 124.691 121.715 124.052 121.275 C 122.624 120.293 122.92 120.266 120.876 121.561 M 254.905 121.224 C 254.296 121.62 253.625 122.051 253.415 122.181 C 249.014 124.904 248.139 125.59 248.608 125.947 C 249.083 126.309 254.3 129.634 255.523 130.355 L 256.192 130.749 L 259.68 128.547 C 264.343 125.604 264.285 125.651 263.791 125.219 C 263.228 124.728 257.093 120.915 256.505 120.691 C 256.134 120.55 255.742 120.68 254.905 121.224" stroke="none" fill-rule="evenodd" style="fill: rgb(123, 94, 68);" transform="matrix(1, 0, 0, 1, 57.262875, 103.585007)"></path>
  <path id="path2" d="M 185.611 32.875 C 187.709 32.913 191.206 32.913 193.383 32.875 C 195.559 32.837 193.843 32.807 189.569 32.806 C 185.294 32.806 183.514 32.837 185.611 32.875 M 178.083 33.319 C 178.303 33.376 178.663 33.376 178.883 33.319 C 179.103 33.261 178.923 33.214 178.483 33.214 C 178.043 33.214 177.863 33.261 178.083 33.319 M 200.254 33.319 C 200.474 33.376 200.834 33.376 201.054 33.319 C 201.274 33.261 201.094 33.214 200.654 33.214 C 200.214 33.214 200.034 33.261 200.254 33.319 M 170.369 34.532 C 169.786 34.783 170.387 34.783 171.169 34.532 C 171.628 34.385 171.65 34.348 171.283 34.343 C 171.032 34.339 170.62 34.424 170.369 34.532 M 207.969 34.532 C 208.75 34.783 209.351 34.783 208.769 34.532 C 208.517 34.424 208.106 34.339 207.854 34.343 C 207.487 34.348 207.509 34.385 207.969 34.532 M 188.369 38.588 C 189.217 38.632 190.606 38.632 191.454 38.588 C 192.303 38.544 191.609 38.508 189.912 38.508 C 188.214 38.508 187.52 38.544 188.369 38.588 M 180.654 38.875 C 179.55 39.027 179.543 39.033 180.426 39.055 C 180.929 39.067 181.752 38.992 182.254 38.888 C 183.421 38.647 182.38 38.639 180.654 38.875 M 196.426 38.872 C 197.119 39.052 199.44 39.174 199.264 39.021 C 199.212 38.976 198.397 38.884 197.454 38.816 C 196.45 38.745 196.024 38.768 196.426 38.872 M 202.597 39.561 C 202.974 39.657 203.54 39.735 203.854 39.735 C 204.364 39.735 204.352 39.717 203.74 39.561 C 203.363 39.465 202.797 39.387 202.483 39.387 C 201.973 39.387 201.986 39.405 202.597 39.561 M 173.112 40.018 C 172.479 40.179 172.47 40.194 172.997 40.216 C 173.312 40.229 173.723 40.14 173.912 40.018 C 174.301 39.767 174.1 39.767 173.112 40.018 M 205.454 40.015 C 205.643 40.139 206.046 40.241 206.35 40.243 C 207.083 40.248 206.897 40.118 205.912 39.937 C 205.349 39.834 205.213 39.857 205.454 40.015 M 169.912 40.704 C 169.329 40.954 169.93 40.954 170.712 40.704 C 171.171 40.557 171.193 40.52 170.826 40.514 C 170.574 40.51 170.163 40.596 169.912 40.704 M 208.216 40.557 C 208.269 40.603 208.62 40.709 208.997 40.793 C 209.498 40.905 209.591 40.884 209.34 40.714 C 209.031 40.505 207.987 40.36 208.216 40.557 M 167.969 41.161 C 167.498 41.312 167.478 41.347 167.854 41.363 C 168.106 41.374 168.466 41.283 168.654 41.161 C 169.055 40.902 168.777 40.902 167.969 41.161 M 165.34 41.847 C 165.052 41.971 165.01 42.043 165.226 42.043 C 165.414 42.043 165.774 41.955 166.026 41.847 C 166.314 41.723 166.356 41.65 166.14 41.65 C 165.952 41.65 165.592 41.739 165.34 41.847 M 231.054 42.409 C 231.054 42.472 231.466 42.733 231.969 42.99 C 232.472 43.246 232.883 43.405 232.883 43.342 C 232.883 43.279 232.472 43.018 231.969 42.761 C 231.466 42.504 231.054 42.346 231.054 42.409 M 235.054 51.565 C 235.306 51.77 235.717 52.038 235.969 52.162 L 236.426 52.386 L 235.969 52.014 C 235.717 51.809 235.306 51.541 235.054 51.417 L 234.597 51.193 L 235.054 51.565 M 240.178 54.958 C 240.483 55.333 241.34 55.9 241.34 55.726 C 241.34 55.683 241.006 55.402 240.597 55.103 C 240.138 54.767 239.978 54.711 240.178 54.958 M 128.414 55.732 L 127.626 56.59 L 128.483 55.802 C 129.281 55.069 129.445 54.875 129.271 54.875 C 129.232 54.875 128.847 55.261 128.414 55.732 M 136.769 56.39 C 136.358 56.739 136.274 56.878 136.559 56.737 C 136.978 56.529 137.764 55.776 137.54 55.798 C 137.493 55.802 137.146 56.069 136.769 56.39 M 254.254 59.218 C 256.011 60.978 257.5 62.418 257.563 62.418 C 257.625 62.418 256.24 60.978 254.483 59.218 C 252.726 57.458 251.238 56.018 251.175 56.018 C 251.112 56.018 252.498 57.458 254.254 59.218 M 124.193 59.732 L 121.683 62.304 L 124.254 59.793 C 126.643 57.462 126.93 57.161 126.765 57.161 C 126.731 57.161 125.574 58.318 124.193 59.732 M 250.254 63.675 C 252.074 65.498 253.614 66.99 253.677 66.99 C 253.74 66.99 252.303 65.498 250.483 63.675 C 248.663 61.852 247.123 60.361 247.06 60.361 C 246.997 60.361 248.435 61.852 250.254 63.675 M 128.307 63.847 L 126.026 66.19 L 128.369 63.908 C 130.545 61.789 130.815 61.504 130.65 61.504 C 130.616 61.504 129.562 62.558 128.307 63.847 M 120.185 63.961 L 119.397 64.818 L 120.254 64.03 C 121.052 63.297 121.217 63.104 121.042 63.104 C 121.004 63.104 120.618 63.49 120.185 63.961 M 260.538 66.072 C 260.935 66.573 261.379 67.057 261.525 67.147 C 261.67 67.237 261.393 66.827 260.909 66.236 C 260.424 65.645 259.98 65.161 259.922 65.161 C 259.864 65.161 260.141 65.571 260.538 66.072 M 256.195 70.186 C 256.592 70.688 257.036 71.171 257.182 71.261 C 257.328 71.352 257.051 70.942 256.566 70.35 C 256.081 69.759 255.637 69.275 255.579 69.275 C 255.521 69.275 255.798 69.685 256.195 70.186 M 112.742 73.447 C 111.955 74.782 111.903 74.896 112.304 74.418 C 112.768 73.865 113.169 73.161 113.019 73.161 C 112.959 73.161 112.834 73.29 112.742 73.447 M 270.597 80.932 C 270.854 81.435 271.115 81.847 271.178 81.847 C 271.241 81.847 271.082 81.435 270.826 80.932 C 270.569 80.43 270.308 80.018 270.245 80.018 C 270.182 80.018 270.341 80.43 270.597 80.932 M 107.386 82.555 C 107.123 83.07 106.947 83.53 106.995 83.578 C 107.043 83.626 107.306 83.205 107.58 82.642 C 108.203 81.36 108.034 81.284 107.386 82.555 M 111.74 86.875 C 111.484 87.378 111.325 87.79 111.388 87.79 C 111.451 87.79 111.712 87.378 111.969 86.875 C 112.225 86.372 112.384 85.961 112.321 85.961 C 112.258 85.961 111.997 86.372 111.74 86.875 M 274.042 87.904 C 274.042 88.03 274.189 88.39 274.369 88.704 C 274.548 89.018 274.695 89.172 274.695 89.047 C 274.695 88.921 274.548 88.561 274.369 88.247 C 274.189 87.932 274.042 87.778 274.042 87.904 M 104.185 89.307 C 104.059 89.639 103.998 89.953 104.05 90.004 C 104.102 90.056 104.254 89.785 104.388 89.401 C 104.685 88.549 104.505 88.465 104.185 89.307 M 159.74 95.793 C 159.499 95.951 159.634 95.974 160.197 95.871 C 161.183 95.69 161.369 95.56 160.635 95.565 C 160.332 95.566 159.929 95.669 159.74 95.793 M 203.626 96.186 C 221.234 96.343 234.658 96.345 234.562 96.19 C 234.504 96.095 226.002 96.042 215.67 96.072 C 205.337 96.101 199.917 96.153 203.626 96.186 M 196.88 128.018 C 196.88 145.43 196.907 152.552 196.94 143.847 C 196.973 135.141 196.973 120.895 196.94 112.19 C 196.907 103.484 196.88 110.607 196.88 128.018 M 100.792 98.898 C 100.66 99.374 100.594 99.805 100.644 99.855 C 100.694 99.906 100.843 99.557 100.974 99.081 C 101.106 98.605 101.172 98.174 101.122 98.124 C 101.072 98.074 100.923 98.422 100.792 98.898 M 151.389 100.647 L 150.254 101.847 L 151.454 100.712 C 152.569 99.658 152.759 99.447 152.589 99.447 C 152.553 99.447 152.013 99.987 151.389 100.647 M 163.803 100.3 C 164.341 100.348 165.164 100.348 165.632 100.299 C 166.1 100.249 165.66 100.21 164.654 100.211 C 163.649 100.212 163.266 100.252 163.803 100.3 M 218.483 100.816 L 202.369 100.932 L 202.369 113.161 L 202.369 125.39 L 216.361 125.448 L 230.353 125.507 L 230.43 127.734 L 230.507 129.961 L 230.495 127.675 L 230.483 125.39 L 216.483 125.331 L 202.483 125.272 L 202.483 113.159 L 202.483 101.047 L 218.47 101.047 C 228.881 101.047 234.505 100.967 234.597 100.818 C 234.675 100.692 234.707 100.614 234.668 100.644 C 234.629 100.675 227.346 100.752 218.483 100.816 M 170.712 101.569 C 170.712 101.621 171.245 101.995 171.896 102.4 C 172.548 102.805 172.965 102.997 172.823 102.827 C 172.554 102.502 170.712 101.405 170.712 101.569 M 278.865 101.847 C 278.861 102.098 278.946 102.51 279.054 102.761 C 279.305 103.343 279.305 102.743 279.054 101.961 C 278.907 101.502 278.87 101.479 278.865 101.847 M 99.768 102.541 C 99.69 102.746 99.635 103.084 99.646 103.294 C 99.656 103.504 99.756 103.372 99.867 103.001 C 100.082 102.28 100.006 101.923 99.768 102.541 M 105.824 102.685 C 105.809 102.895 105.738 103.255 105.666 103.485 C 105.541 103.882 105.548 103.883 105.795 103.497 C 105.939 103.273 106.01 102.913 105.953 102.697 C 105.861 102.343 105.848 102.342 105.824 102.685 M 154.94 104.132 C 154.385 104.698 153.982 105.161 154.045 105.161 C 154.108 105.161 154.614 104.698 155.169 104.132 C 155.724 103.567 156.127 103.104 156.064 103.104 C 156.001 103.104 155.495 103.567 154.94 104.132 M 174.152 104.144 C 174.711 104.78 175.215 105.265 175.272 105.222 C 175.329 105.18 174.871 104.66 174.255 104.067 L 173.134 102.99 L 174.152 104.144 M 279.422 104.361 C 279.61 105.201 279.741 105.384 279.737 104.799 C 279.735 104.558 279.629 104.207 279.501 104.018 C 279.332 103.768 279.31 103.86 279.422 104.361 M 99.054 105.847 C 98.968 106.242 98.944 106.613 99.003 106.671 C 99.061 106.729 99.174 106.448 99.254 106.047 C 99.445 105.094 99.26 104.909 99.054 105.847 M 153.525 105.79 C 153.122 106.259 152.82 106.761 152.941 106.761 C 152.987 106.761 153.254 106.452 153.533 106.075 C 154.084 105.33 154.078 105.145 153.525 105.79 M 280.008 106.647 C 280.004 106.898 280.089 107.31 280.197 107.561 C 280.448 108.143 280.448 107.543 280.197 106.761 C 280.05 106.302 280.013 106.279 280.008 106.647 M 104.686 108.057 C 104.668 108.329 104.595 108.741 104.523 108.971 C 104.398 109.367 104.405 109.368 104.652 108.983 C 104.796 108.759 104.869 108.348 104.815 108.069 C 104.717 107.562 104.717 107.561 104.686 108.057 M 98.536 109.047 C 98.536 109.487 98.583 109.667 98.641 109.447 C 98.698 109.227 98.698 108.867 98.641 108.647 C 98.583 108.427 98.536 108.607 98.536 109.047 M 280.579 109.847 C 280.752 110.977 280.884 111.169 280.879 110.285 C 280.878 109.918 280.778 109.464 280.657 109.275 C 280.509 109.042 280.484 109.224 280.579 109.847 M 104.122 111.079 C 104.038 111.501 103.98 112.065 103.994 112.332 C 104.008 112.6 104.11 112.355 104.221 111.79 C 104.333 111.224 104.39 110.66 104.35 110.536 C 104.309 110.412 104.207 110.657 104.122 111.079 M 97.951 112.45 C 97.866 112.873 97.809 113.437 97.822 113.704 C 97.836 113.971 97.938 113.727 98.05 113.161 C 98.161 112.595 98.219 112.031 98.178 111.907 C 98.138 111.784 98.035 112.028 97.951 112.45 M 281.153 113.504 C 281.145 113.881 281.223 114.601 281.327 115.104 C 281.576 116.307 281.597 115.226 281.352 113.847 C 281.215 113.075 281.165 112.99 281.153 113.504 M 103.574 115.904 C 103.574 116.47 103.618 116.701 103.673 116.418 C 103.727 116.135 103.727 115.672 103.673 115.39 C 103.618 115.107 103.574 115.338 103.574 115.904 M 149.257 116.057 C 149.24 116.329 149.167 116.741 149.094 116.971 C 148.97 117.367 148.977 117.368 149.224 116.983 C 149.367 116.759 149.44 116.348 149.386 116.069 C 149.288 115.562 149.288 115.561 149.257 116.057 M 97.443 124.932 C 97.443 129.458 97.474 131.342 97.511 129.119 C 97.549 126.895 97.549 123.193 97.511 120.89 C 97.474 118.588 97.443 120.407 97.443 124.932 M 275.699 118.19 C 275.699 119.007 275.741 119.341 275.791 118.932 C 275.842 118.524 275.842 117.855 275.791 117.447 C 275.741 117.038 275.699 117.372 275.699 118.19 M 148.822 119.332 C 148.822 119.772 148.869 119.952 148.926 119.732 C 148.984 119.512 148.984 119.152 148.926 118.932 C 148.869 118.712 148.822 118.892 148.822 119.332 M 185.741 120.132 C 185.805 121.012 185.896 121.775 185.942 121.828 C 186.11 122.018 185.989 119.434 185.809 118.99 C 185.703 118.728 185.674 119.217 185.741 120.132 M 281.683 124.932 C 281.683 128.452 281.753 130.87 281.837 130.304 C 281.922 129.738 281.992 127.321 281.992 124.932 C 281.992 122.544 281.922 120.127 281.837 119.561 C 281.753 118.995 281.683 121.412 281.683 124.932 M 275.929 121.504 C 275.93 122.384 275.972 122.716 276.021 122.242 C 276.071 121.767 276.07 121.047 276.019 120.642 C 275.969 120.236 275.928 120.624 275.929 121.504 M 148.611 121.504 C 148.612 122.258 148.655 122.539 148.706 122.128 C 148.757 121.718 148.756 121.1 148.703 120.757 C 148.651 120.413 148.61 120.75 148.611 121.504 M 254.654 120.959 C 253.875 121.458 253.623 121.793 254.312 121.414 C 254.836 121.126 255.658 120.491 255.512 120.486 C 255.449 120.485 255.063 120.697 254.654 120.959 M 103.149 124.932 C 103.149 127.195 103.183 128.09 103.225 126.921 C 103.266 125.752 103.266 123.9 103.224 122.807 C 103.183 121.713 103.149 122.67 103.149 124.932 M 143.156 128.018 C 143.156 131.727 143.187 133.244 143.225 131.39 C 143.264 129.535 143.264 126.501 143.225 124.647 C 143.187 122.792 143.156 124.31 143.156 128.018 M 180.641 128.132 C 180.641 131.904 180.673 133.479 180.711 131.632 C 180.749 129.786 180.749 126.7 180.711 124.775 C 180.673 122.85 180.642 124.361 180.641 128.132 M 259.054 121.965 C 259.306 122.17 259.717 122.438 259.969 122.562 L 260.426 122.786 L 259.969 122.414 C 259.717 122.209 259.306 121.941 259.054 121.817 L 258.597 121.593 L 259.054 121.965 M 252.426 122.425 C 251.532 123.158 251.772 123.153 252.769 122.418 C 253.195 122.104 253.446 121.85 253.327 121.855 C 253.209 121.859 252.803 122.116 252.426 122.425 M 260.883 123.108 C 261.134 123.313 261.546 123.581 261.797 123.705 L 262.254 123.929 L 261.797 123.557 C 261.546 123.352 261.134 123.084 260.883 122.96 L 260.426 122.736 L 260.883 123.108 M 130.337 125.067 L 130.99 125.578 L 130.451 126.014 C 129.949 126.418 129.947 126.432 130.413 126.204 C 131.304 125.768 131.176 125.279 130.026 124.722 C 129.837 124.63 129.977 124.786 130.337 125.067 M 114.512 125.355 C 114.316 125.591 114.375 125.764 114.77 126.098 C 115.282 126.531 115.282 126.531 114.886 126.061 C 114.58 125.697 114.551 125.527 114.76 125.318 C 114.91 125.169 114.972 125.047 114.9 125.047 C 114.827 125.047 114.652 125.185 114.512 125.355 M 128.386 127.288 C 127.174 128.078 126.275 128.797 127.054 128.354 C 128.017 127.806 129.797 126.619 129.797 126.525 C 129.797 126.368 129.796 126.369 128.386 127.288 M 275.92 128.818 C 275.922 129.447 275.966 129.677 276.018 129.329 C 276.071 128.982 276.07 128.468 276.015 128.186 C 275.961 127.905 275.918 128.19 275.92 128.818 M 118.61 128.659 C 120.122 129.612 120.197 129.654 120.197 129.541 C 120.197 129.392 118.025 128.018 117.79 128.018 C 117.682 128.018 118.051 128.306 118.61 128.659 M 258.483 129.504 C 258.057 129.818 257.806 130.072 257.924 130.067 C 258.154 130.058 259.6 128.935 259.385 128.934 C 259.315 128.933 258.909 129.19 258.483 129.504 M 202.362 144.818 C 202.362 152.99 202.391 156.299 202.426 152.173 C 202.461 148.047 202.461 141.361 202.426 137.316 C 202.391 133.271 202.362 136.647 202.362 144.818 M 275.701 131.79 C 275.702 132.67 275.743 133.002 275.793 132.527 C 275.842 132.053 275.841 131.333 275.791 130.927 C 275.74 130.522 275.7 130.91 275.701 131.79 M 103.451 133.504 C 103.519 134.321 103.613 135.032 103.658 135.085 C 103.817 135.269 103.692 133.154 103.51 132.59 C 103.4 132.247 103.376 132.612 103.451 133.504 M 148.611 134.304 C 148.612 135.058 148.655 135.339 148.706 134.928 C 148.757 134.518 148.756 133.9 148.703 133.557 C 148.651 133.213 148.61 133.55 148.611 134.304 M 281.393 134.647 C 281.393 135.087 281.44 135.267 281.498 135.047 C 281.555 134.827 281.555 134.467 281.498 134.247 C 281.44 134.027 281.393 134.207 281.393 134.647 M 185.836 135.218 C 185.811 135.847 185.738 136.618 185.673 136.932 L 185.556 137.504 L 185.801 136.942 C 185.936 136.633 186.009 135.861 185.964 135.228 L 185.882 134.075 L 185.836 135.218 M 281.165 136.247 C 281.165 136.687 281.212 136.867 281.269 136.647 C 281.327 136.427 281.327 136.067 281.269 135.847 C 281.212 135.627 281.165 135.807 281.165 136.247 M 97.82 136.38 C 97.833 136.747 97.93 137.304 98.037 137.618 C 98.168 138.004 98.188 137.817 98.099 137.047 C 97.951 135.761 97.785 135.366 97.82 136.38 M 148.822 136.475 C 148.822 136.915 148.869 137.095 148.926 136.875 C 148.984 136.655 148.984 136.295 148.926 136.075 C 148.869 135.855 148.822 136.035 148.822 136.475 M 275.054 137.161 C 274.967 137.681 274.943 138.154 275.001 138.213 C 275.06 138.271 275.176 137.891 275.26 137.367 C 275.344 136.843 275.368 136.37 275.313 136.315 C 275.259 136.261 275.142 136.641 275.054 137.161 M 180.208 137.514 C 180.12 138.097 180.095 138.621 180.153 138.678 C 180.21 138.735 180.328 138.305 180.415 137.722 C 180.503 137.139 180.528 136.615 180.471 136.558 C 180.413 136.501 180.295 136.931 180.208 137.514 M 103.991 137.98 C 104.004 138.347 104.102 138.904 104.208 139.218 C 104.339 139.604 104.36 139.417 104.271 138.647 C 104.122 137.361 103.957 136.966 103.991 137.98 M 149.145 139.218 C 149.326 140.204 149.456 140.39 149.451 139.656 C 149.449 139.352 149.346 138.95 149.223 138.761 C 149.065 138.52 149.041 138.655 149.145 139.218 M 185.226 139.675 C 185.138 140.195 185.114 140.668 185.173 140.727 C 185.231 140.786 185.348 140.405 185.432 139.881 C 185.515 139.357 185.539 138.884 185.485 138.829 C 185.43 138.775 185.314 139.155 185.226 139.675 M 280.689 139.485 C 280.67 139.821 280.595 140.283 280.523 140.514 C 280.399 140.909 280.406 140.91 280.652 140.527 C 280.795 140.303 280.87 139.841 280.818 139.498 L 280.723 138.875 L 280.689 139.485 M 104.573 141.504 C 104.754 142.49 104.884 142.676 104.879 141.942 C 104.878 141.638 104.775 141.235 104.651 141.047 C 104.493 140.805 104.47 140.941 104.573 141.504 M 273.928 143.463 C 273.844 143.798 273.819 144.116 273.873 144.17 C 273.927 144.224 274.04 143.994 274.124 143.659 C 274.208 143.324 274.233 143.006 274.179 142.952 C 274.125 142.898 274.012 143.128 273.928 143.463 M 178.508 144.729 C 178.368 145.133 178.292 145.504 178.341 145.553 C 178.39 145.601 178.545 145.311 178.686 144.907 C 178.827 144.503 178.902 144.133 178.853 144.084 C 178.804 144.035 178.649 144.325 178.508 144.729 M 273.483 145.284 C 273.404 145.488 273.349 145.827 273.36 146.037 C 273.371 146.247 273.47 146.115 273.581 145.744 C 273.796 145.022 273.72 144.665 273.483 145.284 M 99.629 146.437 C 99.631 146.678 99.737 147.03 99.865 147.218 C 100.034 147.469 100.056 147.376 99.944 146.875 C 99.756 146.035 99.625 145.852 99.629 146.437 M 181.454 150.418 C 181.198 150.921 181.039 151.332 181.102 151.332 C 181.165 151.332 181.426 150.921 181.683 150.418 C 181.94 149.915 182.098 149.504 182.035 149.504 C 181.972 149.504 181.711 149.915 181.454 150.418 M 154.254 151.175 C 154.254 151.215 154.589 151.549 154.997 151.918 L 155.74 152.59 L 155.069 151.847 C 154.443 151.154 154.254 150.999 154.254 151.175 M 148.54 151.831 C 148.54 151.904 149.003 152.559 149.569 153.288 C 150.134 154.016 150.597 154.535 150.597 154.439 C 150.597 154.344 150.217 153.786 149.752 153.199 C 148.601 151.748 148.54 151.679 148.54 151.831 M 177.672 155.504 L 176.769 156.475 L 177.74 155.572 C 178.274 155.075 178.712 154.638 178.712 154.6 C 178.712 154.427 178.513 154.6 177.672 155.504 M 168.997 155.112 C 168.426 155.387 168.407 155.419 168.883 155.303 C 169.531 155.144 170.259 154.773 169.912 154.778 C 169.786 154.78 169.374 154.93 168.997 155.112 M 166.026 155.675 L 165.112 155.839 L 165.912 155.849 C 166.352 155.854 166.969 155.776 167.283 155.675 C 168.017 155.44 167.339 155.44 166.026 155.675 M 162.997 155.833 C 163.217 155.89 163.577 155.89 163.797 155.833 C 164.017 155.775 163.837 155.728 163.397 155.728 C 162.957 155.728 162.777 155.775 162.997 155.833 M 175.961 156.883 C 175.643 157.161 175.129 157.574 174.818 157.8 C 174.276 158.194 174.283 158.194 175.011 157.8 C 175.427 157.574 175.985 157.158 176.251 156.875 C 176.866 156.221 176.713 156.224 175.961 156.883 M 102.95 157.332 C 103.036 157.615 103.2 157.947 103.315 158.07 C 103.43 158.193 103.408 157.961 103.267 157.556 C 102.977 156.725 102.71 156.537 102.95 157.332 M 156.769 159.085 C 157.209 159.315 157.826 159.569 158.14 159.65 C 158.454 159.731 158.158 159.538 157.482 159.222 C 156.065 158.559 155.586 158.467 156.769 159.085 M 162.659 160.641 C 163.069 160.692 163.686 160.691 164.03 160.639 C 164.373 160.586 164.037 160.545 163.283 160.546 C 162.529 160.547 162.248 160.59 162.659 160.641 M 165.401 160.641 C 165.812 160.692 166.429 160.691 166.773 160.639 C 167.116 160.586 166.78 160.545 166.026 160.546 C 165.272 160.547 164.991 160.59 165.401 160.641 M 105.128 162.418 C 105.128 162.544 105.275 162.904 105.454 163.218 C 105.634 163.532 105.781 163.687 105.781 163.561 C 105.781 163.435 105.634 163.075 105.454 162.761 C 105.275 162.447 105.128 162.292 105.128 162.418 M 109.64 171.332 C 109.895 171.835 110.273 172.452 110.48 172.704 C 110.686 172.955 110.574 172.647 110.231 172.018 C 109.464 170.611 109.001 170.075 109.64 171.332 M 267.484 174.247 C 266.698 175.582 266.646 175.696 267.047 175.218 C 267.511 174.665 267.912 173.961 267.762 173.961 C 267.702 173.961 267.577 174.09 267.484 174.247 M 119.739 176.19 C 120.039 176.598 120.319 176.932 120.363 176.932 C 120.536 176.932 119.969 176.075 119.595 175.771 C 119.348 175.57 119.403 175.73 119.739 176.19 M 112.854 176.361 C 112.977 176.612 113.246 177.024 113.45 177.275 L 113.823 177.732 L 113.598 177.275 C 113.475 177.024 113.206 176.612 113.001 176.361 L 112.629 175.904 L 112.854 176.361 M 258.223 177.332 C 257.565 178.126 257.286 178.532 257.399 178.532 C 257.463 178.532 257.789 178.172 258.125 177.732 C 258.747 176.916 258.823 176.608 258.223 177.332 M 264.882 178.132 C 264.546 178.592 264.491 178.752 264.738 178.551 C 265.112 178.247 265.679 177.39 265.505 177.39 C 265.462 177.39 265.181 177.724 264.882 178.132 M 256.197 179.904 C 255.799 180.407 255.525 180.818 255.587 180.818 C 255.65 180.818 256.028 180.407 256.426 179.904 C 256.824 179.401 257.099 178.99 257.036 178.99 C 256.973 178.99 256.596 179.401 256.197 179.904 M 115.626 180.361 C 116.024 180.864 116.401 181.275 116.464 181.275 C 116.527 181.275 116.253 180.864 115.854 180.361 C 115.456 179.858 115.079 179.447 115.016 179.447 C 114.953 179.447 115.228 179.858 115.626 180.361 M 123.397 180.89 C 123.397 180.929 123.732 181.263 124.14 181.633 L 124.883 182.304 L 124.212 181.561 C 123.586 180.869 123.397 180.713 123.397 180.89 M 254.5 181.939 L 253.83 182.761 L 254.602 182.025 C 255.027 181.621 255.328 181.251 255.271 181.204 C 255.215 181.157 254.868 181.488 254.5 181.939 M 117.884 183.297 C 118.267 183.781 118.761 184.321 118.982 184.497 C 119.204 184.674 118.934 184.278 118.384 183.618 C 117.229 182.234 116.848 181.989 117.884 183.297 M 124.769 182.49 C 124.769 182.529 125.103 182.863 125.512 183.233 L 126.254 183.904 L 125.583 183.161 C 124.957 182.469 124.769 182.313 124.769 182.49 M 251.165 185.561 L 248.769 188.018 L 251.226 185.622 C 253.508 183.397 253.787 183.104 253.622 183.104 C 253.588 183.104 252.482 184.21 251.165 185.561 M 259.254 185.323 C 258.641 186.041 258.259 186.555 258.405 186.465 C 258.724 186.269 260.628 184.018 260.475 184.018 C 260.416 184.018 259.866 184.605 259.254 185.323 M 120.197 185.961 C 120.624 186.401 121.024 186.761 121.087 186.761 C 121.15 186.761 120.852 186.401 120.426 185.961 C 119.999 185.521 119.599 185.161 119.536 185.161 C 119.473 185.161 119.771 185.521 120.197 185.961 M 122.14 188.132 C 122.759 188.761 123.317 189.275 123.38 189.275 C 123.443 189.275 122.988 188.761 122.369 188.132 C 121.75 187.504 121.192 186.99 121.129 186.99 C 121.066 186.99 121.521 187.504 122.14 188.132 M 130.483 188.214 C 130.923 188.694 131.9 189.611 132.654 190.251 C 134.226 191.584 133.617 190.942 131.283 188.805 C 130.403 187.999 130.043 187.733 130.483 188.214 M 246.826 189.618 C 246.271 190.184 245.868 190.647 245.931 190.647 C 245.994 190.647 246.499 190.184 247.054 189.618 C 247.61 189.052 248.012 188.59 247.95 188.59 C 247.887 188.59 247.381 189.052 246.826 189.618 M 123.654 189.675 C 123.67 189.77 124.467 190.564 125.426 191.441 L 127.169 193.036 L 125.46 191.27 C 123.728 189.479 123.604 189.37 123.654 189.675 M 242.246 193.406 L 241.454 194.108 L 242.312 193.493 C 243.069 192.95 243.315 192.704 243.103 192.704 C 243.067 192.704 242.681 193.02 242.246 193.406 M 128.312 194.075 C 128.931 194.704 129.489 195.218 129.552 195.218 C 129.614 195.218 129.159 194.704 128.54 194.075 C 127.921 193.447 127.363 192.932 127.3 192.932 C 127.237 192.932 127.692 193.447 128.312 194.075 M 249.797 194.794 L 248.54 195.955 L 249.739 194.994 C 250.791 194.152 251.347 193.603 251.125 193.625 C 251.086 193.629 250.489 194.155 249.797 194.794 M 138.131 194.583 C 138.513 194.926 138.917 195.209 139.028 195.212 C 139.139 195.215 138.934 194.994 138.571 194.72 C 137.558 193.955 137.362 193.894 138.131 194.583 M 140.083 195.973 C 140.083 196.025 140.674 196.447 141.397 196.911 C 142.12 197.375 142.43 197.516 142.087 197.224 C 141.408 196.647 140.083 195.82 140.083 195.973 M 246.94 197.186 L 246.026 198.004 L 246.997 197.278 C 247.833 196.652 248.135 196.351 247.912 196.364 C 247.88 196.366 247.443 196.736 246.94 197.186 M 133.537 198.366 C 133.717 198.659 135.054 199.648 135.054 199.489 C 135.054 199.433 134.677 199.099 134.215 198.747 C 133.754 198.395 133.448 198.223 133.537 198.366 M 234.54 198.673 C 233.761 199.172 233.509 199.507 234.197 199.129 C 234.722 198.84 235.543 198.205 235.397 198.201 C 235.334 198.199 234.949 198.411 234.54 198.673 M 135.283 199.644 C 135.283 199.707 135.592 199.978 135.969 200.247 C 136.346 200.515 136.654 200.684 136.654 200.621 C 136.654 200.558 136.346 200.287 135.969 200.018 C 135.592 199.75 135.283 199.581 135.283 199.644 M 137.569 201.401 C 138.362 201.939 138.813 202.095 138.254 201.639 C 137.94 201.381 137.58 201.17 137.454 201.17 C 137.329 201.169 137.38 201.273 137.569 201.401 M 156.997 205.123 C 156.997 205.182 157.329 205.346 157.735 205.488 C 158.141 205.629 158.372 205.651 158.249 205.536 C 157.989 205.292 156.997 204.965 156.997 205.123 M 176.997 210.546 C 178.155 210.785 179.091 210.774 178.14 210.532 C 177.763 210.436 177.146 210.358 176.769 210.357 C 176.192 210.357 176.229 210.387 176.997 210.546 M 182.306 211.155 C 182.712 211.205 183.432 211.206 183.906 211.156 C 184.381 211.107 184.049 211.066 183.169 211.065 C 182.289 211.064 181.901 211.104 182.306 211.155 M 196.026 211.155 C 196.434 211.206 197.103 211.206 197.512 211.155 C 197.92 211.104 197.586 211.063 196.769 211.063 C 195.952 211.063 195.617 211.104 196.026 211.155 M 185.629 211.382 C 185.976 211.435 186.491 211.433 186.772 211.379 C 187.053 211.325 186.769 211.282 186.14 211.284 C 185.512 211.285 185.282 211.33 185.629 211.382 M 193.512 211.379 C 193.794 211.434 194.257 211.434 194.54 211.379 C 194.823 211.325 194.592 211.28 194.026 211.28 C 193.46 211.28 193.229 211.325 193.512 211.379 M 166.483 214.418 C 166.734 214.526 167.094 214.615 167.283 214.615 C 167.499 214.615 167.457 214.542 167.169 214.418 C 166.917 214.31 166.557 214.222 166.369 214.222 C 166.153 214.222 166.195 214.294 166.483 214.418 M 168.426 214.865 C 168.614 214.992 168.966 215.098 169.207 215.1 C 169.792 215.105 169.609 214.974 168.769 214.786 C 168.268 214.674 168.175 214.695 168.426 214.865 M 210.026 214.875 C 209.555 215.026 209.535 215.062 209.912 215.078 C 210.163 215.088 210.523 214.997 210.712 214.875 C 211.112 214.616 210.834 214.616 210.026 214.875 M 171.283 215.561 C 171.534 215.669 171.894 215.757 172.083 215.757 C 172.299 215.757 172.257 215.685 171.969 215.561 C 171.717 215.453 171.357 215.365 171.169 215.365 C 170.953 215.365 170.995 215.437 171.283 215.561 M 173.797 216.016 C 174.234 216.206 175.919 216.336 175.721 216.165 C 175.669 216.119 175.112 216.023 174.483 215.95 C 173.748 215.865 173.503 215.889 173.797 216.016 M 204.197 216.018 C 203.575 216.176 203.564 216.194 204.083 216.204 C 204.397 216.21 204.86 216.126 205.112 216.018 C 205.675 215.776 205.149 215.776 204.197 216.018 M 178.2 216.637 C 178.484 216.692 178.896 216.69 179.114 216.632 C 179.333 216.575 179.1 216.53 178.597 216.533 C 178.094 216.535 177.916 216.582 178.2 216.637 M 200.486 216.639 C 200.834 216.692 201.348 216.69 201.629 216.636 C 201.91 216.582 201.626 216.539 200.997 216.541 C 200.369 216.542 200.139 216.587 200.486 216.639 M 179.912 216.861 C 180.132 216.919 180.492 216.919 180.712 216.861 C 180.932 216.804 180.752 216.757 180.312 216.757 C 179.872 216.757 179.692 216.804 179.912 216.861 M 198.543 216.866 C 198.827 216.92 199.239 216.918 199.457 216.861 C 199.676 216.804 199.443 216.759 198.94 216.761 C 198.437 216.764 198.258 216.811 198.543 216.866 M 183.74 217.201 C 185.095 217.405 194.119 217.408 195.258 217.205 C 195.746 217.118 193.124 217.047 189.429 217.047 C 185.734 217.047 183.174 217.116 183.74 217.201" stroke="none" fill="#9d9d9d" fill-rule="evenodd" transform="matrix(1, 0, 0, 1, 57.262875, 103.585007)"></path>
  <path id="path3" d="M 180.026 33.322 C 180.309 33.377 180.772 33.377 181.054 33.322 C 181.337 33.268 181.106 33.223 180.54 33.223 C 179.974 33.223 179.743 33.268 180.026 33.322 M 198.083 33.322 C 198.366 33.377 198.829 33.377 199.112 33.322 C 199.394 33.268 199.163 33.223 198.597 33.223 C 198.032 33.223 197.8 33.268 198.083 33.322 M 205.797 34.293 C 206.236 34.492 207.46 34.622 207.264 34.448 C 207.212 34.402 206.757 34.302 206.254 34.225 C 205.617 34.128 205.479 34.149 205.797 34.293 M 188.606 38.359 C 189.333 38.404 190.465 38.404 191.12 38.358 C 191.775 38.312 191.18 38.275 189.797 38.275 C 188.414 38.276 187.878 38.313 188.606 38.359 M 182.992 38.583 C 183.398 38.634 184.118 38.634 184.592 38.585 C 185.066 38.535 184.734 38.494 183.854 38.493 C 182.974 38.492 182.586 38.533 182.992 38.583 M 194.659 38.584 C 195.069 38.635 195.686 38.634 196.03 38.581 C 196.373 38.529 196.037 38.488 195.283 38.489 C 194.529 38.49 194.248 38.533 194.659 38.584 M 178.083 39.033 C 178.303 39.09 178.663 39.09 178.883 39.033 C 179.103 38.975 178.923 38.928 178.483 38.928 C 178.043 38.928 177.863 38.975 178.083 39.033 M 200.143 39.037 C 200.427 39.092 200.839 39.09 201.057 39.032 C 201.276 38.975 201.043 38.93 200.54 38.933 C 200.037 38.935 199.858 38.982 200.143 39.037 M 132.989 52.149 L 132.197 52.851 L 133.054 52.236 C 133.812 51.693 134.058 51.447 133.846 51.447 C 133.81 51.447 133.424 51.763 132.989 52.149 M 130.126 54.475 L 129.454 55.218 L 130.197 54.547 C 130.606 54.178 130.94 53.843 130.94 53.804 C 130.94 53.627 130.752 53.783 130.126 54.475 M 252.083 57.275 C 252.509 57.715 252.91 58.075 252.973 58.075 C 253.036 58.075 252.738 57.715 252.312 57.275 C 251.885 56.835 251.485 56.475 251.422 56.475 C 251.359 56.475 251.657 56.835 252.083 57.275 M 124.079 60.075 L 121.683 62.532 L 124.14 60.137 C 125.492 58.819 126.597 57.713 126.597 57.679 C 126.597 57.514 126.304 57.793 124.079 60.075 M 131.842 60.304 L 131.054 61.161 L 131.912 60.373 C 132.709 59.64 132.874 59.447 132.699 59.447 C 132.661 59.447 132.275 59.832 131.842 60.304 M 250.48 63.618 C 252.175 65.347 253.59 66.761 253.623 66.761 C 253.787 66.761 253.46 66.421 250.54 63.558 L 247.397 60.475 L 250.48 63.618 M 128.192 63.732 L 126.254 65.732 L 128.254 63.795 C 129.354 62.729 130.254 61.829 130.254 61.795 C 130.254 61.628 129.992 61.875 128.192 63.732 M 258.483 63.904 C 258.909 64.344 259.31 64.704 259.373 64.704 C 259.436 64.704 259.138 64.344 258.712 63.904 C 258.285 63.464 257.885 63.104 257.822 63.104 C 257.759 63.104 258.057 63.464 258.483 63.904 M 124.756 67.39 L 123.969 68.247 L 124.826 67.459 C 125.624 66.726 125.788 66.532 125.614 66.532 C 125.575 66.532 125.19 66.918 124.756 67.39 M 116.965 68.075 C 116.308 68.869 116.029 69.275 116.142 69.275 C 116.205 69.275 116.532 68.915 116.868 68.475 C 117.49 67.659 117.566 67.351 116.965 68.075 M 163.803 95.5 C 164.341 95.548 165.164 95.548 165.632 95.499 C 166.1 95.449 165.66 95.41 164.654 95.411 C 163.649 95.412 163.266 95.452 163.803 95.5 M 159.512 96.018 C 159.041 96.169 159.021 96.205 159.397 96.22 C 159.649 96.231 160.009 96.14 160.197 96.018 C 160.598 95.759 160.32 95.759 159.512 96.018 M 197.103 96.532 C 197.043 96.69 197.021 110.961 197.053 128.247 L 197.112 159.675 L 199.512 159.687 L 201.912 159.698 L 199.569 159.622 L 197.226 159.546 L 197.226 128.012 L 197.226 96.478 L 215.912 96.418 L 234.597 96.358 L 215.904 96.303 C 201.119 96.258 197.189 96.306 197.103 96.532 M 151.512 100.704 C 150.956 101.27 150.554 101.732 150.616 101.732 C 150.679 101.732 151.185 101.27 151.74 100.704 C 152.295 100.138 152.698 99.675 152.635 99.675 C 152.572 99.675 152.067 100.138 151.512 100.704 M 163.792 100.069 C 164.198 100.119 164.918 100.12 165.392 100.071 C 165.866 100.021 165.534 99.98 164.654 99.979 C 163.774 99.978 163.386 100.018 163.792 100.069 M 177.788 100.875 C 178.735 101.884 178.94 102.066 178.94 101.894 C 178.94 101.858 178.452 101.369 177.854 100.809 L 176.769 99.79 L 177.788 100.875 M 210.328 100.761 C 214.832 100.796 222.135 100.796 226.557 100.761 C 230.979 100.726 227.294 100.698 218.369 100.698 C 209.443 100.698 205.825 100.726 210.328 100.761 M 278.401 100.818 C 278.401 101.007 278.489 101.367 278.597 101.618 C 278.721 101.906 278.794 101.949 278.794 101.732 C 278.794 101.544 278.705 101.184 278.597 100.932 C 278.473 100.644 278.401 100.602 278.401 100.818 M 100.11 101.999 C 100.095 102.209 100.024 102.569 99.951 102.799 C 99.827 103.196 99.834 103.197 100.081 102.811 C 100.225 102.587 100.296 102.227 100.239 102.011 C 100.146 101.657 100.133 101.656 100.11 101.999 M 154.817 104.075 L 153.683 105.275 L 154.883 104.141 C 155.998 103.087 156.188 102.875 156.017 102.875 C 155.981 102.875 155.441 103.415 154.817 104.075 M 174.131 103.847 C 174.691 104.444 175.18 104.932 175.216 104.932 C 175.388 104.932 175.206 104.727 174.197 103.78 L 173.112 102.761 L 174.131 103.847 M 175.739 105.79 C 176.039 106.198 176.319 106.532 176.363 106.532 C 176.536 106.532 175.969 105.675 175.595 105.371 C 175.348 105.17 175.403 105.33 175.739 105.79 M 274.287 107.218 C 274.287 107.407 274.375 107.767 274.483 108.018 C 274.607 108.306 274.679 108.349 274.679 108.132 C 274.679 107.944 274.591 107.584 274.483 107.332 C 274.359 107.044 274.287 107.002 274.287 107.218 M 184.687 114.532 C 184.687 114.721 184.775 115.081 184.883 115.332 C 185.007 115.621 185.079 115.663 185.079 115.447 C 185.079 115.258 184.991 114.898 184.883 114.647 C 184.759 114.359 184.687 114.316 184.687 114.532 M 97.86 115.447 C 97.86 116.012 97.904 116.244 97.959 115.961 C 98.013 115.678 98.013 115.215 97.959 114.932 C 97.904 114.65 97.86 114.881 97.86 115.447 M 281.417 117.961 C 281.417 118.904 281.457 119.29 281.507 118.818 C 281.556 118.347 281.556 117.575 281.507 117.104 C 281.457 116.632 281.417 117.018 281.417 117.961 M 103.125 118.761 C 103.127 119.515 103.169 119.796 103.22 119.385 C 103.271 118.975 103.27 118.358 103.218 118.014 C 103.166 117.671 103.124 118.007 103.125 118.761 M 185.398 118.304 C 185.4 118.807 185.447 118.986 185.502 118.701 C 185.556 118.417 185.554 118.005 185.497 117.787 C 185.44 117.568 185.395 117.801 185.398 118.304 M 143.574 120.018 C 143.574 120.584 143.618 120.815 143.673 120.532 C 143.727 120.25 143.727 119.787 143.673 119.504 C 143.618 119.221 143.574 119.452 143.574 120.018 M 180.593 120.247 C 180.593 120.687 180.64 120.867 180.698 120.647 C 180.755 120.427 180.755 120.067 180.698 119.847 C 180.64 119.627 180.593 119.807 180.593 120.247 M 276.18 124.932 C 276.181 127.698 276.214 128.798 276.254 127.377 C 276.294 125.956 276.294 123.693 276.253 122.348 C 276.213 121.004 276.18 122.167 276.18 124.932 M 180.87 128.018 C 180.87 131.852 180.901 133.421 180.94 131.504 C 180.978 129.587 180.978 126.45 180.94 124.532 C 180.901 122.615 180.87 124.184 180.87 128.018 M 143.345 122.304 C 143.345 122.87 143.39 123.101 143.444 122.818 C 143.499 122.535 143.499 122.072 143.444 121.79 C 143.39 121.507 143.345 121.738 143.345 122.304 M 281.661 124.932 C 281.662 126.944 281.696 127.736 281.739 126.693 C 281.781 125.65 281.781 124.004 281.738 123.036 C 281.696 122.068 281.661 122.921 281.661 124.932 M 102.918 125.161 C 102.919 127.172 102.954 127.965 102.996 126.922 C 103.039 125.878 103.038 124.233 102.996 123.264 C 102.953 122.296 102.918 123.15 102.918 125.161 M 148.412 128.018 C 148.412 131.475 148.444 132.89 148.482 131.161 C 148.521 129.432 148.521 126.604 148.482 124.875 C 148.444 123.147 148.412 124.561 148.412 128.018 M 185.894 128.018 C 185.894 130.721 185.927 131.827 185.968 130.475 C 186.008 129.124 186.008 126.912 185.968 125.561 C 185.927 124.21 185.894 125.315 185.894 128.018 M 114.942 125.228 C 114.454 125.623 114.451 125.649 114.86 125.96 C 115.226 126.238 115.244 126.238 114.991 125.955 C 114.751 125.686 114.791 125.559 115.22 125.229 C 115.506 125.008 115.674 124.826 115.594 124.823 C 115.514 124.82 115.22 125.002 114.942 125.228 M 130.429 125.313 C 130.632 125.516 130.602 125.655 130.304 125.897 C 129.956 126.179 129.972 126.185 130.441 125.958 C 130.923 125.723 130.815 125.047 130.295 125.047 C 130.222 125.047 130.283 125.167 130.429 125.313 M 263.909 125.307 C 264.104 125.502 264.043 125.678 263.669 126.006 C 263.169 126.445 263.169 126.445 263.801 126.06 C 264.372 125.713 264.358 125.047 263.781 125.047 C 263.708 125.047 263.766 125.164 263.909 125.307 M 230.099 127.673 L 230.171 129.843 L 216.327 129.905 L 202.483 129.966 L 216.369 129.964 L 230.254 129.961 L 230.32 127.732 C 230.356 126.507 230.304 125.504 230.206 125.503 C 230.107 125.503 230.059 126.479 230.099 127.673 M 128.254 127.13 C 127.475 127.629 127.223 127.964 127.912 127.586 C 128.436 127.298 129.258 126.662 129.112 126.658 C 129.049 126.656 128.663 126.868 128.254 127.13 M 250.369 127.222 C 250.62 127.427 251.032 127.695 251.283 127.819 L 251.74 128.043 L 251.283 127.671 C 251.032 127.466 250.62 127.198 250.369 127.074 L 249.912 126.85 L 250.369 127.222 M 259.683 128.502 C 258.904 129.001 258.652 129.336 259.34 128.957 C 259.865 128.669 260.686 128.034 260.54 128.029 C 260.477 128.027 260.092 128.24 259.683 128.502 M 124.369 129.644 C 123.59 130.143 123.338 130.478 124.026 130.1 C 124.55 129.812 125.372 129.176 125.226 129.172 C 125.163 129.17 124.777 129.383 124.369 129.644 M 257.169 130.102 C 256.39 130.601 256.138 130.936 256.826 130.557 C 257.35 130.269 258.172 129.634 258.026 129.629 C 257.963 129.627 257.577 129.84 257.169 130.102 M 103.128 131.218 C 103.128 132.035 103.169 132.37 103.22 131.961 C 103.27 131.552 103.27 130.884 103.22 130.475 C 103.169 130.067 103.128 130.401 103.128 131.218 M 275.907 130.99 C 275.907 131.43 275.954 131.61 276.012 131.39 C 276.069 131.17 276.069 130.81 276.012 130.59 C 275.954 130.37 275.907 130.55 275.907 130.99 M 281.415 131.79 C 281.416 132.67 281.457 133.002 281.507 132.527 C 281.556 132.053 281.556 131.333 281.505 130.927 C 281.455 130.522 281.414 130.91 281.415 131.79 M 143.345 133.732 C 143.345 134.298 143.39 134.53 143.444 134.247 C 143.499 133.964 143.499 133.501 143.444 133.218 C 143.39 132.935 143.345 133.167 143.345 133.732 M 97.86 134.418 C 97.86 134.984 97.904 135.215 97.959 134.932 C 98.013 134.65 98.013 134.187 97.959 133.904 C 97.904 133.621 97.86 133.852 97.86 134.418 M 275.683 134.304 C 275.686 134.807 275.733 134.986 275.788 134.701 C 275.842 134.417 275.84 134.005 275.783 133.787 C 275.726 133.568 275.681 133.801 275.683 134.304 M 143.574 136.018 C 143.574 136.584 143.618 136.815 143.673 136.532 C 143.727 136.25 143.727 135.787 143.673 135.504 C 143.618 135.221 143.574 135.452 143.574 136.018 M 180.593 135.79 C 180.593 136.23 180.64 136.41 180.698 136.19 C 180.755 135.97 180.755 135.61 180.698 135.39 C 180.64 135.17 180.593 135.35 180.593 135.79 M 185.398 137.732 C 185.4 138.235 185.447 138.414 185.502 138.13 C 185.556 137.845 185.554 137.434 185.497 137.215 C 185.44 136.997 185.395 137.23 185.398 137.732 M 274.968 139.104 C 274.949 139.355 274.881 139.818 274.816 140.132 L 274.699 140.704 L 274.944 140.143 C 275.078 139.835 275.147 139.372 275.095 139.115 C 275.005 138.659 275.002 138.659 274.968 139.104 M 99.429 144.704 C 99.429 144.892 99.518 145.252 99.626 145.504 C 99.75 145.792 99.822 145.834 99.822 145.618 C 99.822 145.43 99.734 145.07 99.626 144.818 C 99.502 144.53 99.429 144.488 99.429 144.704 M 273.824 144.742 C 273.809 144.952 273.738 145.312 273.666 145.542 C 273.541 145.939 273.548 145.94 273.795 145.554 C 273.939 145.33 274.01 144.97 273.953 144.754 C 273.861 144.4 273.848 144.399 273.824 144.742 M 174.369 151.904 C 173.814 152.47 173.411 152.932 173.474 152.932 C 173.536 152.932 174.042 152.47 174.597 151.904 C 175.152 151.338 175.555 150.875 175.492 150.875 C 175.43 150.875 174.924 151.338 174.369 151.904 M 180.083 152.247 C 179.814 152.624 179.646 152.932 179.709 152.932 C 179.772 152.932 180.043 152.624 180.312 152.247 C 180.58 151.87 180.748 151.561 180.686 151.561 C 180.623 151.561 180.352 151.87 180.083 152.247 M 177.672 155.275 L 176.769 156.247 L 177.74 155.343 C 178.644 154.503 178.817 154.304 178.644 154.304 C 178.606 154.304 178.169 154.741 177.672 155.275 M 164.369 156.061 C 164.589 156.119 164.949 156.119 165.169 156.061 C 165.389 156.004 165.209 155.957 164.769 155.957 C 164.329 155.957 164.149 156.004 164.369 156.061 M 275.614 157.65 C 275.488 157.982 275.427 158.295 275.479 158.347 C 275.531 158.399 275.682 158.128 275.816 157.744 C 276.113 156.891 275.934 156.808 275.614 157.65 M 259.291 176.152 C 259.078 176.477 258.943 176.783 258.991 176.831 C 259.039 176.879 259.259 176.613 259.479 176.24 C 259.972 175.406 259.825 175.337 259.291 176.152 M 264.61 178.247 C 264.208 178.716 263.906 179.218 264.027 179.218 C 264.073 179.218 264.339 178.91 264.618 178.532 C 265.169 177.787 265.164 177.602 264.61 178.247 M 124.54 182.481 C 124.54 182.516 125.337 183.313 126.312 184.252 L 128.083 185.961 L 126.374 184.19 C 124.788 182.544 124.54 182.314 124.54 182.481 M 120.54 186.075 C 121.031 186.578 121.484 186.99 121.547 186.99 C 121.61 186.99 121.26 186.578 120.769 186.075 C 120.278 185.572 119.825 185.161 119.762 185.161 C 119.699 185.161 120.049 185.572 120.54 186.075 M 258.471 186.018 L 257.683 186.875 L 258.54 186.088 C 259.338 185.354 259.502 185.161 259.328 185.161 C 259.29 185.161 258.904 185.547 258.471 186.018 M 128.197 186.138 C 128.197 186.173 128.994 186.97 129.969 187.91 L 131.74 189.618 L 130.032 187.847 C 128.445 186.201 128.197 185.971 128.197 186.138 M 254.254 190.418 C 252.75 191.927 251.57 193.161 251.633 193.161 C 251.696 193.161 252.978 191.927 254.483 190.418 C 255.988 188.91 257.167 187.675 257.104 187.675 C 257.042 187.675 255.759 188.91 254.254 190.418 M 246.814 189.904 L 246.026 190.761 L 246.883 189.973 C 247.681 189.24 247.845 189.047 247.671 189.047 C 247.632 189.047 247.247 189.432 246.814 189.904 M 125.912 191.675 C 126.338 192.115 126.738 192.475 126.801 192.475 C 126.864 192.475 126.567 192.115 126.14 191.675 C 125.714 191.235 125.313 190.875 125.25 190.875 C 125.188 190.875 125.485 191.235 125.912 191.675 M 128.312 193.847 C 128.803 194.35 129.256 194.761 129.319 194.761 C 129.381 194.761 129.031 194.35 128.54 193.847 C 128.049 193.344 127.596 192.932 127.533 192.932 C 127.47 192.932 127.821 193.344 128.312 193.847 M 240.417 195.006 L 239.626 195.708 L 240.54 195.072 C 241.043 194.723 241.497 194.407 241.55 194.37 C 241.602 194.334 241.547 194.304 241.427 194.304 C 241.307 194.304 240.852 194.62 240.417 195.006 M 241.397 200.959 C 240.618 201.458 240.366 201.793 241.054 201.414 C 241.579 201.126 242.4 200.491 242.254 200.486 C 242.192 200.485 241.806 200.697 241.397 200.959 M 166.94 208.704 C 167.192 208.812 167.552 208.9 167.74 208.9 C 167.956 208.9 167.914 208.828 167.626 208.704 C 167.374 208.596 167.014 208.507 166.826 208.507 C 166.61 208.507 166.652 208.58 166.94 208.704 M 171.969 209.847 C 172.22 209.955 172.632 210.04 172.883 210.036 C 173.25 210.031 173.228 209.994 172.769 209.847 C 171.987 209.596 171.386 209.596 171.969 209.847 M 180.14 211.147 C 180.36 211.205 180.72 211.205 180.94 211.147 C 181.16 211.09 180.98 211.043 180.54 211.043 C 180.1 211.043 179.92 211.09 180.14 211.147 M 183.457 211.38 C 183.741 211.434 184.153 211.432 184.371 211.375 C 184.59 211.318 184.357 211.273 183.854 211.276 C 183.352 211.278 183.173 211.325 183.457 211.38 M 187.442 211.617 C 188.786 211.657 191.049 211.658 192.47 211.617 C 193.892 211.577 192.792 211.544 190.026 211.544 C 187.26 211.544 186.097 211.577 187.442 211.617 M 213.112 213.961 C 212.823 214.085 212.781 214.157 212.997 214.157 C 213.186 214.157 213.546 214.069 213.797 213.961 C 214.085 213.837 214.128 213.765 213.912 213.765 C 213.723 213.765 213.363 213.853 213.112 213.961 M 172.826 215.719 C 173.046 215.776 173.406 215.776 173.626 215.719 C 173.846 215.661 173.666 215.614 173.226 215.614 C 172.786 215.614 172.606 215.661 172.826 215.719 M 201.912 216.247 C 201.296 216.403 201.284 216.422 201.797 216.425 C 202.112 216.428 202.626 216.347 202.94 216.247 C 203.708 216.001 202.878 216.001 201.912 216.247 M 179.912 216.633 C 180.132 216.69 180.492 216.69 180.712 216.633 C 180.932 216.575 180.752 216.528 180.312 216.528 C 179.872 216.528 179.692 216.575 179.912 216.633 M 181.854 216.865 C 182.137 216.92 182.6 216.92 182.883 216.865 C 183.166 216.811 182.934 216.766 182.369 216.766 C 181.803 216.766 181.572 216.811 181.854 216.865 M 195.801 216.87 C 196.212 216.92 196.829 216.919 197.173 216.867 C 197.516 216.815 197.18 216.773 196.426 216.775 C 195.672 216.776 195.391 216.819 195.801 216.87 M 185.286 217.094 C 185.57 217.149 185.981 217.147 186.2 217.089 C 186.418 217.032 186.186 216.988 185.683 216.99 C 185.18 216.993 185.001 217.039 185.286 217.094 M 192.826 217.094 C 193.109 217.148 193.572 217.148 193.854 217.094 C 194.137 217.039 193.906 216.995 193.34 216.995 C 192.774 216.995 192.543 217.039 192.826 217.094" stroke="none" fill-rule="evenodd" style="fill: rgb(123, 94, 68);" transform="matrix(1, 0, 0, 1, 57.262875, 103.585007)"></path>
  <path id="path4" d="M 185.743 38.58 C 186.027 38.634 186.439 38.632 186.657 38.575 C 186.876 38.518 186.643 38.473 186.14 38.476 C 185.637 38.478 185.458 38.525 185.743 38.58 M 234.565 98.532 C 234.565 99.727 234.604 100.215 234.651 99.618 C 234.698 99.021 234.698 98.044 234.651 97.447 C 234.604 96.85 234.565 97.338 234.565 98.532 M 185.85 122.532 C 185.85 122.972 185.897 123.152 185.955 122.932 C 186.012 122.712 186.012 122.352 185.955 122.132 C 185.897 121.912 185.85 122.092 185.85 122.532 M 185.85 133.504 C 185.85 133.944 185.897 134.124 185.955 133.904 C 186.012 133.684 186.012 133.324 185.955 133.104 C 185.897 132.884 185.85 133.064 185.85 133.504" stroke="none" fill="#7c7c7c" fill-rule="evenodd" transform="matrix(1, 0, 0, 1, 57.262875, 103.585007)"></path>
</svg>