<!doctype html>
<svg viewBox="155.29 142.577 184.549 184.55" width="184.549" height="184.55">
  <g id="svgg" transform="matrix(1, 0, 0, 1, 47.529793, 120.531624)">
    <path id="path0" d="M192.114 22.409 C 191.486 22.510,189.891 22.709,188.571 22.851 C 187.251 22.992,185.657 23.196,185.029 23.303 C 181.642 23.880,180.814 24.030,179.771 24.255 C 176.678 24.925,168.590 27.396,166.708 28.246 C 166.312 28.425,165.930 28.571,165.858 28.571 C 165.613 28.571,161.878 30.279,158.629 31.877 C 152.922 34.682,145.815 39.351,140.348 43.886 C 138.592 45.342,130.773 53.146,129.698 54.514 C 129.204 55.143,128.739 55.709,128.665 55.771 C 127.835 56.471,120.457 67.032,120.457 67.520 C 120.457 67.559,119.961 68.455,119.355 69.510 C 118.749 70.565,117.559 72.869,116.711 74.629 C 115.119 77.931,115.066 78.048,114.400 79.771 C 114.181 80.337,113.920 81.006,113.820 81.257 C 113.448 82.185,112.477 84.951,112.095 86.171 C 111.878 86.863,111.625 87.634,111.533 87.886 C 110.566 90.535,108.872 99.005,108.310 104.000 C 107.924 107.432,107.791 119.033,108.105 121.943 C 108.704 127.502,109.309 131.361,110.146 134.971 C 110.824 137.895,112.132 142.488,112.685 143.886 C 112.785 144.137,113.041 144.857,113.255 145.486 C 113.468 146.114,113.788 146.953,113.964 147.349 C 114.141 147.745,114.286 148.130,114.286 148.205 C 114.286 148.280,114.646 149.120,115.086 150.073 C 115.526 151.025,115.886 151.844,115.886 151.893 C 115.886 152.140,118.398 157.164,119.356 158.833 C 119.962 159.888,120.457 160.785,120.457 160.825 C 120.457 161.620,128.029 172.056,130.639 174.857 C 131.166 175.423,131.926 176.267,132.327 176.733 C 133.464 178.050,135.241 179.804,137.838 182.171 C 139.148 183.366,140.428 184.533,140.681 184.765 C 142.392 186.329,149.686 191.566,151.902 192.821 C 152.145 192.958,152.960 193.412,153.714 193.830 C 154.469 194.247,155.446 194.793,155.886 195.043 C 159.936 197.340,165.488 199.718,172.000 201.944 C 174.862 202.923,181.727 204.565,184.914 205.034 C 185.857 205.172,187.194 205.376,187.886 205.485 C 188.577 205.595,190.120 205.755,191.314 205.841 C 192.509 205.926,193.691 206.035,193.943 206.082 C 196.683 206.601,208.928 206.095,213.600 205.271 C 219.228 204.278,221.716 203.714,226.743 202.294 C 228.353 201.839,229.015 201.612,233.200 200.079 C 244.197 196.049,256.806 187.676,265.714 178.487 C 269.189 174.902,271.238 172.483,274.111 168.572 C 274.203 168.446,274.525 168.034,274.825 167.657 C 275.631 166.645,278.673 161.924,279.539 160.343 C 279.951 159.589,280.367 158.869,280.462 158.743 C 280.768 158.337,283.311 153.296,283.864 152.000 C 284.809 149.781,285.289 148.695,285.504 148.289 C 285.620 148.071,285.714 147.777,285.714 147.638 C 285.714 147.498,285.859 147.059,286.035 146.663 C 286.700 145.170,288.122 140.880,288.736 138.514 C 289.021 137.415,289.580 135.160,289.841 134.057 C 290.308 132.084,290.934 128.339,291.427 124.571 C 292.063 119.709,291.916 106.254,291.177 101.714 C 290.602 98.188,290.259 96.291,290.059 95.543 C 289.942 95.103,289.541 93.509,289.168 92.000 C 287.975 87.177,285.986 80.939,285.454 80.354 C 285.346 80.235,285.257 80.006,285.257 79.846 C 285.257 79.686,284.988 78.961,284.658 78.235 C 284.329 77.509,283.902 76.554,283.710 76.114 C 278.749 64.739,268.742 51.423,259.662 44.114 C 259.115 43.674,258.554 43.211,258.414 43.086 C 256.044 40.950,249.036 36.094,245.371 34.048 C 243.519 33.014,237.904 30.171,237.714 30.171 C 237.606 30.171,236.851 29.863,236.036 29.486 C 235.221 29.109,234.493 28.800,234.418 28.800 C 234.342 28.800,233.845 28.604,233.312 28.365 C 231.328 27.475,227.170 26.057,226.544 26.057 C 226.318 26.057,226.061 25.985,225.974 25.897 C 225.801 25.725,222.403 24.764,220.914 24.467 C 215.685 23.424,214.229 23.180,211.314 22.863 C 210.057 22.726,208.340 22.514,207.499 22.392 C 205.692 22.131,193.765 22.144,192.114 22.409 M204.571 27.663 C 210.037 28.029,214.357 28.565,217.371 29.250 C 223.474 30.639,226.791 31.652,232.084 33.745 C 239.200 36.559,248.120 41.745,253.721 46.325 C 259.068 50.697,265.288 57.044,268.468 61.371 C 268.838 61.874,269.199 62.337,269.272 62.400 C 271.058 63.952,280.000 79.667,280.000 81.255 C 280.000 81.322,280.193 81.812,280.429 82.345 C 280.665 82.878,281.033 83.829,281.247 84.457 C 281.461 85.086,281.725 85.806,281.834 86.057 C 281.943 86.309,282.205 87.131,282.416 87.886 C 282.627 88.640,282.881 89.463,282.980 89.714 C 283.150 90.145,283.436 91.190,283.885 93.029 C 283.992 93.469,284.245 94.446,284.446 95.200 C 285.719 99.975,286.498 107.138,286.507 114.171 C 286.525 126.722,284.314 137.365,279.242 149.143 C 277.329 153.588,271.782 163.261,270.396 164.571 C 270.330 164.634,270.091 164.975,269.865 165.329 C 269.640 165.683,269.315 166.146,269.144 166.358 C 268.973 166.570,267.879 167.926,266.712 169.371 C 263.402 173.473,256.706 179.968,252.914 182.754 C 252.411 183.124,251.949 183.479,251.886 183.543 C 251.439 184.000,248.771 185.832,246.171 187.468 C 242.318 189.891,239.706 191.329,236.686 192.689 C 236.057 192.972,234.897 193.498,234.109 193.859 C 233.320 194.219,232.600 194.515,232.509 194.516 C 232.417 194.516,232.086 194.648,231.771 194.809 C 231.457 194.969,229.811 195.550,228.114 196.100 C 226.417 196.650,224.823 197.175,224.571 197.267 C 224.320 197.360,223.446 197.608,222.629 197.818 C 221.811 198.029,220.834 198.287,220.457 198.392 C 219.825 198.568,217.857 199.007,215.314 199.540 C 214.131 199.788,209.988 200.316,206.171 200.706 C 201.244 201.209,189.648 200.584,184.686 199.548 C 184.120 199.430,182.834 199.170,181.829 198.969 C 180.823 198.769,179.640 198.514,179.200 198.403 C 178.760 198.292,177.731 198.035,176.914 197.832 C 176.097 197.629,175.223 197.379,174.971 197.276 C 174.720 197.174,173.331 196.707,171.886 196.239 C 170.440 195.771,168.949 195.255,168.571 195.091 C 168.194 194.928,166.806 194.353,165.486 193.814 C 163.293 192.918,161.690 192.135,157.486 189.904 C 155.642 188.926,152.826 187.162,152.724 186.922 C 152.682 186.823,152.564 186.743,152.461 186.743 C 152.164 186.743,147.814 183.695,146.119 182.299 C 145.897 182.116,144.943 181.330,144.000 180.554 C 134.081 172.384,124.609 159.419,119.797 147.429 C 119.267 146.109,118.740 144.823,118.625 144.571 C 118.349 143.967,116.951 139.675,116.466 137.943 C 115.040 132.848,114.464 129.820,113.554 122.629 C 113.129 119.268,113.201 108.763,113.675 105.029 C 114.174 101.102,114.468 99.079,114.721 97.829 C 114.836 97.263,115.056 96.183,115.209 95.429 C 116.032 91.382,117.310 87.118,119.010 82.743 C 119.606 81.208,119.646 81.112,120.464 79.200 C 122.602 74.207,129.439 62.773,131.194 61.257 C 131.267 61.194,131.683 60.680,132.119 60.114 C 133.698 58.067,135.877 55.650,138.621 52.907 C 140.697 50.831,141.435 50.142,144.010 47.877 C 148.093 44.285,156.012 39.110,161.403 36.510 C 164.395 35.067,167.106 33.829,167.271 33.829 C 167.358 33.829,168.664 33.352,170.172 32.769 C 171.680 32.186,173.223 31.628,173.600 31.528 C 173.977 31.428,174.851 31.176,175.543 30.969 C 176.836 30.581,177.259 30.475,180.000 29.845 C 181.594 29.479,185.267 28.760,187.657 28.345 C 189.196 28.078,193.790 27.662,196.114 27.580 C 200.093 27.439,201.427 27.452,204.571 27.663 M171.771 85.021 C 169.523 85.394,165.578 86.862,165.029 87.529 C 164.966 87.605,164.643 87.840,164.311 88.051 C 161.756 89.675,158.158 94.367,156.814 97.829 C 156.643 98.269,156.380 98.937,156.229 99.314 C 152.815 107.863,152.676 124.689,155.940 134.286 C 162.346 153.118,183.746 155.403,192.331 138.171 C 193.574 135.678,193.882 134.875,194.616 132.229 C 194.825 131.474,195.087 130.549,195.198 130.171 C 196.355 126.237,196.328 109.124,195.158 104.260 C 192.709 94.079,187.969 88.009,180.610 85.626 C 178.527 84.952,174.040 84.645,171.771 85.021 M207.543 117.257 L 207.543 148.800 210.055 148.800 L 212.568 148.800 212.627 134.000 L 212.686 119.200 226.580 119.141 L 240.474 119.082 240.409 116.970 L 240.343 114.857 226.457 114.798 L 212.571 114.739 212.571 102.284 L 212.571 89.829 228.686 89.829 L 244.800 89.829 244.800 87.771 L 244.800 85.714 226.171 85.714 L 207.543 85.714 207.543 117.257 M178.857 89.716 C 183.038 90.995,186.145 93.916,188.317 98.608 C 188.708 99.454,189.029 100.273,189.029 100.427 C 189.029 100.582,189.114 100.806,189.219 100.926 C 189.386 101.117,189.684 102.107,190.417 104.914 C 191.650 109.636,191.628 124.523,190.380 129.829 C 190.020 131.360,189.476 133.310,189.264 133.829 C 188.440 135.844,188.126 136.527,187.427 137.828 C 186.933 138.746,185.928 140.011,184.792 141.142 C 183.078 142.848,182.453 143.262,179.380 144.722 C 175.798 146.423,168.066 144.518,165.133 141.212 C 160.315 135.779,158.630 129.568,158.634 117.257 C 158.640 99.669,163.053 91.093,173.029 89.278 C 174.071 89.089,177.697 89.361,178.857 89.716 M131.193 110.800 C 126.843 113.557,125.038 114.802,125.144 114.974 C 125.208 115.076,126.262 115.791,127.487 116.563 C 128.712 117.334,130.424 118.418,131.291 118.972 C 133.137 120.150,132.441 120.357,137.460 117.143 C 141.020 114.863,141.028 114.856,140.515 114.457 C 139.623 113.764,139.561 113.724,138.686 113.262 C 138.214 113.014,137.829 112.731,137.829 112.634 C 137.829 112.537,137.710 112.457,137.564 112.457 C 137.419 112.457,136.963 112.200,136.551 111.886 C 136.139 111.571,135.741 111.314,135.667 111.314 C 135.593 111.314,135.008 110.954,134.369 110.514 C 132.941 109.532,133.237 109.505,131.193 110.800 M265.222 110.463 C 264.613 110.859,263.942 111.290,263.732 111.420 C 259.331 114.143,258.456 114.829,258.925 115.186 C 259.400 115.548,264.617 118.873,265.840 119.594 L 266.509 119.988 269.997 117.786 C 274.660 114.843,274.602 114.890,274.108 114.458 C 273.545 113.967,267.410 110.154,266.822 109.930 C 266.451 109.789,266.059 109.919,265.222 110.463 " stroke="none" fill-rule="evenodd" style="fill: rgb(255, 255, 255);"></path>
    <path id="path2" d="M195.928 22.114 C 198.026 22.152,201.523 22.152,203.700 22.114 C 205.876 22.076,204.160 22.046,199.886 22.045 C 195.611 22.045,193.831 22.076,195.928 22.114 M188.400 22.558 C 188.620 22.615,188.980 22.615,189.200 22.558 C 189.420 22.500,189.240 22.453,188.800 22.453 C 188.360 22.453,188.180 22.500,188.400 22.558 M210.571 22.558 C 210.791 22.615,211.151 22.615,211.371 22.558 C 211.591 22.500,211.411 22.453,210.971 22.453 C 210.531 22.453,210.351 22.500,210.571 22.558 M180.686 23.771 C 180.103 24.022,180.704 24.022,181.486 23.771 C 181.945 23.624,181.967 23.587,181.600 23.582 C 181.349 23.578,180.937 23.663,180.686 23.771 M218.286 23.771 C 219.067 24.022,219.668 24.022,219.086 23.771 C 218.834 23.663,218.423 23.578,218.171 23.582 C 217.804 23.587,217.826 23.624,218.286 23.771 M198.686 27.827 C 199.534 27.871,200.923 27.871,201.771 27.827 C 202.620 27.783,201.926 27.747,200.229 27.747 C 198.531 27.747,197.837 27.783,198.686 27.827 M190.971 28.114 C 189.867 28.266,189.860 28.272,190.743 28.294 C 191.246 28.306,192.069 28.231,192.571 28.127 C 193.738 27.886,192.697 27.878,190.971 28.114 M206.743 28.111 C 207.436 28.291,209.757 28.413,209.581 28.260 C 209.529 28.215,208.714 28.123,207.771 28.055 C 206.767 27.984,206.341 28.007,206.743 28.111 M212.914 28.800 C 213.291 28.896,213.857 28.974,214.171 28.974 C 214.681 28.974,214.669 28.956,214.057 28.800 C 213.680 28.704,213.114 28.626,212.800 28.626 C 212.290 28.626,212.303 28.644,212.914 28.800 M183.429 29.257 C 182.796 29.418,182.787 29.433,183.314 29.455 C 183.629 29.468,184.040 29.379,184.229 29.257 C 184.618 29.006,184.417 29.006,183.429 29.257 M215.771 29.254 C 215.960 29.378,216.363 29.480,216.667 29.482 C 217.400 29.487,217.214 29.357,216.229 29.176 C 215.666 29.073,215.530 29.096,215.771 29.254 M180.229 29.943 C 179.646 30.193,180.247 30.193,181.029 29.943 C 181.488 29.796,181.510 29.759,181.143 29.753 C 180.891 29.749,180.480 29.835,180.229 29.943 M218.533 29.796 C 218.586 29.842,218.937 29.948,219.314 30.032 C 219.815 30.144,219.908 30.123,219.657 29.953 C 219.348 29.744,218.304 29.599,218.533 29.796 M178.286 30.400 C 177.815 30.551,177.795 30.586,178.171 30.602 C 178.423 30.613,178.783 30.522,178.971 30.400 C 179.372 30.141,179.094 30.141,178.286 30.400 M175.657 31.086 C 175.369 31.210,175.327 31.282,175.543 31.282 C 175.731 31.282,176.091 31.194,176.343 31.086 C 176.631 30.962,176.673 30.889,176.457 30.889 C 176.269 30.889,175.909 30.978,175.657 31.086 M241.371 31.648 C 241.371 31.711,241.783 31.972,242.286 32.229 C 242.789 32.485,243.200 32.644,243.200 32.581 C 243.200 32.518,242.789 32.257,242.286 32.000 C 241.783 31.743,241.371 31.585,241.371 31.648 M245.371 40.804 C 245.623 41.009,246.034 41.277,246.286 41.401 L 246.743 41.625 246.286 41.253 C 246.034 41.048,245.623 40.780,245.371 40.656 L 244.914 40.432 245.371 40.804 M250.495 44.197 C 250.800 44.572,251.657 45.139,251.657 44.965 C 251.657 44.922,251.323 44.641,250.914 44.342 C 250.455 44.006,250.295 43.950,250.495 44.197 M138.731 44.971 L 137.943 45.829 138.800 45.041 C 139.598 44.308,139.762 44.114,139.588 44.114 C 139.549 44.114,139.164 44.500,138.731 44.971 M147.086 45.629 C 146.675 45.978,146.591 46.117,146.876 45.976 C 147.295 45.768,148.081 45.015,147.857 45.037 C 147.810 45.041,147.463 45.308,147.086 45.629 M264.571 48.457 C 266.328 50.217,267.817 51.657,267.880 51.657 C 267.942 51.657,266.557 50.217,264.800 48.457 C 263.043 46.697,261.555 45.257,261.492 45.257 C 261.429 45.257,262.815 46.697,264.571 48.457 M134.510 48.971 L 132.000 51.543 134.571 49.032 C 136.960 46.701,137.247 46.400,137.082 46.400 C 137.048 46.400,135.891 47.557,134.510 48.971 M260.571 52.914 C 262.391 54.737,263.931 56.229,263.994 56.229 C 264.057 56.229,262.620 54.737,260.800 52.914 C 258.980 51.091,257.440 49.600,257.377 49.600 C 257.314 49.600,258.752 51.091,260.571 52.914 M138.624 53.086 L 136.343 55.429 138.686 53.147 C 140.862 51.028,141.132 50.743,140.967 50.743 C 140.933 50.743,139.879 51.797,138.624 53.086 M130.502 53.200 L 129.714 54.057 130.571 53.269 C 131.369 52.536,131.534 52.343,131.359 52.343 C 131.321 52.343,130.935 52.729,130.502 53.200 M270.855 55.311 C 271.252 55.812,271.696 56.296,271.842 56.386 C 271.987 56.476,271.710 56.066,271.226 55.475 C 270.741 54.884,270.297 54.400,270.239 54.400 C 270.181 54.400,270.458 54.810,270.855 55.311 M266.512 59.425 C 266.909 59.927,267.353 60.410,267.499 60.500 C 267.645 60.591,267.368 60.181,266.883 59.589 C 266.398 58.998,265.954 58.514,265.896 58.514 C 265.838 58.514,266.115 58.924,266.512 59.425 M123.059 62.686 C 122.272 64.021,122.220 64.135,122.621 63.657 C 123.085 63.104,123.486 62.400,123.336 62.400 C 123.276 62.400,123.151 62.529,123.059 62.686 M280.914 70.171 C 281.171 70.674,281.432 71.086,281.495 71.086 C 281.558 71.086,281.399 70.674,281.143 70.171 C 280.886 69.669,280.625 69.257,280.562 69.257 C 280.499 69.257,280.658 69.669,280.914 70.171 M117.703 71.794 C 117.440 72.309,117.264 72.769,117.312 72.817 C 117.360 72.865,117.623 72.444,117.897 71.881 C 118.520 70.599,118.351 70.523,117.703 71.794 M122.057 76.114 C 121.801 76.617,121.642 77.029,121.705 77.029 C 121.768 77.029,122.029 76.617,122.286 76.114 C 122.542 75.611,122.701 75.200,122.638 75.200 C 122.575 75.200,122.314 75.611,122.057 76.114 M284.359 77.143 C 284.359 77.269,284.506 77.629,284.686 77.943 C 284.865 78.257,285.012 78.411,285.012 78.286 C 285.012 78.160,284.865 77.800,284.686 77.486 C 284.506 77.171,284.359 77.017,284.359 77.143 M114.502 78.546 C 114.376 78.878,114.315 79.192,114.367 79.243 C 114.419 79.295,114.571 79.024,114.705 78.640 C 115.002 77.788,114.822 77.704,114.502 78.546 M170.057 85.032 C 169.816 85.190,169.951 85.213,170.514 85.110 C 171.500 84.929,171.686 84.799,170.952 84.804 C 170.649 84.805,170.246 84.908,170.057 85.032 M213.943 85.425 C 231.551 85.582,244.975 85.584,244.879 85.429 C 244.821 85.334,236.319 85.281,225.987 85.311 C 215.654 85.340,210.234 85.392,213.943 85.425 M207.197 117.257 C 207.197 134.669,207.224 141.791,207.257 133.086 C 207.290 124.380,207.290 110.134,207.257 101.429 C 207.224 92.723,207.197 99.846,207.197 117.257 M111.109 88.137 C 110.977 88.613,110.911 89.044,110.961 89.094 C 111.011 89.145,111.160 88.796,111.291 88.320 C 111.423 87.844,111.489 87.413,111.439 87.363 C 111.389 87.313,111.240 87.661,111.109 88.137 M161.706 89.886 L 160.571 91.086 161.771 89.951 C 162.886 88.897,163.076 88.686,162.906 88.686 C 162.870 88.686,162.330 89.226,161.706 89.886 M174.120 89.539 C 174.658 89.587,175.481 89.587,175.949 89.538 C 176.417 89.488,175.977 89.449,174.971 89.450 C 173.966 89.451,173.583 89.491,174.120 89.539 M228.800 90.055 L 212.686 90.171 212.686 102.400 L 212.686 114.629 226.678 114.687 L 240.670 114.746 240.747 116.973 L 240.824 119.200 240.812 116.914 L 240.800 114.629 226.800 114.570 L 212.800 114.511 212.800 102.398 L 212.800 90.286 228.787 90.286 C 239.198 90.286,244.822 90.206,244.914 90.057 C 244.992 89.931,245.024 89.853,244.985 89.883 C 244.946 89.914,237.663 89.991,228.800 90.055 M181.029 90.808 C 181.029 90.860,181.562 91.234,182.213 91.639 C 182.865 92.044,183.282 92.236,183.140 92.066 C 182.871 91.741,181.029 90.644,181.029 90.808 M289.182 91.086 C 289.178 91.337,289.263 91.749,289.371 92.000 C 289.622 92.582,289.622 91.982,289.371 91.200 C 289.224 90.741,289.187 90.718,289.182 91.086 M110.085 91.780 C 110.007 91.985,109.952 92.323,109.963 92.533 C 109.973 92.743,110.073 92.611,110.184 92.240 C 110.399 91.519,110.323 91.162,110.085 91.780 M116.141 91.924 C 116.126 92.134,116.055 92.494,115.983 92.724 C 115.858 93.121,115.865 93.122,116.112 92.736 C 116.256 92.512,116.327 92.152,116.270 91.936 C 116.178 91.582,116.165 91.581,116.141 91.924 M165.257 93.371 C 164.702 93.937,164.299 94.400,164.362 94.400 C 164.425 94.400,164.931 93.937,165.486 93.371 C 166.041 92.806,166.444 92.343,166.381 92.343 C 166.318 92.343,165.812 92.806,165.257 93.371 M184.469 93.383 C 185.028 94.019,185.532 94.504,185.589 94.461 C 185.646 94.419,185.188 93.899,184.572 93.306 L 183.451 92.229 184.469 93.383 M289.739 93.600 C 289.927 94.440,290.058 94.623,290.054 94.038 C 290.052 93.797,289.946 93.446,289.818 93.257 C 289.649 93.007,289.627 93.099,289.739 93.600 M109.371 95.086 C 109.285 95.481,109.261 95.852,109.320 95.910 C 109.378 95.968,109.491 95.687,109.571 95.286 C 109.762 94.333,109.577 94.148,109.371 95.086 M163.842 95.029 C 163.439 95.498,163.137 96.000,163.258 96.000 C 163.304 96.000,163.571 95.691,163.850 95.314 C 164.401 94.569,164.395 94.384,163.842 95.029 M290.325 95.886 C 290.321 96.137,290.406 96.549,290.514 96.800 C 290.765 97.382,290.765 96.782,290.514 96.000 C 290.367 95.541,290.330 95.518,290.325 95.886 M115.003 97.296 C 114.985 97.568,114.912 97.980,114.840 98.210 C 114.715 98.606,114.722 98.607,114.969 98.222 C 115.113 97.998,115.186 97.587,115.132 97.308 C 115.034 96.801,115.034 96.800,115.003 97.296 M108.853 98.286 C 108.853 98.726,108.900 98.906,108.958 98.686 C 109.015 98.466,109.015 98.106,108.958 97.886 C 108.900 97.666,108.853 97.846,108.853 98.286 M290.896 99.086 C 291.069 100.216,291.201 100.408,291.196 99.524 C 291.195 99.157,291.095 98.703,290.974 98.514 C 290.826 98.281,290.801 98.463,290.896 99.086 M114.439 100.318 C 114.355 100.740,114.297 101.304,114.311 101.571 C 114.325 101.839,114.427 101.594,114.538 101.029 C 114.650 100.463,114.707 99.899,114.667 99.775 C 114.626 99.651,114.524 99.896,114.439 100.318 M108.268 101.689 C 108.183 102.112,108.126 102.676,108.139 102.943 C 108.153 103.210,108.255 102.966,108.367 102.400 C 108.478 101.834,108.536 101.270,108.495 101.146 C 108.455 101.023,108.352 101.267,108.268 101.689 M291.470 102.743 C 291.462 103.120,291.540 103.840,291.644 104.343 C 291.893 105.546,291.914 104.465,291.669 103.086 C 291.532 102.314,291.482 102.229,291.470 102.743 M113.891 105.143 C 113.891 105.709,113.935 105.940,113.990 105.657 C 114.044 105.374,114.044 104.911,113.990 104.629 C 113.935 104.346,113.891 104.577,113.891 105.143 M159.574 105.296 C 159.557 105.568,159.484 105.980,159.411 106.210 C 159.287 106.606,159.294 106.607,159.541 106.222 C 159.684 105.998,159.757 105.587,159.703 105.308 C 159.605 104.801,159.605 104.800,159.574 105.296 M107.760 114.171 C 107.760 118.697,107.791 120.581,107.828 118.358 C 107.866 116.134,107.866 112.432,107.828 110.129 C 107.791 107.827,107.760 109.646,107.760 114.171 M286.016 107.429 C 286.016 108.246,286.058 108.580,286.108 108.171 C 286.159 107.763,286.159 107.094,286.108 106.686 C 286.058 106.277,286.016 106.611,286.016 107.429 M159.139 108.571 C 159.139 109.011,159.186 109.191,159.243 108.971 C 159.301 108.751,159.301 108.391,159.243 108.171 C 159.186 107.951,159.139 108.131,159.139 108.571 M196.058 109.371 C 196.122 110.251,196.213 111.014,196.259 111.067 C 196.427 111.257,196.306 108.673,196.126 108.229 C 196.020 107.967,195.991 108.456,196.058 109.371 M292.000 114.171 C 292.000 117.691,292.070 120.109,292.154 119.543 C 292.239 118.977,292.309 116.560,292.309 114.171 C 292.309 111.783,292.239 109.366,292.154 108.800 C 292.070 108.234,292.000 110.651,292.000 114.171 M286.246 110.743 C 286.247 111.623,286.289 111.955,286.338 111.481 C 286.388 111.006,286.387 110.286,286.336 109.881 C 286.286 109.475,286.245 109.863,286.246 110.743 M158.928 110.743 C 158.929 111.497,158.972 111.778,159.023 111.367 C 159.074 110.957,159.073 110.339,159.020 109.996 C 158.968 109.652,158.927 109.989,158.928 110.743 M264.971 110.198 C 264.192 110.697,263.940 111.032,264.629 110.653 C 265.153 110.365,265.975 109.730,265.829 109.725 C 265.766 109.724,265.380 109.936,264.971 110.198 M113.466 114.171 C 113.466 116.434,113.500 117.329,113.542 116.160 C 113.583 114.991,113.583 113.139,113.541 112.046 C 113.500 110.952,113.466 111.909,113.466 114.171 M153.473 117.257 C 153.473 120.966,153.504 122.483,153.542 120.629 C 153.581 118.774,153.581 115.740,153.542 113.886 C 153.504 112.031,153.473 113.549,153.473 117.257 M190.958 117.371 C 190.958 121.143,190.990 122.718,191.028 120.871 C 191.066 119.025,191.066 115.939,191.028 114.014 C 190.990 112.089,190.959 113.600,190.958 117.371 M269.371 111.204 C 269.623 111.409,270.034 111.677,270.286 111.801 L 270.743 112.025 270.286 111.653 C 270.034 111.448,269.623 111.180,269.371 111.056 L 268.914 110.832 269.371 111.204 M262.743 111.664 C 261.849 112.397,262.089 112.392,263.086 111.657 C 263.512 111.343,263.763 111.089,263.644 111.094 C 263.526 111.098,263.120 111.355,262.743 111.664 M271.200 112.347 C 271.451 112.552,271.863 112.820,272.114 112.944 L 272.571 113.168 272.114 112.796 C 271.863 112.591,271.451 112.323,271.200 112.199 L 270.743 111.975 271.200 112.347 M140.654 114.306 L 141.307 114.817 140.768 115.253 C 140.266 115.657,140.264 115.671,140.730 115.443 C 141.621 115.007,141.493 114.518,140.343 113.961 C 140.154 113.869,140.294 114.025,140.654 114.306 M124.829 114.594 C 124.633 114.830,124.692 115.003,125.087 115.337 C 125.599 115.770,125.599 115.770,125.203 115.300 C 124.897 114.936,124.868 114.766,125.077 114.557 C 125.227 114.408,125.289 114.286,125.217 114.286 C 125.144 114.286,124.969 114.424,124.829 114.594 M138.703 116.527 C 137.491 117.317,136.592 118.036,137.371 117.593 C 138.334 117.045,140.114 115.858,140.114 115.764 C 140.114 115.607,140.113 115.608,138.703 116.527 M286.237 118.057 C 286.239 118.686,286.283 118.916,286.335 118.568 C 286.388 118.221,286.387 117.707,286.332 117.425 C 286.278 117.144,286.235 117.429,286.237 118.057 M128.927 117.898 C 130.439 118.851,130.514 118.893,130.514 118.780 C 130.514 118.631,128.342 117.257,128.107 117.257 C 127.999 117.257,128.368 117.545,128.927 117.898 M268.800 118.743 C 268.374 119.057,268.123 119.311,268.241 119.306 C 268.471 119.297,269.917 118.174,269.702 118.173 C 269.632 118.172,269.226 118.429,268.800 118.743 M212.679 134.057 C 212.679 142.229,212.708 145.538,212.743 141.412 C 212.778 137.286,212.778 130.600,212.743 126.555 C 212.708 122.510,212.679 125.886,212.679 134.057 M286.018 121.029 C 286.019 121.909,286.060 122.241,286.110 121.766 C 286.159 121.292,286.158 120.572,286.108 120.166 C 286.057 119.761,286.017 120.149,286.018 121.029 M113.768 122.743 C 113.836 123.560,113.930 124.271,113.975 124.324 C 114.134 124.508,114.009 122.393,113.827 121.829 C 113.717 121.486,113.693 121.851,113.768 122.743 M158.928 123.543 C 158.929 124.297,158.972 124.578,159.023 124.167 C 159.074 123.757,159.073 123.139,159.020 122.796 C 158.968 122.452,158.927 122.789,158.928 123.543 M291.710 123.886 C 291.710 124.326,291.757 124.506,291.815 124.286 C 291.872 124.066,291.872 123.706,291.815 123.486 C 291.757 123.266,291.710 123.446,291.710 123.886 M196.153 124.457 C 196.128 125.086,196.055 125.857,195.990 126.171 L 195.873 126.743 196.118 126.181 C 196.253 125.872,196.326 125.100,196.281 124.467 L 196.199 123.314 196.153 124.457 M291.482 125.486 C 291.482 125.926,291.529 126.106,291.586 125.886 C 291.644 125.666,291.644 125.306,291.586 125.086 C 291.529 124.866,291.482 125.046,291.482 125.486 M108.137 125.619 C 108.150 125.986,108.247 126.543,108.354 126.857 C 108.485 127.243,108.505 127.056,108.416 126.286 C 108.268 125.000,108.102 124.605,108.137 125.619 M159.139 125.714 C 159.139 126.154,159.186 126.334,159.243 126.114 C 159.301 125.894,159.301 125.534,159.243 125.314 C 159.186 125.094,159.139 125.274,159.139 125.714 M285.371 126.400 C 285.284 126.920,285.260 127.393,285.318 127.452 C 285.377 127.510,285.493 127.130,285.577 126.606 C 285.661 126.082,285.685 125.609,285.630 125.554 C 285.576 125.500,285.459 125.880,285.371 126.400 M190.525 126.753 C 190.437 127.336,190.412 127.860,190.470 127.917 C 190.527 127.974,190.645 127.544,190.732 126.961 C 190.820 126.378,190.845 125.854,190.788 125.797 C 190.730 125.740,190.612 126.170,190.525 126.753 M114.308 127.219 C 114.321 127.586,114.419 128.143,114.525 128.457 C 114.656 128.843,114.677 128.656,114.588 127.886 C 114.439 126.600,114.274 126.205,114.308 127.219 M159.462 128.457 C 159.643 129.443,159.773 129.629,159.768 128.895 C 159.766 128.591,159.663 128.189,159.540 128.000 C 159.382 127.759,159.358 127.894,159.462 128.457 M195.543 128.914 C 195.455 129.434,195.431 129.907,195.490 129.966 C 195.548 130.025,195.665 129.644,195.749 129.120 C 195.832 128.596,195.856 128.123,195.802 128.068 C 195.747 128.014,195.631 128.394,195.543 128.914 M291.006 128.724 C 290.987 129.060,290.912 129.522,290.840 129.753 C 290.716 130.148,290.723 130.149,290.969 129.766 C 291.112 129.542,291.187 129.080,291.135 128.737 L 291.040 128.114 291.006 128.724 M114.890 130.743 C 115.071 131.729,115.201 131.915,115.196 131.181 C 115.195 130.877,115.092 130.474,114.968 130.286 C 114.810 130.044,114.787 130.180,114.890 130.743 M284.245 132.702 C 284.161 133.037,284.136 133.355,284.190 133.409 C 284.244 133.463,284.357 133.233,284.441 132.898 C 284.525 132.563,284.550 132.245,284.496 132.191 C 284.442 132.137,284.329 132.367,284.245 132.702 M188.825 133.968 C 188.685 134.372,188.609 134.743,188.658 134.792 C 188.707 134.840,188.862 134.550,189.003 134.146 C 189.144 133.742,189.219 133.372,189.170 133.323 C 189.121 133.274,188.966 133.564,188.825 133.968 M283.800 134.523 C 283.721 134.727,283.666 135.066,283.677 135.276 C 283.688 135.486,283.787 135.354,283.898 134.983 C 284.113 134.261,284.037 133.904,283.800 134.523 M109.946 135.676 C 109.948 135.917,110.054 136.269,110.182 136.457 C 110.351 136.708,110.373 136.615,110.261 136.114 C 110.073 135.274,109.942 135.091,109.946 135.676 M191.771 139.657 C 191.515 140.160,191.356 140.571,191.419 140.571 C 191.482 140.571,191.743 140.160,192.000 139.657 C 192.257 139.154,192.415 138.743,192.352 138.743 C 192.289 138.743,192.028 139.154,191.771 139.657 M164.571 140.414 C 164.571 140.454,164.906 140.788,165.314 141.157 L 166.057 141.829 165.386 141.086 C 164.760 140.393,164.571 140.238,164.571 140.414 M158.857 141.070 C 158.857 141.143,159.320 141.798,159.886 142.527 C 160.451 143.255,160.914 143.774,160.914 143.678 C 160.914 143.583,160.534 143.025,160.069 142.438 C 158.918 140.987,158.857 140.918,158.857 141.070 M187.989 144.743 L 187.086 145.714 188.057 144.811 C 188.591 144.314,189.029 143.877,189.029 143.839 C 189.029 143.666,188.830 143.839,187.989 144.743 M179.314 144.351 C 178.743 144.626,178.724 144.658,179.200 144.542 C 179.848 144.383,180.576 144.012,180.229 144.017 C 180.103 144.019,179.691 144.169,179.314 144.351 M176.343 144.914 L 175.429 145.078 176.229 145.088 C 176.669 145.093,177.286 145.015,177.600 144.914 C 178.334 144.679,177.656 144.679,176.343 144.914 M173.314 145.072 C 173.534 145.129,173.894 145.129,174.114 145.072 C 174.334 145.014,174.154 144.967,173.714 144.967 C 173.274 144.967,173.094 145.014,173.314 145.072 M186.278 146.122 C 185.960 146.400,185.446 146.813,185.135 147.039 C 184.593 147.433,184.600 147.433,185.328 147.039 C 185.744 146.813,186.302 146.397,186.568 146.114 C 187.183 145.460,187.030 145.463,186.278 146.122 M113.267 146.571 C 113.353 146.854,113.517 147.186,113.632 147.309 C 113.747 147.432,113.725 147.200,113.584 146.795 C 113.294 145.964,113.027 145.776,113.267 146.571 M167.086 148.324 C 167.526 148.554,168.143 148.808,168.457 148.889 C 168.771 148.970,168.475 148.777,167.799 148.461 C 166.382 147.798,165.903 147.706,167.086 148.324 M172.976 149.880 C 173.386 149.931,174.003 149.930,174.347 149.878 C 174.690 149.825,174.354 149.784,173.600 149.785 C 172.846 149.786,172.565 149.829,172.976 149.880 M175.718 149.880 C 176.129 149.931,176.746 149.930,177.090 149.878 C 177.433 149.825,177.097 149.784,176.343 149.785 C 175.589 149.786,175.308 149.829,175.718 149.880 M115.445 151.657 C 115.445 151.783,115.592 152.143,115.771 152.457 C 115.951 152.771,116.098 152.926,116.098 152.800 C 116.098 152.674,115.951 152.314,115.771 152.000 C 115.592 151.686,115.445 151.531,115.445 151.657 M119.957 160.571 C 120.212 161.074,120.590 161.691,120.797 161.943 C 121.003 162.194,120.891 161.886,120.548 161.257 C 119.781 159.850,119.318 159.314,119.957 160.571 M277.801 163.486 C 277.015 164.821,276.963 164.935,277.364 164.457 C 277.828 163.904,278.229 163.200,278.079 163.200 C 278.019 163.200,277.894 163.329,277.801 163.486 M130.056 165.429 C 130.356 165.837,130.636 166.171,130.680 166.171 C 130.853 166.171,130.286 165.314,129.912 165.010 C 129.665 164.809,129.720 164.969,130.056 165.429 M123.171 165.600 C 123.294 165.851,123.563 166.263,123.767 166.514 L 124.140 166.971 123.915 166.514 C 123.792 166.263,123.523 165.851,123.318 165.600 L 122.946 165.143 123.171 165.600 M268.540 166.571 C 267.882 167.365,267.603 167.771,267.716 167.771 C 267.780 167.771,268.106 167.411,268.442 166.971 C 269.064 166.155,269.140 165.847,268.540 166.571 M275.199 167.371 C 274.863 167.831,274.808 167.991,275.055 167.790 C 275.429 167.486,275.996 166.629,275.822 166.629 C 275.779 166.629,275.498 166.963,275.199 167.371 M266.514 169.143 C 266.116 169.646,265.842 170.057,265.904 170.057 C 265.967 170.057,266.345 169.646,266.743 169.143 C 267.141 168.640,267.416 168.229,267.353 168.229 C 267.290 168.229,266.913 168.640,266.514 169.143 M125.943 169.600 C 126.341 170.103,126.718 170.514,126.781 170.514 C 126.844 170.514,126.570 170.103,126.171 169.600 C 125.773 169.097,125.396 168.686,125.333 168.686 C 125.270 168.686,125.545 169.097,125.943 169.600 M133.714 170.129 C 133.714 170.168,134.049 170.502,134.457 170.872 L 135.200 171.543 134.529 170.800 C 133.903 170.108,133.714 169.952,133.714 170.129 M264.817 171.178 L 264.147 172.000 264.919 171.264 C 265.344 170.860,265.645 170.490,265.588 170.443 C 265.532 170.396,265.185 170.727,264.817 171.178 M128.201 172.536 C 128.584 173.020,129.078 173.560,129.299 173.736 C 129.521 173.913,129.251 173.517,128.701 172.857 C 127.546 171.473,127.165 171.228,128.201 172.536 M135.086 171.729 C 135.086 171.768,135.420 172.102,135.829 172.472 L 136.571 173.143 135.900 172.400 C 135.274 171.708,135.086 171.552,135.086 171.729 M261.482 174.800 L 259.086 177.257 261.543 174.861 C 263.825 172.636,264.104 172.343,263.939 172.343 C 263.905 172.343,262.799 173.449,261.482 174.800 M269.571 174.562 C 268.958 175.280,268.576 175.794,268.722 175.704 C 269.041 175.508,270.945 173.257,270.792 173.257 C 270.733 173.257,270.183 173.844,269.571 174.562 M130.514 175.200 C 130.941 175.640,131.341 176.000,131.404 176.000 C 131.467 176.000,131.169 175.640,130.743 175.200 C 130.316 174.760,129.916 174.400,129.853 174.400 C 129.790 174.400,130.088 174.760,130.514 175.200 M132.457 177.371 C 133.076 178.000,133.634 178.514,133.697 178.514 C 133.760 178.514,133.305 178.000,132.686 177.371 C 132.067 176.743,131.509 176.229,131.446 176.229 C 131.383 176.229,131.838 176.743,132.457 177.371 M140.800 177.453 C 141.240 177.933,142.217 178.850,142.971 179.490 C 144.543 180.823,143.934 180.181,141.600 178.044 C 140.720 177.238,140.360 176.972,140.800 177.453 M257.143 178.857 C 256.588 179.423,256.185 179.886,256.248 179.886 C 256.311 179.886,256.816 179.423,257.371 178.857 C 257.927 178.291,258.329 177.829,258.267 177.829 C 258.204 177.829,257.698 178.291,257.143 178.857 M133.971 178.914 C 133.987 179.009,134.784 179.803,135.743 180.680 L 137.486 182.275 135.777 180.509 C 134.045 178.718,133.921 178.609,133.971 178.914 M252.563 182.645 L 251.771 183.347 252.629 182.732 C 253.386 182.189,253.632 181.943,253.420 181.943 C 253.384 181.943,252.998 182.259,252.563 182.645 M138.629 183.314 C 139.248 183.943,139.806 184.457,139.869 184.457 C 139.931 184.457,139.476 183.943,138.857 183.314 C 138.238 182.686,137.680 182.171,137.617 182.171 C 137.554 182.171,138.009 182.686,138.629 183.314 M260.114 184.033 L 258.857 185.194 260.056 184.233 C 261.108 183.391,261.664 182.842,261.442 182.864 C 261.403 182.868,260.806 183.394,260.114 184.033 M148.448 183.822 C 148.830 184.165,149.234 184.448,149.345 184.451 C 149.456 184.454,149.251 184.233,148.888 183.959 C 147.875 183.194,147.679 183.133,148.448 183.822 M150.400 185.212 C 150.400 185.264,150.991 185.686,151.714 186.150 C 152.437 186.614,152.747 186.755,152.404 186.463 C 151.725 185.886,150.400 185.059,150.400 185.212 M257.257 186.425 L 256.343 187.243 257.314 186.517 C 258.150 185.891,258.452 185.590,258.229 185.603 C 258.197 185.605,257.760 185.975,257.257 186.425 M143.854 187.605 C 144.034 187.898,145.371 188.887,145.371 188.728 C 145.371 188.672,144.994 188.338,144.532 187.986 C 144.071 187.634,143.765 187.462,143.854 187.605 M244.857 187.912 C 244.078 188.411,243.826 188.746,244.514 188.368 C 245.039 188.079,245.860 187.444,245.714 187.440 C 245.651 187.438,245.266 187.650,244.857 187.912 M145.600 188.883 C 145.600 188.946,145.909 189.217,146.286 189.486 C 146.663 189.754,146.971 189.923,146.971 189.860 C 146.971 189.797,146.663 189.526,146.286 189.257 C 145.909 188.989,145.600 188.820,145.600 188.883 M147.886 190.640 C 148.679 191.178,149.130 191.334,148.571 190.878 C 148.257 190.620,147.897 190.409,147.771 190.409 C 147.646 190.408,147.697 190.512,147.886 190.640 M167.314 194.362 C 167.314 194.421,167.646 194.585,168.052 194.727 C 168.458 194.868,168.689 194.890,168.566 194.775 C 168.306 194.531,167.314 194.204,167.314 194.362 M187.314 199.785 C 188.472 200.024,189.408 200.013,188.457 199.771 C 188.080 199.675,187.463 199.597,187.086 199.596 C 186.509 199.596,186.546 199.626,187.314 199.785 M192.623 200.394 C 193.029 200.444,193.749 200.445,194.223 200.395 C 194.698 200.346,194.366 200.305,193.486 200.304 C 192.606 200.303,192.218 200.343,192.623 200.394 M206.343 200.394 C 206.751 200.445,207.420 200.445,207.829 200.394 C 208.237 200.343,207.903 200.302,207.086 200.302 C 206.269 200.302,205.934 200.343,206.343 200.394 M195.946 200.621 C 196.293 200.674,196.808 200.672,197.089 200.618 C 197.370 200.564,197.086 200.521,196.457 200.523 C 195.829 200.524,195.599 200.569,195.946 200.621 M203.829 200.618 C 204.111 200.673,204.574 200.673,204.857 200.618 C 205.140 200.564,204.909 200.519,204.343 200.519 C 203.777 200.519,203.546 200.564,203.829 200.618 M176.800 203.657 C 177.051 203.765,177.411 203.854,177.600 203.854 C 177.816 203.854,177.774 203.781,177.486 203.657 C 177.234 203.549,176.874 203.461,176.686 203.461 C 176.470 203.461,176.512 203.533,176.800 203.657 M178.743 204.104 C 178.931 204.231,179.283 204.337,179.524 204.339 C 180.109 204.344,179.926 204.213,179.086 204.025 C 178.585 203.913,178.492 203.934,178.743 204.104 M220.343 204.114 C 219.872 204.265,219.852 204.301,220.229 204.317 C 220.480 204.327,220.840 204.236,221.029 204.114 C 221.429 203.855,221.151 203.855,220.343 204.114 M181.600 204.800 C 181.851 204.908,182.211 204.996,182.400 204.996 C 182.616 204.996,182.574 204.924,182.286 204.800 C 182.034 204.692,181.674 204.604,181.486 204.604 C 181.270 204.604,181.312 204.676,181.600 204.800 M184.114 205.255 C 184.551 205.445,186.236 205.575,186.038 205.404 C 185.986 205.358,185.429 205.262,184.800 205.189 C 184.065 205.104,183.820 205.128,184.114 205.255 M214.514 205.257 C 213.892 205.415,213.881 205.433,214.400 205.443 C 214.714 205.449,215.177 205.365,215.429 205.257 C 215.992 205.015,215.466 205.015,214.514 205.257 M188.517 205.876 C 188.801 205.931,189.213 205.929,189.431 205.871 C 189.650 205.814,189.417 205.769,188.914 205.772 C 188.411 205.774,188.233 205.821,188.517 205.876 M210.803 205.878 C 211.151 205.931,211.665 205.929,211.946 205.875 C 212.227 205.821,211.943 205.778,211.314 205.780 C 210.686 205.781,210.456 205.826,210.803 205.878 M190.229 206.100 C 190.449 206.158,190.809 206.158,191.029 206.100 C 191.249 206.043,191.069 205.996,190.629 205.996 C 190.189 205.996,190.009 206.043,190.229 206.100 M208.860 206.105 C 209.144 206.159,209.556 206.157,209.774 206.100 C 209.993 206.043,209.760 205.998,209.257 206.000 C 208.754 206.003,208.575 206.050,208.860 206.105 M194.057 206.440 C 195.412 206.644,204.436 206.647,205.575 206.444 C 206.063 206.357,203.441 206.286,199.746 206.286 C 196.051 206.286,193.491 206.355,194.057 206.440 " stroke="none" fill-rule="evenodd" style="fill: rgb(255, 255, 255);"></path>
    <path id="path3" d="M190.343 22.561 C 190.626 22.616,191.089 22.616,191.371 22.561 C 191.654 22.507,191.423 22.462,190.857 22.462 C 190.291 22.462,190.060 22.507,190.343 22.561 M208.400 22.561 C 208.683 22.616,209.146 22.616,209.429 22.561 C 209.711 22.507,209.480 22.462,208.914 22.462 C 208.349 22.462,208.117 22.507,208.400 22.561 M216.114 23.532 C 216.553 23.731,217.777 23.861,217.581 23.687 C 217.529 23.641,217.074 23.541,216.571 23.464 C 215.934 23.367,215.796 23.388,216.114 23.532 M198.923 27.598 C 199.650 27.643,200.782 27.643,201.437 27.597 C 202.092 27.551,201.497 27.514,200.114 27.514 C 198.731 27.515,198.195 27.552,198.923 27.598 M193.309 27.822 C 193.715 27.873,194.435 27.873,194.909 27.824 C 195.383 27.774,195.051 27.733,194.171 27.732 C 193.291 27.731,192.903 27.772,193.309 27.822 M204.976 27.823 C 205.386 27.874,206.003 27.873,206.347 27.820 C 206.690 27.768,206.354 27.727,205.600 27.728 C 204.846 27.729,204.565 27.772,204.976 27.823 M188.400 28.272 C 188.620 28.329,188.980 28.329,189.200 28.272 C 189.420 28.214,189.240 28.167,188.800 28.167 C 188.360 28.167,188.180 28.214,188.400 28.272 M210.460 28.276 C 210.744 28.331,211.156 28.329,211.374 28.271 C 211.593 28.214,211.360 28.169,210.857 28.172 C 210.354 28.174,210.175 28.221,210.460 28.276 M143.306 41.388 L 142.514 42.090 143.371 41.475 C 144.129 40.932,144.375 40.686,144.163 40.686 C 144.127 40.686,143.741 41.002,143.306 41.388 M140.443 43.714 L 139.771 44.457 140.514 43.786 C 140.923 43.417,141.257 43.082,141.257 43.043 C 141.257 42.866,141.069 43.022,140.443 43.714 M262.400 46.514 C 262.826 46.954,263.227 47.314,263.290 47.314 C 263.353 47.314,263.055 46.954,262.629 46.514 C 262.202 46.074,261.802 45.714,261.739 45.714 C 261.676 45.714,261.974 46.074,262.400 46.514 M134.396 49.314 L 132.000 51.771 134.457 49.376 C 135.809 48.058,136.914 46.952,136.914 46.918 C 136.914 46.753,136.621 47.032,134.396 49.314 M142.159 49.543 L 141.371 50.400 142.229 49.612 C 143.026 48.879,143.191 48.686,143.016 48.686 C 142.978 48.686,142.592 49.071,142.159 49.543 M260.797 52.857 C 262.492 54.586,263.907 56.000,263.940 56.000 C 264.104 56.000,263.777 55.660,260.857 52.797 L 257.714 49.714 260.797 52.857 M138.509 52.971 L 136.571 54.971 138.571 53.034 C 139.671 51.968,140.571 51.068,140.571 51.034 C 140.571 50.867,140.309 51.114,138.509 52.971 M268.800 53.143 C 269.226 53.583,269.627 53.943,269.690 53.943 C 269.753 53.943,269.455 53.583,269.029 53.143 C 268.602 52.703,268.202 52.343,268.139 52.343 C 268.076 52.343,268.374 52.703,268.800 53.143 M135.073 56.629 L 134.286 57.486 135.143 56.698 C 135.941 55.965,136.105 55.771,135.931 55.771 C 135.892 55.771,135.507 56.157,135.073 56.629 M127.282 57.314 C 126.625 58.108,126.346 58.514,126.459 58.514 C 126.522 58.514,126.849 58.154,127.185 57.714 C 127.807 56.898,127.883 56.590,127.282 57.314 M174.120 84.739 C 174.658 84.787,175.481 84.787,175.949 84.738 C 176.417 84.688,175.977 84.649,174.971 84.650 C 173.966 84.651,173.583 84.691,174.120 84.739 M169.829 85.257 C 169.358 85.408,169.338 85.444,169.714 85.459 C 169.966 85.470,170.326 85.379,170.514 85.257 C 170.915 84.998,170.637 84.998,169.829 85.257 M207.420 85.771 C 207.360 85.929,207.338 100.200,207.370 117.486 L 207.429 148.914 209.829 148.926 L 212.229 148.937 209.886 148.861 L 207.543 148.785 207.543 117.251 L 207.543 85.717 226.229 85.657 L 244.914 85.597 226.221 85.542 C 211.436 85.497,207.506 85.545,207.420 85.771 M161.829 89.943 C 161.273 90.509,160.871 90.971,160.933 90.971 C 160.996 90.971,161.502 90.509,162.057 89.943 C 162.612 89.377,163.015 88.914,162.952 88.914 C 162.889 88.914,162.384 89.377,161.829 89.943 M174.109 89.308 C 174.515 89.358,175.235 89.359,175.709 89.310 C 176.183 89.260,175.851 89.219,174.971 89.218 C 174.091 89.217,173.703 89.257,174.109 89.308 M188.105 90.114 C 189.052 91.123,189.257 91.305,189.257 91.133 C 189.257 91.097,188.769 90.608,188.171 90.048 L 187.086 89.029 188.105 90.114 M220.645 90.000 C 225.149 90.035,232.452 90.035,236.874 90.000 C 241.296 89.965,237.611 89.937,228.686 89.937 C 219.760 89.937,216.142 89.965,220.645 90.000 M288.718 90.057 C 288.718 90.246,288.806 90.606,288.914 90.857 C 289.038 91.145,289.111 91.188,289.111 90.971 C 289.111 90.783,289.022 90.423,288.914 90.171 C 288.790 89.883,288.718 89.841,288.718 90.057 M110.427 91.238 C 110.412 91.448,110.341 91.808,110.268 92.038 C 110.144 92.435,110.151 92.436,110.398 92.050 C 110.542 91.826,110.613 91.466,110.556 91.250 C 110.463 90.896,110.450 90.895,110.427 91.238 M165.134 93.314 L 164.000 94.514 165.200 93.380 C 166.315 92.326,166.505 92.114,166.334 92.114 C 166.298 92.114,165.758 92.654,165.134 93.314 M184.448 93.086 C 185.008 93.683,185.497 94.171,185.533 94.171 C 185.705 94.171,185.523 93.966,184.514 93.019 L 183.429 92.000 184.448 93.086 M186.056 95.029 C 186.356 95.437,186.636 95.771,186.680 95.771 C 186.853 95.771,186.286 94.914,185.912 94.610 C 185.665 94.409,185.720 94.569,186.056 95.029 M284.604 96.457 C 284.604 96.646,284.692 97.006,284.800 97.257 C 284.924 97.545,284.996 97.588,284.996 97.371 C 284.996 97.183,284.908 96.823,284.800 96.571 C 284.676 96.283,284.604 96.241,284.604 96.457 M195.004 103.771 C 195.004 103.960,195.092 104.320,195.200 104.571 C 195.324 104.860,195.396 104.902,195.396 104.686 C 195.396 104.497,195.308 104.137,195.200 103.886 C 195.076 103.598,195.004 103.555,195.004 103.771 M108.177 104.686 C 108.177 105.251,108.221 105.483,108.276 105.200 C 108.330 104.917,108.330 104.454,108.276 104.171 C 108.221 103.889,108.177 104.120,108.177 104.686 M291.734 107.200 C 291.734 108.143,291.774 108.529,291.824 108.057 C 291.873 107.586,291.873 106.814,291.824 106.343 C 291.774 105.871,291.734 106.257,291.734 107.200 M113.442 108.000 C 113.444 108.754,113.486 109.035,113.537 108.624 C 113.588 108.214,113.587 107.597,113.535 107.253 C 113.483 106.910,113.441 107.246,113.442 108.000 M195.715 107.543 C 195.717 108.046,195.764 108.225,195.819 107.940 C 195.873 107.656,195.871 107.244,195.814 107.026 C 195.757 106.807,195.712 107.040,195.715 107.543 M153.891 109.257 C 153.891 109.823,153.935 110.054,153.990 109.771 C 154.044 109.489,154.044 109.026,153.990 108.743 C 153.935 108.460,153.891 108.691,153.891 109.257 M190.910 109.486 C 190.910 109.926,190.957 110.106,191.015 109.886 C 191.072 109.666,191.072 109.306,191.015 109.086 C 190.957 108.866,190.910 109.046,190.910 109.486 M286.497 114.171 C 286.498 116.937,286.531 118.037,286.571 116.616 C 286.611 115.195,286.611 112.932,286.570 111.587 C 286.530 110.243,286.497 111.406,286.497 114.171 M191.187 117.257 C 191.187 121.091,191.218 122.660,191.257 120.743 C 191.295 118.826,191.295 115.689,191.257 113.771 C 191.218 111.854,191.187 113.423,191.187 117.257 M153.662 111.543 C 153.662 112.109,153.707 112.340,153.761 112.057 C 153.816 111.774,153.816 111.311,153.761 111.029 C 153.707 110.746,153.662 110.977,153.662 111.543 M291.978 114.171 C 291.979 116.183,292.013 116.975,292.056 115.932 C 292.098 114.889,292.098 113.243,292.055 112.275 C 292.013 111.307,291.978 112.160,291.978 114.171 M113.235 114.400 C 113.236 116.411,113.271 117.204,113.313 116.161 C 113.356 115.117,113.355 113.472,113.313 112.503 C 113.270 111.535,113.235 112.389,113.235 114.400 M158.729 117.257 C 158.729 120.714,158.761 122.129,158.799 120.400 C 158.838 118.671,158.838 115.843,158.799 114.114 C 158.761 112.386,158.729 113.800,158.729 117.257 M196.211 117.257 C 196.211 119.960,196.244 121.066,196.285 119.714 C 196.325 118.363,196.325 116.151,196.285 114.800 C 196.244 113.449,196.211 114.554,196.211 117.257 M125.259 114.467 C 124.771 114.862,124.768 114.888,125.177 115.199 C 125.543 115.477,125.561 115.477,125.308 115.194 C 125.068 114.925,125.108 114.798,125.537 114.468 C 125.823 114.247,125.991 114.065,125.911 114.062 C 125.831 114.059,125.537 114.241,125.259 114.467 M140.746 114.552 C 140.949 114.755,140.919 114.894,140.621 115.136 C 140.273 115.418,140.289 115.424,140.758 115.197 C 141.240 114.962,141.132 114.286,140.612 114.286 C 140.539 114.286,140.600 114.406,140.746 114.552 M274.226 114.546 C 274.421 114.741,274.360 114.917,273.986 115.245 C 273.486 115.684,273.486 115.684,274.118 115.299 C 274.689 114.952,274.675 114.286,274.098 114.286 C 274.025 114.286,274.083 114.403,274.226 114.546 M240.416 116.912 L 240.488 119.082 226.644 119.144 L 212.800 119.205 226.686 119.203 L 240.571 119.200 240.637 116.971 C 240.673 115.746,240.621 114.743,240.523 114.742 C 240.424 114.742,240.376 115.718,240.416 116.912 M138.571 116.369 C 137.792 116.868,137.540 117.203,138.229 116.825 C 138.753 116.537,139.575 115.901,139.429 115.897 C 139.366 115.895,138.980 116.107,138.571 116.369 M260.686 116.461 C 260.937 116.666,261.349 116.934,261.600 117.058 L 262.057 117.282 261.600 116.910 C 261.349 116.705,260.937 116.437,260.686 116.313 L 260.229 116.089 260.686 116.461 M270.000 117.741 C 269.221 118.240,268.969 118.575,269.657 118.196 C 270.182 117.908,271.003 117.273,270.857 117.268 C 270.794 117.266,270.409 117.479,270.000 117.741 M134.686 118.883 C 133.907 119.382,133.655 119.717,134.343 119.339 C 134.867 119.051,135.689 118.415,135.543 118.411 C 135.480 118.409,135.094 118.622,134.686 118.883 M267.486 119.341 C 266.707 119.840,266.455 120.175,267.143 119.796 C 267.667 119.508,268.489 118.873,268.343 118.868 C 268.280 118.866,267.894 119.079,267.486 119.341 M113.445 120.457 C 113.445 121.274,113.486 121.609,113.537 121.200 C 113.587 120.791,113.587 120.123,113.537 119.714 C 113.486 119.306,113.445 119.640,113.445 120.457 M286.224 120.229 C 286.224 120.669,286.271 120.849,286.329 120.629 C 286.386 120.409,286.386 120.049,286.329 119.829 C 286.271 119.609,286.224 119.789,286.224 120.229 M291.732 121.029 C 291.733 121.909,291.774 122.241,291.824 121.766 C 291.873 121.292,291.873 120.572,291.822 120.166 C 291.772 119.761,291.731 120.149,291.732 121.029 M153.662 122.971 C 153.662 123.537,153.707 123.769,153.761 123.486 C 153.816 123.203,153.816 122.740,153.761 122.457 C 153.707 122.174,153.662 122.406,153.662 122.971 M108.177 123.657 C 108.177 124.223,108.221 124.454,108.276 124.171 C 108.330 123.889,108.330 123.426,108.276 123.143 C 108.221 122.860,108.177 123.091,108.177 123.657 M286.000 123.543 C 286.003 124.046,286.050 124.225,286.105 123.940 C 286.159 123.656,286.157 123.244,286.100 123.026 C 286.043 122.807,285.998 123.040,286.000 123.543 M153.891 125.257 C 153.891 125.823,153.935 126.054,153.990 125.771 C 154.044 125.489,154.044 125.026,153.990 124.743 C 153.935 124.460,153.891 124.691,153.891 125.257 M190.910 125.029 C 190.910 125.469,190.957 125.649,191.015 125.429 C 191.072 125.209,191.072 124.849,191.015 124.629 C 190.957 124.409,190.910 124.589,190.910 125.029 M195.715 126.971 C 195.717 127.474,195.764 127.653,195.819 127.369 C 195.873 127.084,195.871 126.673,195.814 126.454 C 195.757 126.236,195.712 126.469,195.715 126.971 M285.285 128.343 C 285.266 128.594,285.198 129.057,285.133 129.371 L 285.016 129.943 285.261 129.382 C 285.395 129.074,285.464 128.611,285.412 128.354 C 285.322 127.898,285.319 127.898,285.285 128.343 M109.746 133.943 C 109.746 134.131,109.835 134.491,109.943 134.743 C 110.067 135.031,110.139 135.073,110.139 134.857 C 110.139 134.669,110.051 134.309,109.943 134.057 C 109.819 133.769,109.746 133.727,109.746 133.943 M284.141 133.981 C 284.126 134.191,284.055 134.551,283.983 134.781 C 283.858 135.178,283.865 135.179,284.112 134.793 C 284.256 134.569,284.327 134.209,284.270 133.993 C 284.178 133.639,284.165 133.638,284.141 133.981 M184.686 141.143 C 184.131 141.709,183.728 142.171,183.791 142.171 C 183.853 142.171,184.359 141.709,184.914 141.143 C 185.469 140.577,185.872 140.114,185.809 140.114 C 185.747 140.114,185.241 140.577,184.686 141.143 M190.400 141.486 C 190.131 141.863,189.963 142.171,190.026 142.171 C 190.089 142.171,190.360 141.863,190.629 141.486 C 190.897 141.109,191.065 140.800,191.003 140.800 C 190.940 140.800,190.669 141.109,190.400 141.486 M187.989 144.514 L 187.086 145.486 188.057 144.582 C 188.961 143.742,189.134 143.543,188.961 143.543 C 188.923 143.543,188.486 143.980,187.989 144.514 M174.686 145.300 C 174.906 145.358,175.266 145.358,175.486 145.300 C 175.706 145.243,175.526 145.196,175.086 145.196 C 174.646 145.196,174.466 145.243,174.686 145.300 M285.931 146.889 C 285.805 147.221,285.744 147.534,285.796 147.586 C 285.848 147.638,285.999 147.367,286.133 146.983 C 286.430 146.130,286.251 146.047,285.931 146.889 M269.608 165.391 C 269.395 165.716,269.260 166.022,269.308 166.070 C 269.356 166.118,269.576 165.852,269.796 165.479 C 270.289 164.645,270.142 164.576,269.608 165.391 M274.927 167.486 C 274.525 167.955,274.223 168.457,274.344 168.457 C 274.390 168.457,274.656 168.149,274.935 167.771 C 275.486 167.026,275.481 166.841,274.927 167.486 M134.857 171.720 C 134.857 171.755,135.654 172.552,136.629 173.491 L 138.400 175.200 136.691 173.429 C 135.105 171.783,134.857 171.553,134.857 171.720 M130.857 175.314 C 131.348 175.817,131.801 176.229,131.864 176.229 C 131.927 176.229,131.577 175.817,131.086 175.314 C 130.595 174.811,130.142 174.400,130.079 174.400 C 130.016 174.400,130.366 174.811,130.857 175.314 M268.788 175.257 L 268.000 176.114 268.857 175.327 C 269.655 174.593,269.819 174.400,269.645 174.400 C 269.607 174.400,269.221 174.786,268.788 175.257 M138.514 175.377 C 138.514 175.412,139.311 176.209,140.286 177.149 L 142.057 178.857 140.349 177.086 C 138.762 175.440,138.514 175.210,138.514 175.377 M264.571 179.657 C 263.067 181.166,261.887 182.400,261.950 182.400 C 262.013 182.400,263.295 181.166,264.800 179.657 C 266.305 178.149,267.484 176.914,267.421 176.914 C 267.359 176.914,266.076 178.149,264.571 179.657 M257.131 179.143 L 256.343 180.000 257.200 179.212 C 257.998 178.479,258.162 178.286,257.988 178.286 C 257.949 178.286,257.564 178.671,257.131 179.143 M136.229 180.914 C 136.655 181.354,137.055 181.714,137.118 181.714 C 137.181 181.714,136.884 181.354,136.457 180.914 C 136.031 180.474,135.630 180.114,135.567 180.114 C 135.505 180.114,135.802 180.474,136.229 180.914 M138.629 183.086 C 139.120 183.589,139.573 184.000,139.636 184.000 C 139.698 184.000,139.348 183.589,138.857 183.086 C 138.366 182.583,137.913 182.171,137.850 182.171 C 137.787 182.171,138.138 182.583,138.629 183.086 M250.734 184.245 L 249.943 184.947 250.857 184.311 C 251.360 183.962,251.814 183.646,251.867 183.609 C 251.919 183.573,251.864 183.543,251.744 183.543 C 251.624 183.543,251.169 183.859,250.734 184.245 M251.714 190.198 C 250.935 190.697,250.683 191.032,251.371 190.653 C 251.896 190.365,252.717 189.730,252.571 189.725 C 252.509 189.724,252.123 189.936,251.714 190.198 M177.257 197.943 C 177.509 198.051,177.869 198.139,178.057 198.139 C 178.273 198.139,178.231 198.067,177.943 197.943 C 177.691 197.835,177.331 197.746,177.143 197.746 C 176.927 197.746,176.969 197.819,177.257 197.943 M182.286 199.086 C 182.537 199.194,182.949 199.279,183.200 199.275 C 183.567 199.270,183.545 199.233,183.086 199.086 C 182.304 198.835,181.703 198.835,182.286 199.086 M190.457 200.386 C 190.677 200.444,191.037 200.444,191.257 200.386 C 191.477 200.329,191.297 200.282,190.857 200.282 C 190.417 200.282,190.237 200.329,190.457 200.386 M193.774 200.619 C 194.058 200.673,194.470 200.671,194.688 200.614 C 194.907 200.557,194.674 200.512,194.171 200.515 C 193.669 200.517,193.490 200.564,193.774 200.619 M197.759 200.856 C 199.103 200.896,201.366 200.897,202.787 200.856 C 204.209 200.816,203.109 200.783,200.343 200.783 C 197.577 200.783,196.414 200.816,197.759 200.856 M223.429 203.200 C 223.140 203.324,223.098 203.396,223.314 203.396 C 223.503 203.396,223.863 203.308,224.114 203.200 C 224.402 203.076,224.445 203.004,224.229 203.004 C 224.040 203.004,223.680 203.092,223.429 203.200 M183.143 204.958 C 183.363 205.015,183.723 205.015,183.943 204.958 C 184.163 204.900,183.983 204.853,183.543 204.853 C 183.103 204.853,182.923 204.900,183.143 204.958 M212.229 205.486 C 211.613 205.642,211.601 205.661,212.114 205.664 C 212.429 205.667,212.943 205.586,213.257 205.486 C 214.025 205.240,213.195 205.240,212.229 205.486 M190.229 205.872 C 190.449 205.929,190.809 205.929,191.029 205.872 C 191.249 205.814,191.069 205.767,190.629 205.767 C 190.189 205.767,190.009 205.814,190.229 205.872 M192.171 206.104 C 192.454 206.159,192.917 206.159,193.200 206.104 C 193.483 206.050,193.251 206.005,192.686 206.005 C 192.120 206.005,191.889 206.050,192.171 206.104 M206.118 206.109 C 206.529 206.159,207.146 206.158,207.490 206.106 C 207.833 206.054,207.497 206.012,206.743 206.014 C 205.989 206.015,205.708 206.058,206.118 206.109 M195.603 206.333 C 195.887 206.388,196.298 206.386,196.517 206.328 C 196.735 206.271,196.503 206.227,196.000 206.229 C 195.497 206.232,195.318 206.278,195.603 206.333 M203.143 206.333 C 203.426 206.387,203.889 206.387,204.171 206.333 C 204.454 206.278,204.223 206.234,203.657 206.234 C 203.091 206.234,202.860 206.278,203.143 206.333 " stroke="none" fill-rule="evenodd" style="fill: rgb(255, 255, 255);"></path>
    <path id="path4" d="M196.060 27.819 C 196.344 27.873,196.756 27.871,196.974 27.814 C 197.193 27.757,196.960 27.712,196.457 27.715 C 195.954 27.717,195.775 27.764,196.060 27.819 M244.882 87.771 C 244.882 88.966,244.921 89.454,244.968 88.857 C 245.015 88.260,245.015 87.283,244.968 86.686 C 244.921 86.089,244.882 86.577,244.882 87.771 M196.167 111.771 C 196.167 112.211,196.214 112.391,196.272 112.171 C 196.329 111.951,196.329 111.591,196.272 111.371 C 196.214 111.151,196.167 111.331,196.167 111.771 M196.167 122.743 C 196.167 123.183,196.214 123.363,196.272 123.143 C 196.329 122.923,196.329 122.563,196.272 122.343 C 196.214 122.123,196.167 122.303,196.167 122.743 " stroke="none" fill-rule="evenodd" style="fill: rgb(255, 255, 255);"></path>
  </g>
</svg>