
<svg viewBox="136.108 124.059 224.825 226.081" width="224.825" height="226.081">
  <g transform="matrix(1, 0, 0, 1, 135.643158, 124.059303)">
    <path d="M 154.458 209.12 C 114.346 193.645 88.428 155.929 88.428 113.035 C 88.428 70.145 114.346 32.431 154.458 16.956 C 156.382 16.214 157.652 14.364 157.652 12.301 C 157.652 10.238 156.383 8.388 154.459 7.645 C 141.317 2.572 127.648 0 113.831 0 C 51.501 0 0.791 50.707 0.791 113.034 C 0.791 175.368 51.5 226.081 113.83 226.081 C 127.633 226.081 141.303 223.507 154.459 218.431 C 156.383 217.688 157.652 215.838 157.652 213.775 C 157.653 211.712 156.383 209.862 154.458 209.12 Z M 129.412 204.134 C 72.585 204.134 50.975 164.428 50.975 107.597 C 50.974 50.773 54.814 24.669 111.641 24.669 C 120.06 24.669 78.706 19.027 86.912 21.109 C 71.001 29.481 55.313 27.455 44.875 42.357 C 31.567 61.355 43.892 101.945 43.892 125.218 C 43.892 148.49 68.009 179.557 81.316 198.558 C 91.756 213.463 88.703 194.535 104.616 202.908 C 96.404 204.993 137.826 204.134 129.412 204.134 Z" style="fill: rgb(168, 126, 92);"></path>
    <path d="M 223.477 149.92 L 204.13 133.948 L 206.309 108.96 C 206.474 107.068 205.551 105.246 203.928 104.261 C 202.305 103.276 200.261 103.296 198.66 104.316 L 177.499 117.772 L 154.389 107.973 C 152.64 107.232 150.622 107.547 149.184 108.787 C 147.745 110.027 147.135 111.976 147.609 113.815 L 153.886 138.114 L 137.427 157.042 C 136.18 158.476 135.856 160.493 136.591 162.245 C 137.325 163.997 138.99 165.18 140.886 165.297 L 165.92 166.839 L 178.852 188.357 C 179.759 189.866 181.387 190.777 183.128 190.777 C 183.265 190.777 183.404 190.771 183.542 190.76 C 185.435 190.603 187.075 189.385 187.772 187.618 L 196.978 164.272 L 221.421 158.631 C 223.273 158.204 224.72 156.763 225.155 154.914 C 225.593 153.065 224.941 151.129 223.477 149.92 Z M 185.734 148.846 C 184.133 149.215 164.946 139.831 164.343 141.36 L 182.197 174.548 L 185.678 130.437 C 184.833 129.029 182.939 130.378 181.299 130.277 L 175.384 131.321 L 163.14 142.682 C 164.218 141.442 169.74 143.621 169.329 142.03 L 172.348 152.045 L 180.67 155.88 C 182.181 156.52 188.192 141.542 189.577 140.66 L 178.623 151.032 L 181.854 159.484 C 181.711 161.12 178.647 142.024 179.913 143.069 L 168.262 148.694 L 185.734 148.846 Z" style="fill: rgb(168, 126, 92);"></path>
    <path d="M 161.907 68.403 L 173.763 69.132 L 179.886 79.329 C 180.642 80.587 181.999 81.347 183.45 81.347 C 183.565 81.347 183.679 81.342 183.794 81.333 C 185.372 81.202 186.739 80.187 187.32 78.715 L 191.683 67.655 L 203.262 64.981 C 204.804 64.625 206.01 63.424 206.374 61.884 C 206.737 60.344 206.195 58.73 204.973 57.722 L 195.806 50.153 L 196.844 38.32 C 196.982 36.744 196.214 35.225 194.861 34.403 C 193.51 33.582 191.809 33.599 190.472 34.447 L 180.436 40.822 L 169.491 36.181 C 168.034 35.563 166.352 35.826 165.153 36.859 C 163.954 37.893 163.445 39.517 163.842 41.05 L 166.819 52.561 L 159.026 61.523 C 157.986 62.718 157.717 64.399 158.328 65.859 C 158.939 67.32 160.327 68.306 161.907 68.403 Z M 188.38 58.503 L 187.295 51.281 L 179.199 49.332 C 180.457 49.865 180.278 69.726 181.432 68.994 L 187.823 45.983 L 181.518 45.908 C 181.398 47.272 180.153 46.923 181.209 47.794 L 183.792 52.063 L 179.489 54.616 C 178.155 54.924 183.205 54.401 182.702 55.673 L 177.634 53.146 L 184.669 59.387 C 183.964 58.213 182.397 58.983 181.03 58.899 L 186.465 63.132 L 186.478 57.898 C 187.376 56.867 188.722 59.83 188.38 58.503 Z" style="fill: rgb(168, 126, 92);"></path>
  </g>
  <g transform="matrix(1, 0, 0, 1, 136.107941, 155.316467)"></g>
  <g transform="matrix(1, 0, 0, 1, 136.107941, 155.316467)"></g>
  <g transform="matrix(1, 0, 0, 1, 136.107941, 155.316467)"></g>
  <g transform="matrix(1, 0, 0, 1, 136.107941, 155.316467)"></g>
  <g transform="matrix(1, 0, 0, 1, 136.107941, 155.316467)"></g>
  <g transform="matrix(1, 0, 0, 1, 136.107941, 155.316467)"></g>
  <g transform="matrix(1, 0, 0, 1, 136.107941, 155.316467)"></g>
  <g transform="matrix(1, 0, 0, 1, 136.107941, 155.316467)"></g>
  <g transform="matrix(1, 0, 0, 1, 136.107941, 155.316467)"></g>
  <g transform="matrix(1, 0, 0, 1, 136.107941, 155.316467)"></g>
  <g transform="matrix(1, 0, 0, 1, 136.107941, 155.316467)"></g>
  <g transform="matrix(1, 0, 0, 1, 136.107941, 155.316467)"></g>
  <g transform="matrix(1, 0, 0, 1, 136.107941, 155.316467)"></g>
  <g transform="matrix(1, 0, 0, 1, 136.107941, 155.316467)"></g>
  <g transform="matrix(1, 0, 0, 1, 136.107941, 155.316467)"></g>
</svg>