<!doctype html>
<svg viewBox="144.806 114.551 207.628 207.628" width="207.628" height="207.628">
  <circle cx="248.62" cy="218.365" r="45.868" style="fill: rgb(168, 126, 92);"></circle>
  <path d="M 248.62 271.734 C 219.193 271.734 195.252 247.793 195.252 218.366 C 195.252 188.939 219.193 164.998 248.62 164.998 C 278.047 164.998 301.988 188.939 301.988 218.366 C 301.988 247.793 278.047 271.734 248.62 271.734 Z M 248.62 179.997 C 227.464 179.997 210.252 197.209 210.252 218.365 C 210.252 239.521 227.464 256.733 248.62 256.733 C 269.776 256.733 286.988 239.521 286.988 218.365 C 286.988 197.209 269.776 179.997 248.62 179.997 Z" style="fill: rgb(168, 126, 92);"></path>
  <path d="M 248.62 153.936 C 244.478 153.936 241.12 150.578 241.12 146.436 L 241.12 122.051 C 241.12 117.909 244.478 114.551 248.62 114.551 C 252.762 114.551 256.12 117.909 256.12 122.051 L 256.12 146.436 C 256.12 150.578 252.762 153.936 248.62 153.936 Z" style="fill: rgb(168, 126, 92);"></path>
  <path d="M 248.62 322.179 C 244.478 322.179 241.12 318.821 241.12 314.679 L 241.12 290.294 C 241.12 286.152 244.478 282.794 248.62 282.794 C 252.762 282.794 256.12 286.152 256.12 290.294 L 256.12 314.679 C 256.12 318.822 252.762 322.179 248.62 322.179 Z" style="fill: rgb(168, 126, 92);"></path>
  <path d="M 344.934 225.865 L 320.549 225.865 C 316.407 225.865 313.049 222.507 313.049 218.365 C 313.049 214.223 316.407 210.865 320.549 210.865 L 344.934 210.865 C 349.076 210.865 352.434 214.223 352.434 218.365 C 352.434 222.507 349.077 225.865 344.934 225.865 Z" style="fill: rgb(168, 126, 92);"></path>
  <path d="M 176.691 225.865 L 152.306 225.865 C 148.164 225.865 144.806 222.507 144.806 218.365 C 144.806 214.223 148.164 210.865 152.306 210.865 L 176.691 210.865 C 180.833 210.865 184.191 214.223 184.191 218.365 C 184.191 222.507 180.833 225.865 176.691 225.865 Z" style="fill: rgb(168, 126, 92);"></path>
  <path d="M 299.482 175.003 C 297.563 175.003 295.643 174.271 294.179 172.806 C 291.25 169.877 291.25 165.128 294.179 162.2 L 311.422 144.958 C 314.351 142.029 319.1 142.028 322.028 144.958 C 324.957 147.887 324.957 152.636 322.028 155.564 L 304.785 172.806 C 303.321 174.271 301.401 175.003 299.482 175.003 Z" style="fill: rgb(168, 126, 92);"></path>
  <path d="M 180.515 293.97 C 178.596 293.97 176.676 293.238 175.212 291.773 C 172.283 288.844 172.283 284.095 175.212 281.167 L 192.455 263.924 C 195.384 260.995 200.133 260.995 203.061 263.924 C 205.99 266.853 205.99 271.602 203.061 274.53 L 185.818 291.773 C 184.354 293.238 182.435 293.97 180.515 293.97 Z" style="fill: rgb(168, 126, 92);"></path>
  <path d="M 316.724 293.97 C 314.805 293.97 312.885 293.238 311.421 291.773 L 294.178 274.53 C 291.249 271.601 291.249 266.852 294.178 263.924 C 297.107 260.995 301.856 260.995 304.784 263.924 L 322.027 281.167 C 324.956 284.096 324.956 288.845 322.027 291.773 C 320.563 293.238 318.644 293.97 316.724 293.97 Z" style="fill: rgb(168, 126, 92);"></path>
  <path d="M 197.758 175.003 C 195.839 175.003 193.919 174.271 192.455 172.806 L 175.212 155.564 C 172.283 152.635 172.283 147.887 175.212 144.958 C 178.141 142.029 182.89 142.028 185.818 144.958 L 203.061 162.2 C 205.99 165.129 205.99 169.877 203.061 172.806 C 201.597 174.271 199.678 175.003 197.758 175.003 Z" style="fill: rgb(168, 126, 92);"></path>
  <g transform="matrix(1, 0, 0, 1, 144.805862, 114.551407)"></g>
  <g transform="matrix(1, 0, 0, 1, 144.805862, 114.551407)"></g>
  <g transform="matrix(1, 0, 0, 1, 144.805862, 114.551407)"></g>
  <g transform="matrix(1, 0, 0, 1, 144.805862, 114.551407)"></g>
  <g transform="matrix(1, 0, 0, 1, 144.805862, 114.551407)"></g>
  <g transform="matrix(1, 0, 0, 1, 144.805862, 114.551407)"></g>
  <g transform="matrix(1, 0, 0, 1, 144.805862, 114.551407)"></g>
  <g transform="matrix(1, 0, 0, 1, 144.805862, 114.551407)"></g>
  <g transform="matrix(1, 0, 0, 1, 144.805862, 114.551407)"></g>
  <g transform="matrix(1, 0, 0, 1, 144.805862, 114.551407)"></g>
  <g transform="matrix(1, 0, 0, 1, 144.805862, 114.551407)"></g>
  <g transform="matrix(1, 0, 0, 1, 144.805862, 114.551407)"></g>
  <g transform="matrix(1, 0, 0, 1, 144.805862, 114.551407)"></g>
  <g transform="matrix(1, 0, 0, 1, 144.805862, 114.551407)"></g>
  <g transform="matrix(1, 0, 0, 1, 144.805862, 114.551407)"></g>
</svg>