<?xml version="1.0" encoding="UTF-8"?>
<svg xmlns="http://www.w3.org/2000/svg" xmlns:xlink="http://www.w3.org/1999/xlink" width="135.52pt" height="158.61pt" viewBox="0 0 135.52 158.61" version="1.1">
<g id="surface1">
<path style=" stroke:none;fill-rule:nonzero;fill:rgb(94.509888%,23.136902%,16.862488%);fill-opacity:1;" d="M 1.246094 132.039062 L 0 135.820312 L 11.550781 135.820312 L 4.027344 158.609375 L 10.007812 158.609375 C 11.972656 158.609375 14.109375 157.023438 14.785156 155.0625 C 14.789062 155.039062 14.796875 155.019531 14.808594 154.996094 C 14.820312 154.964844 14.832031 154.933594 14.839844 154.886719 L 21.140625 135.820312 L 26.480469 135.820312 L 27.722656 132.039062 L 1.246094 132.039062 "/>
<path style=" stroke:none;fill-rule:nonzero;fill:rgb(94.509888%,23.136902%,16.862488%);fill-opacity:1;" d="M 42.605469 158.609375 L 50.542969 134.648438 L 52.035156 134.648438 C 54.027344 134.648438 55.109375 136.261719 54.453125 138.253906 L 47.707031 158.609375 L 52.640625 158.609375 C 54.613281 158.609375 56.742188 157.023438 57.421875 155.0625 C 57.425781 155.039062 57.433594 155.023438 57.441406 155 C 57.460938 154.964844 57.46875 154.929688 57.476562 154.890625 L 63.777344 135.816406 L 65.019531 132.039062 L 35.34375 132.039062 C 31.976562 132.039062 28.347656 134.773438 27.242188 138.136719 L 20.457031 158.609375 L 28.976562 158.609375 L 36.917969 134.648438 L 38.410156 134.648438 C 40.398438 134.648438 41.484375 136.261719 40.828125 138.253906 L 34.078125 158.609375 L 42.605469 158.609375 "/>
<path style=" stroke:none;fill-rule:nonzero;fill:rgb(94.509888%,23.136902%,16.862488%);fill-opacity:1;" d="M 84.046875 158.609375 L 91.988281 134.648438 L 93.476562 134.648438 C 95.46875 134.648438 96.550781 136.261719 95.902344 138.253906 L 89.15625 158.609375 L 94.085938 158.609375 C 96.054688 158.609375 98.183594 157.023438 98.867188 155.0625 C 98.871094 155.039062 98.882812 155.023438 98.886719 155 C 98.898438 154.964844 98.90625 154.929688 98.921875 154.890625 L 105.222656 135.816406 L 106.46875 132.039062 L 76.789062 132.039062 C 73.421875 132.039062 69.792969 134.773438 68.679688 138.136719 L 61.898438 158.609375 L 70.421875 158.609375 L 78.359375 134.648438 L 79.859375 134.648438 C 81.84375 134.648438 82.925781 136.261719 82.273438 138.253906 L 75.527344 158.609375 L 84.046875 158.609375 "/>
<path style=" stroke:none;fill-rule:nonzero;fill:rgb(94.509888%,23.136902%,16.862488%);fill-opacity:1;" d="M 123.273438 139.519531 L 133.023438 139.519531 L 135.519531 132.039062 L 118.230469 132.039062 C 114.855469 132.039062 111.230469 134.777344 110.117188 138.136719 L 103.332031 158.609375 L 123.859375 158.609375 C 125.828125 158.609375 127.964844 157.023438 128.644531 155.0625 L 130.210938 150.277344 L 120.457031 150.277344 L 119.839844 152.148438 C 119.15625 154.101562 117.023438 155.683594 115.0625 155.683594 L 113.96875 155.683594 L 120.769531 135.148438 C 123.109375 135.148438 124.359375 136.265625 123.710938 138.25 L 123.273438 139.519531 "/>
<path style=" stroke:none;fill-rule:nonzero;fill:rgb(94.509888%,23.136902%,16.862488%);fill-opacity:1;" d="M 30.792969 110.925781 L 27.515625 110.925781 C 25.9375 110.925781 24.613281 109.59375 24.613281 108.023438 L 24.613281 33.246094 C 24.613281 31.671875 25.9375 30.339844 27.515625 30.339844 L 52.101562 30.339844 L 56.671875 17.148438 L 27.515625 17.148438 C 18.636719 17.148438 11.417969 24.371094 11.417969 33.246094 L 11.417969 108.023438 C 11.417969 116.902344 18.636719 124.121094 27.515625 124.121094 L 40.257812 124.121094 C 40.257812 124.121094 60.21875 65.257812 68.421875 41.074219 C 76.621094 65.257812 96.585938 124.121094 96.585938 124.121094 L 109.324219 124.121094 C 118.207031 124.121094 125.429688 116.902344 125.429688 108.023438 L 125.429688 33.246094 C 125.429688 24.371094 118.207031 17.148438 109.324219 17.148438 L 80.167969 17.148438 L 84.566406 30.339844 L 109.324219 30.339844 C 110.90625 30.339844 112.226562 31.671875 112.226562 33.246094 L 112.226562 108.023438 C 112.226562 109.59375 110.90625 110.925781 109.324219 110.925781 L 106.042969 110.925781 C 103.28125 102.773438 68.421875 -0.00390625 68.421875 -0.00390625 L 30.792969 110.925781 "/>
</g>
</svg>
