
<svg viewBox="196.589 182.149 76.62 72" width="76.62" height="72">
  <linearGradient id="a" gradientUnits="userSpaceOnUse" x1="-29.148" y1="46.324" x2="-49.755" y2="58.222" gradientTransform="matrix(0.9996, 0.028288, -0.028288, 0.9996, 274.970156, 167.198269)">
    <stop offset="0" stop-color="#ff9100"></stop>
    <stop offset="0.05" stop-color="#ff8d00"></stop>
    <stop offset="0.25" stop-color="#ff8300"></stop>
    <stop offset="0.5" stop-color="#ff8000"></stop>
    <stop offset="0.75" stop-color="#ff8300"></stop>
    <stop offset="0.95" stop-color="#ff8d00"></stop>
    <stop offset="1" stop-color="#ff9100"></stop>
  </linearGradient>
  <linearGradient id="b" gradientUnits="userSpaceOnUse" x1="-86.26" y1="76.69" x2="-118.302" y2="76.69" gradientTransform="matrix(0.959476, 0.281789, -0.281789, 0.959476, 354.646387, 173.385479)">
    <stop offset="0" stop-color="#ff9100"></stop>
    <stop offset="0.05" stop-color="#ff8d00"></stop>
    <stop offset="0.25" stop-color="#ff8300"></stop>
    <stop offset="0.5" stop-color="#ff8000"></stop>
    <stop offset="0.75" stop-color="#ff8300"></stop>
    <stop offset="0.95" stop-color="#ff8d00"></stop>
    <stop offset="1" stop-color="#ff9100"></stop>
  </linearGradient>
  <linearGradient id="c" gradientUnits="userSpaceOnUse" x1="-84.45" y1="87.93" x2="-120.71" y2="65.522" gradientTransform="matrix(0.973235, 0.229812, -0.229812, 0.973235, 352.374507, 167.046243)">
    <stop offset="0" stop-color="#ff9100"></stop>
    <stop offset="0.05" stop-color="#ff8d00"></stop>
    <stop offset="0.25" stop-color="#ff8300"></stop>
    <stop offset="0.5" stop-color="#ff8000"></stop>
    <stop offset="0.75" stop-color="#ff8300"></stop>
    <stop offset="0.95" stop-color="#ff8d00"></stop>
    <stop offset="1" stop-color="#ff9100"></stop>
  </linearGradient>
  <linearGradient id="d" gradientUnits="userSpaceOnUse" x1="-13.675" y1="75.742" x2="-41.784" y2="27.055" gradientTransform="matrix(0.993238, 0.116099, -0.116099, 0.993238, 268.4077, 170.321166)">
    <stop offset="0" stop-color="#ff9100"></stop>
    <stop offset="0.05" stop-color="#ff8d00"></stop>
    <stop offset="0.25" stop-color="#ff8300"></stop>
    <stop offset="0.5" stop-color="#ff8000"></stop>
    <stop offset="0.75" stop-color="#ff8300"></stop>
    <stop offset="0.95" stop-color="#ff8d00"></stop>
    <stop offset="1" stop-color="#ff9100"></stop>
  </linearGradient>
  <linearGradient id="e" gradientUnits="userSpaceOnUse" x1="38.31" y1="72" x2="38.31" gradientTransform="matrix(1, 0, 0, 1, 196.589111, 182.148972)">
    <stop offset="0" stop-color="#ff9100"></stop>
    <stop offset="0.05" stop-color="#ff8d00"></stop>
    <stop offset="0.25" stop-color="#ff8300"></stop>
    <stop offset="0.5" stop-color="#ff8000"></stop>
    <stop offset="0.75" stop-color="#ff8300"></stop>
    <stop offset="0.95" stop-color="#ff8d00"></stop>
    <stop offset="1" stop-color="#ff9100"></stop>
  </linearGradient>
  <path fill="url(#a)" d="M 230.926 207.609 C 231.316 208.336 231.051 209.248 230.321 209.642 C 229.588 210.035 228.675 209.761 228.28 209.028 C 227.88 208.302 228.156 207.388 228.884 206.996 C 229.617 206.598 230.534 206.873 230.926 207.609 L 230.926 207.609 Z M 223.497 219.371 C 223.071 219.608 222.913 220.144 223.143 220.574 C 223.373 221.005 223.913 221.163 224.339 220.922 C 224.775 220.697 224.939 220.156 224.699 219.728 C 224.464 219.299 223.928 219.14 223.497 219.371 Z M 223.347 215.755 C 222.852 216.026 222.668 216.646 222.934 217.144 C 223.211 217.652 223.833 217.835 224.336 217.567 C 224.833 217.295 225.023 216.66 224.754 216.167 C 224.482 215.662 223.849 215.476 223.347 215.755 L 223.347 215.755 Z M 224.285 212.275 C 223.715 212.586 223.499 213.296 223.8 213.872 C 224.115 214.441 224.83 214.661 225.4 214.35 C 225.976 214.042 226.193 213.325 225.883 212.75 C 225.57 212.182 224.858 211.97 224.285 212.275 L 224.285 212.275 Z M 226.199 209.265 C 225.547 209.611 225.303 210.423 225.658 211.071 C 226.008 211.71 226.802 211.953 227.446 211.604 C 228.096 211.263 228.342 210.456 227.993 209.81 C 227.65 209.162 226.845 208.917 226.199 209.265 Z M 224.734 222.795 C 224.373 222.989 224.239 223.441 224.435 223.801 C 224.633 224.157 225.078 224.29 225.439 224.101 C 225.795 223.901 225.925 223.453 225.732 223.093 C 225.536 222.738 225.092 222.605 224.734 222.795 L 224.734 222.795 Z M 241.828 210.481 C 242.066 210.909 242.6 211.071 243.035 210.846 C 243.464 210.608 243.623 210.071 243.394 209.638 C 243.163 209.207 242.625 209.046 242.196 209.281 C 241.763 209.511 241.598 210.048 241.828 210.481 Z M 238.825 208.57 C 239.096 209.072 239.734 209.255 240.22 208.982 C 240.733 208.71 240.916 208.086 240.642 207.586 C 240.374 207.086 239.753 206.897 239.251 207.162 C 238.749 207.436 238.559 208.063 238.825 208.57 Z M 235.355 207.64 C 235.66 208.212 236.373 208.425 236.941 208.113 C 237.518 207.807 237.735 207.091 237.426 206.516 C 237.119 205.941 236.401 205.729 235.831 206.045 C 235.258 206.353 235.045 207.068 235.355 207.64 L 235.355 207.64 Z M 231.732 207.783 C 232.078 208.431 232.885 208.676 233.533 208.329 C 234.175 207.975 234.413 207.17 234.067 206.524 C 233.555 205.64 232.278 205.641 231.769 206.526 C 231.546 206.913 231.533 207.385 231.732 207.783 Z M 244.084 213.188 C 244.274 213.547 244.724 213.677 245.072 213.485 C 245.433 213.298 245.569 212.85 245.373 212.494 C 245.181 212.133 244.735 211.993 244.371 212.18 C 244.028 212.379 243.885 212.837 244.084 213.188 Z M 241.534 227.256 C 241.143 226.516 240.221 226.24 239.488 226.644 C 238.755 227.035 238.484 227.95 238.885 228.678 C 239.281 229.406 240.195 229.672 240.927 229.288 C 241.654 228.886 241.925 227.969 241.534 227.256 Z M 227.978 225.798 C 227.743 225.373 227.212 225.215 226.783 225.442 C 226.354 225.672 226.193 226.207 226.424 226.636 C 226.651 227.07 227.192 227.23 227.619 226.99 C 228.048 226.76 228.209 226.226 227.978 225.798 L 227.978 225.798 Z M 230.985 227.71 C 230.713 227.212 230.09 227.027 229.59 227.297 C 229.084 227.563 228.895 228.193 229.173 228.693 C 229.433 229.196 230.064 229.388 230.564 229.118 C 231.064 228.841 231.251 228.216 230.985 227.71 L 230.985 227.71 Z M 234.463 228.64 C 234.16 228.069 233.437 227.866 232.857 228.162 C 232.288 228.475 232.076 229.187 232.381 229.761 C 232.695 230.338 233.41 230.551 233.982 230.243 C 234.562 229.937 234.779 229.215 234.463 228.64 L 234.463 228.64 Z M 238.081 228.495 C 237.73 227.851 236.926 227.61 236.279 227.957 C 235.631 228.3 235.406 229.103 235.758 229.756 C 236.098 230.404 236.905 230.644 237.544 230.287 C 238.194 229.947 238.425 229.136 238.081 228.495 Z M 246.301 216.921 C 246.736 216.671 246.902 216.131 246.675 215.708 C 246.443 215.279 245.907 215.12 245.478 215.352 C 245.041 215.58 244.878 216.123 245.116 216.554 C 245.345 216.979 245.872 217.142 246.301 216.921 L 246.301 216.921 Z M 246.467 220.531 C 246.969 220.258 247.149 219.631 246.876 219.133 C 246.608 218.632 245.984 218.444 245.484 218.715 C 244.984 218.99 244.796 219.615 245.06 220.121 C 245.326 220.614 245.972 220.796 246.467 220.531 L 246.467 220.531 Z M 245.522 224.008 C 246.108 223.693 246.312 222.985 246.013 222.406 C 245.702 221.833 244.987 221.619 244.412 221.927 C 243.838 222.24 243.623 222.956 243.93 223.533 C 244.242 224.1 244.951 224.312 245.522 224.008 L 245.522 224.008 Z M 243.621 227.005 C 244.265 226.671 244.503 225.852 244.154 225.213 C 243.8 224.571 243 224.322 242.359 224.676 C 241.714 225.024 241.474 225.829 241.823 226.474 C 242.169 227.123 242.979 227.362 243.621 227.005 Z"></path>
  <path fill="url(#b)" d="M 241.074 204.017 C 240.772 205.039 239.697 205.622 238.676 205.316 C 237.647 205.019 237.058 203.94 237.365 202.914 C 237.79 201.486 239.6 201.054 240.624 202.135 C 241.1 202.637 241.271 203.354 241.074 204.017 Z M 222.531 208.584 C 222.024 208.443 221.496 208.732 221.343 209.236 C 221.162 209.948 221.82 210.59 222.527 210.391 C 222.833 210.305 223.075 210.073 223.175 209.772 C 223.333 209.269 223.033 208.74 222.531 208.584 L 222.531 208.584 Z M 225.886 204.894 C 225.262 204.71 224.606 205.069 224.426 205.695 C 224.24 206.32 224.598 206.977 225.224 207.159 C 225.849 207.34 226.503 206.983 226.689 206.359 C 226.869 205.733 226.51 205.079 225.886 204.894 L 225.886 204.894 Z M 230.185 202.293 C 229.391 202.064 228.561 202.515 228.321 203.306 C 228.092 204.101 228.548 204.932 229.342 205.165 C 230.136 205.402 230.97 204.947 231.2 204.151 C 231.424 203.359 230.973 202.533 230.185 202.293 L 230.185 202.293 Z M 234.946 201.228 C 234.052 200.96 233.112 201.472 232.851 202.368 C 232.585 203.26 233.096 204.199 233.99 204.46 C 234.881 204.72 235.816 204.212 236.081 203.322 C 236.35 202.43 235.841 201.489 234.946 201.228 L 234.946 201.228 Z M 220.41 213.152 C 220.035 213.04 219.64 213.256 219.531 213.632 C 219.416 214.011 219.63 214.41 220.009 214.525 C 220.391 214.635 220.785 214.415 220.896 214.037 C 221.007 213.658 220.789 213.261 220.41 213.152 L 220.41 213.152 Z M 249.297 217.446 C 249.146 217.953 249.438 218.485 249.946 218.631 C 250.651 218.838 251.317 218.205 251.144 217.49 C 251.063 217.159 250.812 216.895 250.485 216.799 C 249.979 216.651 249.448 216.94 249.297 217.446 Z M 248.193 212.671 C 248.005 213.298 248.364 213.958 248.993 214.14 C 249.623 214.326 250.273 213.966 250.457 213.34 C 250.641 212.714 250.286 212.061 249.661 211.881 C 249.038 211.693 248.38 212.047 248.193 212.671 Z M 245.593 208.376 C 245.269 209.482 246.264 210.524 247.383 210.252 C 247.903 210.125 248.316 209.731 248.466 209.218 C 248.702 208.425 248.245 207.593 247.45 207.366 C 246.659 207.138 245.831 207.588 245.593 208.376 Z M 241.934 205.04 C 241.571 206.285 242.692 207.456 243.951 207.148 C 244.536 207.005 245 206.561 245.168 205.983 C 245.434 205.092 244.924 204.154 244.031 203.893 C 243.135 203.631 242.197 204.144 241.934 205.04 Z M 248.91 222.266 C 248.803 222.642 249.016 223.035 249.389 223.151 C 249.768 223.265 250.166 223.046 250.274 222.666 C 250.388 222.288 250.172 221.89 249.793 221.78 C 249.415 221.674 249.023 221.89 248.91 222.266 L 248.91 222.266 Z M 232.446 233.39 C 232.751 232.361 232.162 231.281 231.132 230.98 C 230.107 230.678 229.031 231.266 228.731 232.292 C 228.427 233.32 229.016 234.4 230.045 234.7 C 231.071 234.997 232.154 234.407 232.446 233.39 Z M 220.509 218.852 C 220.659 218.346 220.371 217.815 219.865 217.665 C 219.358 217.521 218.828 217.81 218.675 218.315 C 218.528 218.82 218.819 219.349 219.325 219.495 C 219.83 219.647 220.362 219.358 220.509 218.852 Z M 221.615 223.624 C 221.8 223.003 221.442 222.35 220.819 222.172 C 220.195 221.977 219.533 222.336 219.356 222.965 C 219.102 223.834 219.885 224.652 220.765 224.437 C 221.173 224.338 221.497 224.028 221.615 223.624 Z M 224.219 227.925 C 224.447 227.128 223.992 226.295 223.197 226.057 C 222.403 225.828 221.573 226.285 221.341 227.078 C 221.105 227.871 221.56 228.705 222.354 228.936 C 223.148 229.174 223.985 228.72 224.219 227.925 L 224.219 227.925 Z M 227.878 231.266 C 228.137 230.371 227.623 229.436 226.729 229.174 C 225.836 228.91 224.9 229.426 224.645 230.322 C 224.383 231.212 224.893 232.147 225.784 232.407 C 226.677 232.666 227.612 232.157 227.878 231.266 L 227.878 231.266 Z M 247.272 227.711 C 247.78 227.862 248.314 227.573 248.465 227.065 C 248.61 226.558 248.322 226.029 247.818 225.876 C 247.312 225.731 246.783 226.02 246.631 226.524 C 246.483 227.029 246.769 227.558 247.272 227.711 Z M 243.923 231.406 C 244.545 231.589 245.197 231.234 245.381 230.613 C 245.572 229.989 245.216 229.329 244.59 229.144 C 243.964 228.96 243.306 229.317 243.118 229.942 C 242.943 230.568 243.301 231.219 243.923 231.406 Z M 239.624 234.008 C 240.42 234.245 241.256 233.788 241.487 232.991 C 241.719 232.198 241.264 231.368 240.471 231.137 C 239.366 230.811 238.322 231.803 238.593 232.923 C 238.718 233.443 239.111 233.857 239.624 234.008 Z M 234.867 235.069 C 235.757 235.341 236.698 234.831 236.956 233.937 C 237.321 232.692 236.202 231.518 234.941 231.824 C 234.356 231.967 233.891 232.41 233.721 232.988 C 233.465 233.879 233.978 234.809 234.867 235.069 L 234.867 235.069 Z"></path>
  <path fill="url(#c)" d="M 250.701 205.001 C 249.757 205.996 248.186 206.039 247.189 205.097 C 246.188 204.157 246.144 202.581 247.091 201.586 C 248.029 200.585 249.602 200.537 250.6 201.478 C 251.599 202.424 251.644 204 250.701 205.001 Z M 225.936 199.353 C 225.442 198.891 224.668 198.913 224.202 199.403 C 223.741 199.895 223.763 200.668 224.252 201.133 C 224.746 201.596 225.521 201.572 225.986 201.081 C 226.447 200.589 226.425 199.817 225.936 199.353 L 225.936 199.353 Z M 232.145 196.991 C 231.536 196.422 230.582 196.451 230.008 197.056 C 229.434 197.665 229.463 198.625 230.073 199.198 C 230.683 199.767 231.638 199.736 232.211 199.13 C 232.78 198.52 232.75 197.565 232.145 196.991 L 232.145 196.991 Z M 238.805 196.504 C 238.032 195.779 236.819 195.814 236.089 196.583 C 235.106 197.691 235.692 199.448 237.143 199.744 C 237.775 199.874 238.43 199.678 238.887 199.222 C 239.613 198.448 239.576 197.233 238.805 196.504 Z M 245.106 198.117 C 244.239 197.295 242.868 197.335 242.05 198.206 C 241.23 199.073 241.269 200.441 242.136 201.261 C 243.006 202.078 244.373 202.038 245.194 201.172 C 246.011 200.303 245.972 198.937 245.106 198.117 Z M 220.672 203.489 C 220.304 203.146 219.728 203.163 219.381 203.527 C 219.033 203.892 219.049 204.471 219.416 204.817 C 219.781 205.166 220.361 205.15 220.706 204.781 C 221.053 204.415 221.038 203.837 220.672 203.489 L 220.672 203.489 Z M 252.47 226.027 C 252.006 226.52 252.028 227.296 252.52 227.762 C 253.228 228.391 254.351 228.019 254.542 227.092 C 254.626 226.685 254.499 226.264 254.205 225.971 C 253.71 225.509 252.935 225.534 252.47 226.027 Z M 254.04 219.699 C 253.473 220.309 253.504 221.262 254.109 221.834 C 254.717 222.409 255.676 222.381 256.248 221.77 C 256.824 221.163 256.793 220.203 256.181 219.633 C 255.571 219.063 254.614 219.092 254.04 219.699 L 254.04 219.699 Z M 253.558 213.035 C 252.829 213.807 252.866 215.024 253.641 215.75 C 254.413 216.478 255.63 216.441 256.356 215.667 C 257.35 214.572 256.785 212.812 255.34 212.499 C 254.693 212.358 254.02 212.561 253.558 213.035 L 253.558 213.035 Z M 251.232 206.859 C 250.091 208.071 250.69 210.063 252.31 210.445 C 253.93 210.827 255.356 209.313 254.877 207.719 C 254.767 207.354 254.563 207.025 254.285 206.764 C 253.423 205.946 252.053 205.993 251.232 206.859 Z M 249.095 231.516 C 248.752 231.885 248.769 232.461 249.135 232.808 C 249.503 233.153 250.081 233.131 250.423 232.761 C 250.773 232.399 250.756 231.819 250.384 231.479 C 250.02 231.129 249.439 231.145 249.095 231.516 L 249.095 231.516 Z M 222.719 234.71 C 224.02 233.305 223.312 231.019 221.445 230.595 C 220.595 230.402 219.705 230.668 219.101 231.297 C 217.829 232.729 218.584 235.001 220.46 235.386 C 221.279 235.555 222.128 235.301 222.719 234.71 L 222.719 234.71 Z M 217.339 210.268 C 217.987 209.581 217.648 208.451 216.73 208.233 C 216.304 208.132 215.856 208.266 215.555 208.585 C 215.085 209.075 215.113 209.848 215.61 210.316 C 216.097 210.776 216.871 210.757 217.339 210.268 L 217.339 210.268 Z M 215.763 216.599 C 216.333 215.989 216.305 215.034 215.701 214.458 C 214.833 213.68 213.449 214.134 213.209 215.275 C 213.104 215.776 213.259 216.296 213.622 216.658 C 214.231 217.23 215.187 217.203 215.763 216.599 L 215.763 216.599 Z M 216.248 223.26 C 216.977 222.486 216.941 221.267 216.167 220.537 C 215.393 219.81 214.176 219.848 213.448 220.621 C 212.723 221.395 212.761 222.61 213.532 223.338 C 214.308 224.071 215.522 224.032 216.248 223.26 Z M 218.57 229.438 C 219.388 228.569 219.348 227.202 218.481 226.382 C 217.614 225.563 216.246 225.605 215.431 226.476 C 214.608 227.342 214.645 228.711 215.513 229.531 C 216.385 230.343 217.749 230.302 218.57 229.438 Z M 243.87 236.942 C 244.362 237.407 245.139 237.384 245.602 236.889 C 246.067 236.398 246.043 235.623 245.549 235.161 C 245.059 234.696 244.283 234.718 243.82 235.211 C 243.356 235.703 243.379 236.478 243.87 236.942 Z M 237.661 239.301 C 238.271 239.876 239.227 239.838 239.8 239.234 C 240.374 238.628 240.346 237.671 239.738 237.1 C 239.127 236.527 238.168 236.557 237.594 237.166 C 237.026 237.775 237.056 238.729 237.661 239.301 L 237.661 239.301 Z M 230.997 239.782 C 231.777 240.517 232.985 240.481 233.712 239.709 C 234.443 238.939 234.409 237.722 233.636 236.994 C 232.862 236.266 231.646 236.3 230.914 237.07 C 230.187 237.841 230.224 239.057 230.997 239.782 L 230.997 239.782 Z M 224.709 238.178 C 225.575 238.997 226.943 238.957 227.759 238.088 C 228.898 236.877 228.299 234.887 226.68 234.506 C 225.929 234.329 225.141 234.567 224.612 235.129 C 223.795 235.997 223.839 237.364 224.709 238.178 L 224.709 238.178 Z"></path>
  <path fill="url(#d)" d="M 260.793 210.262 C 259.265 210.919 257.494 210.213 256.836 208.686 C 256.176 207.158 256.883 205.385 258.412 204.73 C 260.561 203.859 262.847 205.64 262.527 207.937 C 262.385 208.957 261.731 209.835 260.793 210.262 Z M 239.654 191.101 C 239.478 190.2 238.601 189.615 237.701 189.797 C 236.799 189.972 236.213 190.849 236.396 191.75 C 236.689 192.995 238.221 193.456 239.153 192.58 C 239.555 192.201 239.743 191.647 239.654 191.101 L 239.654 191.101 Z M 246.785 192.652 C 246.512 191.574 245.415 190.923 244.338 191.201 C 243.259 191.472 242.607 192.57 242.885 193.648 C 243.268 195.149 245.133 195.672 246.241 194.59 C 246.756 194.087 246.963 193.349 246.785 192.652 L 246.785 192.652 Z M 253.36 195.825 C 252.95 194.501 251.541 193.762 250.219 194.179 C 248.895 194.589 248.155 195.998 248.57 197.321 C 249.196 199.149 251.566 199.615 252.836 198.159 C 253.394 197.519 253.591 196.641 253.36 195.825 Z M 258.604 200.499 C 258.075 199.065 256.483 198.333 255.05 198.866 C 253.614 199.392 252.88 200.987 253.414 202.42 C 254.154 204.418 256.778 204.866 258.138 203.227 C 258.77 202.466 258.947 201.426 258.604 200.499 L 258.604 200.499 Z M 225.36 192.97 C 225.096 192.356 224.382 192.073 223.769 192.34 C 222.915 192.708 222.781 193.863 223.526 194.418 C 223.873 194.676 224.33 194.729 224.726 194.558 C 225.339 194.294 225.625 193.582 225.36 192.97 Z M 255.522 232.863 C 254.495 233.627 254.68 235.216 255.855 235.724 C 256.376 235.949 256.976 235.893 257.446 235.575 C 258.195 235.044 258.371 234.005 257.837 233.257 C 257.307 232.509 256.27 232.332 255.522 232.863 L 255.522 232.863 Z M 258.826 226.381 C 257.501 227.184 257.541 229.12 258.899 229.867 C 259.553 230.226 260.353 230.194 260.976 229.784 C 262.27 228.932 262.157 226.998 260.771 226.303 C 260.153 225.993 259.418 226.022 258.826 226.381 Z M 260.389 219.087 C 259.181 219.767 258.752 221.297 259.43 222.506 C 260.109 223.714 261.639 224.141 262.845 223.459 C 264.056 222.784 264.487 221.253 263.805 220.046 C 263.128 218.837 261.597 218.407 260.389 219.087 L 260.389 219.087 Z M 260.294 211.773 C 258.928 212.452 258.369 214.108 259.044 215.476 C 259.72 216.849 261.384 217.41 262.753 216.727 C 264.124 216.052 264.685 214.391 264.003 213.023 C 263.323 211.655 261.664 211.095 260.294 211.773 L 260.294 211.773 Z M 245.075 241.742 C 244.221 242.11 244.086 243.265 244.832 243.821 C 245.178 244.078 245.636 244.132 246.032 243.961 C 246.645 243.697 246.931 242.986 246.667 242.371 C 246.401 241.758 245.688 241.476 245.075 241.742 L 245.075 241.742 Z M 211.392 231.567 C 212.918 230.906 213.619 229.134 212.959 227.608 C 212.303 226.082 210.533 225.379 209.009 226.038 C 207.48 226.693 206.774 228.467 207.434 229.994 C 208.094 231.52 209.865 232.224 211.392 231.567 L 211.392 231.567 Z M 214.278 203.435 C 215.026 202.906 215.204 201.87 214.674 201.122 C 214.147 200.37 213.108 200.191 212.36 200.725 C 211.607 201.254 211.429 202.294 211.964 203.043 C 212.496 203.789 213.531 203.964 214.278 203.435 L 214.278 203.435 Z M 210.977 209.916 C 211.919 209.321 212.198 208.075 211.602 207.134 C 210.773 205.826 208.838 205.906 208.12 207.278 C 207.786 207.915 207.818 208.682 208.203 209.289 C 208.796 210.228 210.038 210.509 210.977 209.916 L 210.977 209.916 Z M 209.409 217.211 C 211.119 216.313 211.216 213.901 209.583 212.869 C 208.783 212.362 207.765 212.351 206.952 212.838 C 205.272 213.789 205.252 216.203 206.916 217.182 C 207.683 217.633 208.632 217.644 209.409 217.211 Z M 209.506 224.527 C 210.875 223.848 211.435 222.188 210.756 220.819 C 210.081 219.445 208.415 218.883 207.046 219.569 C 205.677 220.246 205.116 221.905 205.794 223.274 C 206.474 224.644 208.135 225.205 209.506 224.527 Z M 230.146 245.201 C 230.326 246.102 231.202 246.687 232.103 246.508 C 233.003 246.325 233.586 245.448 233.405 244.547 C 233.222 243.649 232.348 243.067 231.449 243.245 C 230.55 243.426 229.967 244.301 230.146 245.201 Z M 223.019 243.646 C 223.291 244.724 224.388 245.376 225.465 245.099 C 226.965 244.716 227.488 242.852 226.406 241.744 C 225.904 241.23 225.165 241.023 224.469 241.201 C 223.394 241.476 222.744 242.57 223.019 243.646 L 223.019 243.646 Z M 216.442 240.472 C 216.849 241.798 218.259 242.537 219.581 242.118 C 220.906 241.71 221.647 240.302 221.232 238.979 C 220.817 237.656 219.41 236.919 218.086 237.332 C 216.763 237.743 216.026 239.151 216.442 240.472 Z M 211.196 235.795 C 211.722 237.231 213.317 237.965 214.75 237.429 C 216.732 236.65 217.128 234.018 215.462 232.691 C 214.721 232.101 213.729 231.931 212.833 232.241 C 211.401 232.772 210.669 234.362 211.196 235.795 L 211.196 235.795 Z M 250.777 238.234 C 250.014 238.879 250.235 240.108 251.175 240.447 C 251.584 240.594 252.039 240.527 252.388 240.268 C 253.191 239.673 253.048 238.432 252.131 238.035 C 251.678 237.838 251.154 237.916 250.777 238.234 Z M 238.608 243.48 C 237.9 243.587 237.411 244.246 237.514 244.955 C 237.618 245.664 238.277 246.155 238.986 246.05 C 239.697 245.948 240.189 245.288 240.085 244.578 C 239.981 243.866 239.319 243.375 238.608 243.48 Z M 232.291 191.344 C 232.187 190.633 231.524 190.143 230.814 190.25 C 229.826 190.395 229.366 191.556 229.986 192.339 C 230.274 192.702 230.734 192.884 231.192 192.817 C 231.902 192.713 232.394 192.054 232.291 191.344 Z M 219.237 196.241 C 218.791 195.68 217.975 195.584 217.411 196.028 C 216.626 196.649 216.808 197.886 217.738 198.256 C 218.668 198.625 219.649 197.849 219.504 196.859 C 219.471 196.633 219.379 196.42 219.237 196.241 Z"></path>
  <path fill="url(#e)" d="M 269.35 222.004 C 267.221 222.001 265.496 220.273 265.498 218.144 C 265.495 216.013 267.225 214.286 269.355 214.293 C 271.486 214.289 273.214 216.017 273.209 218.148 C 273.208 220.278 271.48 222.005 269.35 222.004 Z M 254.212 188.748 C 254.459 187.599 253.725 186.468 252.574 186.227 C 251.425 185.977 250.292 186.71 250.049 187.86 C 249.707 189.462 251.228 190.834 252.787 190.329 C 253.51 190.094 254.053 189.492 254.212 188.748 L 254.212 188.748 Z M 261.81 194.188 C 262.035 192.782 261.075 191.461 259.669 191.24 C 257.701 190.973 256.182 192.937 256.936 194.775 C 257.269 195.589 257.995 196.177 258.861 196.335 C 260.268 196.554 261.587 195.594 261.81 194.188 L 261.81 194.188 Z M 267.932 201.257 Z M 271.728 209.413 C 271.833 207.458 270.33 205.79 268.375 205.691 C 266.42 205.583 264.749 207.086 264.65 209.042 C 264.483 211.765 267.326 213.648 269.768 212.431 C 270.922 211.856 271.672 210.701 271.728 209.413 L 271.728 209.413 Z M 236.451 183.695 C 236.451 182.836 235.756 182.149 234.9 182.149 C 233.709 182.192 233.011 183.508 233.644 184.518 C 233.916 184.953 234.387 185.225 234.9 185.243 C 235.756 185.243 236.451 184.552 236.451 183.695 L 236.451 183.695 Z M 251.689 245.911 C 250.085 246.252 249.452 248.201 250.549 249.42 C 251.058 249.985 251.831 250.236 252.575 250.078 C 254.179 249.737 254.812 247.788 253.715 246.569 C 253.206 246.004 252.433 245.753 251.689 245.911 Z M 258.861 239.965 C 256.898 240.255 255.984 242.561 257.217 244.116 C 257.8 244.852 258.737 245.213 259.663 245.058 C 261.62 244.73 262.489 242.407 261.227 240.875 C 260.652 240.179 259.755 239.833 258.861 239.965 Z M 264.4 232.179 C 261.941 232.438 260.683 235.262 262.137 237.262 C 262.812 238.191 263.931 238.689 265.072 238.569 C 266.839 238.387 268.121 236.804 267.932 235.038 C 267.746 233.273 266.165 231.994 264.4 232.179 Z M 267.998 223.528 C 266.047 223.634 264.549 225.3 264.65 227.252 C 264.749 229.208 266.419 230.711 268.375 230.603 C 270.33 230.503 271.832 228.835 271.727 226.881 C 271.621 224.926 269.953 223.426 267.998 223.528 Z M 234.9 251.054 C 233.709 251.084 232.997 252.393 233.619 253.409 C 233.893 253.857 234.375 254.136 234.9 254.149 C 236.091 254.149 236.836 252.859 236.24 251.828 C 235.964 251.349 235.453 251.054 234.9 251.054 Z M 200.448 222.004 C 202.576 222 204.299 220.272 204.298 218.144 C 204.301 216.016 202.576 214.29 200.448 214.293 C 198.317 214.29 196.588 216.018 196.589 218.149 C 196.594 220.278 198.319 222.002 200.448 222.004 Z M 218.111 190.384 C 219.261 190.14 219.995 189.009 219.751 187.859 C 219.508 186.709 218.376 185.976 217.227 186.224 C 215.626 186.564 214.994 188.51 216.089 189.727 C 216.597 190.291 217.368 190.542 218.111 190.384 Z M 210.941 196.333 C 212.349 196.109 213.309 194.788 213.087 193.38 C 212.864 191.972 211.541 191.013 210.134 191.239 C 208.728 191.461 207.769 192.782 207.994 194.187 C 208.215 195.593 209.535 196.554 210.941 196.333 L 210.941 196.333 Z M 205.398 204.117 C 207.853 203.799 209.042 200.944 207.54 198.977 C 206.876 198.108 205.817 197.636 204.727 197.724 C 202.96 197.907 201.678 199.491 201.868 201.258 C 202.052 203.023 203.633 204.303 205.398 204.117 Z M 201.8 212.767 C 203.755 212.663 205.255 210.995 205.153 209.041 C 205.054 207.083 203.381 205.579 201.423 205.689 C 199.469 205.79 197.967 207.458 198.071 209.412 C 198.175 211.368 199.844 212.87 201.8 212.767 L 201.8 212.767 Z M 215.589 247.549 C 215.248 249.151 216.77 250.522 218.328 250.015 C 219.051 249.78 219.594 249.178 219.752 248.434 C 219.995 247.284 219.261 246.155 218.112 245.91 C 216.963 245.669 215.835 246.401 215.589 247.549 Z M 207.995 242.107 C 207.768 243.513 208.728 244.836 210.135 245.056 C 212.094 245.368 213.656 243.442 212.947 241.589 C 212.237 239.737 209.788 239.347 208.539 240.888 C 208.254 241.239 208.066 241.66 207.995 242.107 Z M 201.868 235.04 C 201.678 236.805 202.96 238.388 204.726 238.57 C 206.491 238.759 208.074 237.478 208.258 235.712 C 208.443 233.947 207.163 232.365 205.397 232.18 C 203.632 231.993 202.051 233.275 201.868 235.04 L 201.868 235.04 Z M 198.071 226.88 C 197.966 228.834 199.468 230.502 201.423 230.602 C 203.381 230.713 205.055 229.209 205.153 227.251 C 205.254 225.297 203.753 223.631 201.8 223.527 C 199.846 223.427 198.179 224.926 198.071 226.88 L 198.071 226.88 Z M 243.386 249.822 C 242.499 250.061 241.973 250.972 242.209 251.859 C 242.448 252.745 243.36 253.27 244.246 253.032 C 245.135 252.797 245.664 251.885 245.426 250.997 C 245.187 250.109 244.274 249.583 243.386 249.822 L 243.386 249.822 Z M 226.412 249.822 C 225.169 249.518 224.064 250.673 224.422 251.902 C 224.581 252.447 225.007 252.873 225.552 253.032 C 226.78 253.39 227.936 252.284 227.632 251.041 C 227.484 250.439 227.014 249.969 226.412 249.822 Z M 245.427 185.3 C 245.664 184.412 245.135 183.5 244.246 183.265 C 242.996 182.987 241.915 184.167 242.299 185.388 C 242.462 185.906 242.869 186.312 243.387 186.475 C 244.275 186.715 245.189 186.188 245.427 185.3 Z M 227.592 184.437 C 227.354 183.549 226.439 183.024 225.552 183.265 C 224.665 183.5 224.138 184.411 224.375 185.297 C 224.706 186.535 226.253 186.951 227.16 186.045 C 227.581 185.625 227.746 185.012 227.592 184.437 L 227.592 184.437 Z"></path>
</svg>